<svg width="52" height="52" viewBox="0 0 52 52" fill="none" xmlns="http://www.w3.org/2000/svg">
<path d="M32.2856 32.2854C30.6186 33.9524 28.3577 34.8889 26.0002 34.8889C23.6427 34.8889 21.3818 33.9524 19.7148 32.2854C18.0478 30.6184 17.1113 28.3575 17.1113 26C17.1113 23.6425 18.0478 21.3816 19.7148 19.7146C21.3818 18.0476 23.6427 17.1111 26.0002 17.1111C28.3577 17.1111 30.6186 18.0476 32.2856 19.7146C33.9526 21.3816 34.8891 23.6425 34.8891 26C34.8891 28.3575 33.9526 30.6184 32.2856 32.2854Z" stroke="white" stroke-width="2.61799" stroke-linecap="round" stroke-linejoin="round"/>
<path d="M6 34.8889V17.1111C6 14.1643 7.17063 11.3381 9.25437 9.25437C11.3381 7.17063 14.1643 6 17.1111 6H34.8889C37.8357 6 40.6619 7.17063 42.7456 9.25437C44.8294 11.3381 46 14.1643 46 17.1111V34.8889C46 37.8357 44.8294 40.6619 42.7456 42.7456C40.6619 44.8294 37.8357 46 34.8889 46H17.1111C14.1643 46 11.3381 44.8294 9.25437 42.7456C7.17063 40.6619 6 37.8357 6 34.8889Z" stroke="white" stroke-width="2.61799"/>
<path d="M38.2222 13.799L38.2434 13.7756" stroke="white" stroke-width="2.61799" stroke-linecap="round" stroke-linejoin="round"/>
</svg>
