<svg width="59" height="59" viewBox="0 0 59 59" fill="none" xmlns="http://www.w3.org/2000/svg">
<path d="M29.5 23.1621C28.2465 23.1621 27.0211 23.5338 25.9789 24.2302C24.9366 24.9267 24.1243 25.9165 23.6446 27.0746C23.1649 28.2327 23.0393 29.507 23.2839 30.7365C23.5284 31.9659 24.1321 33.0952 25.0184 33.9816C25.9048 34.8679 27.0341 35.4716 28.2635 35.7161C29.493 35.9607 30.7673 35.8351 31.9254 35.3554C33.0835 34.8757 34.0734 34.0634 34.7698 33.0211C35.4662 31.9789 35.8379 30.7535 35.8379 29.5C35.8361 27.8196 35.1677 26.2086 33.9795 25.0205C32.7914 23.8323 31.1804 23.1639 29.5 23.1621ZM29.5 34.2246C28.5656 34.2246 27.6521 33.9475 26.8752 33.4284C26.0982 32.9092 25.4926 32.1713 25.135 31.308C24.7774 30.4447 24.6839 29.4948 24.8662 28.5783C25.0485 27.6618 25.4985 26.8199 26.1592 26.1592C26.8199 25.4984 27.6618 25.0485 28.5783 24.8662C29.4948 24.6839 30.4447 24.7774 31.308 25.135C32.1713 25.4926 32.9092 26.0982 33.4284 26.8751C33.9475 27.6521 34.2246 28.5656 34.2246 29.5C34.2233 30.7526 33.7251 31.9536 32.8393 32.8393C31.9536 33.7251 30.7526 34.2233 29.5 34.2246Z" fill="white"/>
<path d="M32.2658 28.6934C32.0519 28.6934 31.8467 28.7783 31.6954 28.9296C31.5442 29.0809 31.4592 29.2861 31.4592 29.5C31.458 29.843 31.3672 30.1798 31.1959 30.477C31.0246 30.7742 30.7787 31.0215 30.4824 31.1944C30.3909 31.2478 30.3108 31.3186 30.2467 31.4029C30.1825 31.4873 30.1356 31.5834 30.1086 31.6858C30.0817 31.7883 30.0751 31.895 30.0894 32C30.1037 32.105 30.1385 32.2061 30.1918 32.2977C30.2452 32.3892 30.316 32.4693 30.4004 32.5334C30.4847 32.5976 30.5808 32.6445 30.6833 32.6715C30.7857 32.6985 30.8925 32.705 30.9974 32.6907C31.1024 32.6764 31.2036 32.6416 31.2951 32.5883C31.8346 32.2729 32.2824 31.822 32.5942 31.2803C32.9059 30.7387 33.0708 30.125 33.0725 29.5C33.0725 29.2861 32.9875 29.0809 32.8362 28.9296C32.6849 28.7783 32.4797 28.6934 32.2658 28.6934Z" fill="white"/>
<path d="M50.3484 27.6148C50.6425 27.692 50.9451 27.7317 51.2491 27.7328C51.9553 27.7323 52.6456 27.5226 53.2327 27.1301C53.8198 26.7376 54.2774 26.1799 54.5477 25.5274C54.818 24.875 54.8889 24.157 54.7513 23.4643C54.6138 22.7716 54.2741 22.1352 53.775 21.6355C53.7165 21.5774 53.6543 21.5249 53.5907 21.4709C54.1899 19.2981 54.0516 17.4055 53.1514 15.8447C51.2155 12.4891 46.1318 11.3898 39.1564 12.7786C36.8642 6.04335 33.3684 2.18945 29.5002 2.18945C25.632 2.18945 22.1368 6.04289 19.8422 12.779C12.8655 11.3893 7.78316 12.4891 5.84768 15.8443C4.97513 17.3515 4.8221 19.2455 5.37845 21.3479C4.72176 21.862 4.26565 22.5897 4.08919 23.4048C3.91272 24.2199 4.02702 25.0711 4.41227 25.8108C4.79753 26.5505 5.42945 27.1321 6.19851 27.4547C6.96756 27.7774 7.82528 27.8208 8.62299 27.5774C9.10144 28.214 9.62553 28.8579 10.1902 29.5028C5.5029 34.8515 3.91313 39.8033 5.84722 43.1553C7.23695 45.5646 10.245 46.8142 14.4128 46.8142C16.2373 46.7918 18.0553 46.5924 19.8413 46.2187C22.1354 52.9557 25.6316 56.8105 29.5002 56.8105C31.2481 56.8105 32.972 55.991 34.5212 54.4487C35.2835 54.7827 36.1384 54.8399 36.9383 54.6105C37.7383 54.3811 38.433 53.8795 38.9024 53.1923C39.3718 52.5051 39.5864 51.6756 39.5091 50.847C39.4319 50.0184 39.0676 49.2428 38.4793 48.6543C38.4212 48.5957 38.359 48.5427 38.2977 48.4892C38.5996 47.7752 38.8886 47.0142 39.1615 46.2187C40.9466 46.5926 42.7639 46.7921 44.5876 46.8142C48.755 46.8142 51.7635 45.5641 53.1532 43.1553C55.0892 39.8033 53.4976 34.8515 48.8112 29.5032C49.3551 28.8823 49.8686 28.2509 50.3484 27.6148ZM52.6338 25.547C52.2661 25.9136 51.7681 26.1195 51.2489 26.1195C50.7297 26.1195 50.2316 25.9136 49.864 25.547C49.5903 25.2731 49.404 24.9242 49.3285 24.5444C49.2531 24.1646 49.292 23.771 49.4402 23.4133C49.5885 23.0556 49.8395 22.7499 50.1614 22.5348C50.4834 22.3197 50.8619 22.2049 51.2491 22.2049C51.6363 22.2049 52.0148 22.3197 52.3368 22.5348C52.6587 22.7499 52.9097 23.0556 53.058 23.4133C53.2062 23.771 53.2451 24.1646 53.1697 24.5444C53.0942 24.9242 52.9074 25.2731 52.6338 25.547ZM51.7557 16.6509C52.3867 17.7466 52.5084 19.1086 52.1286 20.7072C51.3711 20.5145 50.5713 20.5758 49.852 20.8816C49.1327 21.1874 48.5337 21.7208 48.1468 22.3999C47.7599 23.0791 47.6066 23.8664 47.7104 24.6411C47.8142 25.4157 48.1693 26.1349 48.7213 26.6883C48.7794 26.7468 48.8416 26.7994 48.9029 26.8533C48.5287 27.3407 48.1335 27.8243 47.7174 28.3043C45.7402 26.2513 43.5868 24.3756 41.2818 22.6989C40.9807 19.8654 40.4348 17.0633 39.6501 14.3241C45.7289 13.1487 50.2244 13.9968 51.7557 16.6509ZM38.0686 44.3339C35.8245 43.7863 33.6245 43.0712 31.4873 42.1947C32.8632 41.5295 34.2336 40.8068 35.5781 40.0306C36.9333 39.247 38.2447 38.421 39.4961 37.5659C39.1901 39.8544 38.7129 42.1168 38.0686 44.3339ZM20.9319 44.3339C20.287 42.1168 19.8094 39.8545 19.503 37.5659C20.7576 38.421 22.0685 39.2479 23.4232 40.0306C24.7664 40.8068 26.1354 41.5305 27.5136 42.1947C25.3762 43.0712 23.1762 43.7863 20.9319 44.3339ZM20.9319 14.6661C23.176 15.2136 25.3759 15.9287 27.5131 16.8053C26.1368 17.4705 24.7669 18.1932 23.4223 18.9717C22.0672 19.7553 20.7558 20.5813 19.502 21.4364C19.8086 19.147 20.2865 16.8839 20.9319 14.6661ZM17.5159 34.125C15.6861 32.7161 13.9661 31.1699 12.3709 29.5C13.9662 27.8302 15.6862 26.2841 17.5159 24.875C17.402 26.396 17.3416 27.9462 17.3416 29.5C17.3416 31.0538 17.4011 32.6021 17.5159 34.125ZM24.2303 38.633C22.4843 37.6249 20.8134 36.5427 19.249 35.4171C19.0563 33.4853 18.9549 31.4991 18.9549 29.5C18.9549 27.5009 19.0563 25.5152 19.249 23.5829C20.812 22.4583 22.4834 21.3755 24.2303 20.367C25.9588 19.3681 27.7307 18.4601 29.5007 17.6576C31.2721 18.4605 33.0435 19.3686 34.772 20.367C36.518 21.3751 38.1889 22.4573 39.7533 23.5829C39.946 25.5147 40.0474 27.5009 40.0474 29.5C40.0474 31.4991 39.946 33.4848 39.7533 35.4171C38.1903 36.5417 36.5189 37.6245 34.772 38.633C33.0435 39.6319 31.2716 40.5399 29.5016 41.3424C27.7293 40.5395 25.9579 39.6314 24.2294 38.633H24.2303ZM38.0695 14.6643C38.7144 16.8813 39.192 19.1437 39.4984 21.4322C38.2438 20.5772 36.9328 19.7502 35.5805 18.9676C34.2341 18.1932 32.8651 17.4695 31.4869 16.8053C33.6242 15.9288 35.8243 15.2137 38.0686 14.6661L38.0695 14.6643ZM41.4846 24.875C43.3144 26.2839 45.0344 27.8301 46.6296 29.5C45.0342 31.1698 43.3143 32.7159 41.4846 34.125C41.5985 32.604 41.6588 31.0538 41.6588 29.5C41.6588 27.9462 41.5994 26.3979 41.4846 24.875ZM29.5002 3.80273C32.5599 3.80273 35.5445 7.27313 37.5735 13.1252C34.8076 13.8128 32.1063 14.7381 29.4998 15.8908C26.8936 14.738 24.1925 13.8126 21.4269 13.1252C23.4564 7.27267 26.4405 3.80273 29.5002 3.80273ZM6.19016 25.547C5.86867 25.2265 5.66829 24.8044 5.62318 24.3527C5.57807 23.901 5.69102 23.4476 5.94278 23.0698C6.19454 22.692 6.56952 22.4133 7.0038 22.2811C7.43808 22.1488 7.90478 22.1713 8.32434 22.3446C8.74391 22.518 9.09037 22.8315 9.30466 23.2317C9.51895 23.6319 9.58781 24.0941 9.4995 24.5393C9.41119 24.9846 9.17118 25.3855 8.82038 25.6737C8.46958 25.9618 8.0297 26.1194 7.57574 26.1195C7.31832 26.1205 7.06324 26.0705 6.82532 25.9722C6.58739 25.8739 6.3718 25.7294 6.19016 25.547ZM10.1012 21.6355C9.68381 21.2188 9.16974 20.912 8.60488 20.7423C8.04002 20.5727 7.44195 20.5456 6.86405 20.6634C6.49161 19.0842 6.61607 17.7364 7.24432 16.6532C8.77602 13.9978 13.2715 13.1501 19.3504 14.3259C18.5656 17.0653 18.0195 19.8676 17.7182 22.7012C15.4132 24.3761 13.2595 26.2501 11.2821 28.3016C10.8332 27.7835 10.4137 27.2684 10.0238 26.7565C10.0491 26.7325 10.0763 26.7104 10.1012 26.686C10.7703 26.0156 11.1461 25.1072 11.1461 24.16C11.1461 23.2129 10.7703 22.3044 10.1012 21.6341V21.6355ZM7.2434 42.3486C5.71585 39.6973 7.22865 35.3788 11.2844 30.6984C13.2612 32.7505 15.4142 34.6253 17.7187 36.3011C18.0197 39.1346 18.5657 41.9367 19.3504 44.6759C13.2711 45.8504 8.77556 45.0032 7.24432 42.3486H7.2434ZM37.3385 52.5653C37.0179 52.8869 36.5957 53.0874 36.1439 53.1325C35.692 53.1777 35.2385 53.0647 34.8606 52.8129C34.4828 52.5611 34.2039 52.1861 34.0716 51.7517C33.9394 51.3173 33.9618 50.8504 34.1352 50.4308C34.3086 50.0111 34.6222 49.6645 35.0225 49.4502C35.4229 49.2359 35.8851 49.167 36.3305 49.2553C36.776 49.3437 37.1769 49.5838 37.4651 49.9347C37.7533 50.2856 37.9109 50.7256 37.911 51.1797C37.9111 51.6992 37.7052 52.1975 37.3385 52.5653ZM35.9557 47.6089C35.2758 47.6088 34.6101 47.8028 34.0368 48.1681C33.4634 48.5334 33.0062 49.0547 32.719 49.6709C32.4317 50.287 32.3263 50.9724 32.4151 51.6464C32.504 52.3204 32.7834 52.955 33.2205 53.4757C32.022 54.6174 30.7738 55.1973 29.5025 55.1973C26.4428 55.1973 23.4583 51.7269 21.4292 45.8748C24.1951 45.1872 26.8964 44.2619 29.503 43.1092C32.1098 44.2621 34.8114 45.1874 37.5777 45.8748C37.3518 46.5224 37.1168 47.1424 36.8706 47.7301C36.5714 47.6502 36.2631 47.6094 35.9534 47.6089H35.9557ZM51.7584 42.3486C50.2267 45.0036 45.7312 45.8518 39.6524 44.6759C40.4371 41.9365 40.9832 39.1343 41.2846 36.3007C43.5881 34.6249 45.7402 32.7503 47.716 30.6984C51.7718 35.3788 53.2846 39.6973 51.7561 42.3486H51.7584Z" fill="white"/>
</svg>
