<svg width="59" height="59" viewBox="0 0 59 59" fill="none" xmlns="http://www.w3.org/2000/svg">
<g clip-path="url(#clip0_267_6389)">
<path d="M36.4141 8.75781C36.4141 4.9454 33.3124 1.84375 29.5 1.84375C25.6876 1.84375 22.5859 4.9454 22.5859 8.75781C22.5859 12.5702 25.6876 15.6719 29.5 15.6719C33.3124 15.6719 36.4141 12.5702 36.4141 8.75781ZM29.5 13.3672C26.9584 13.3672 24.8906 11.2994 24.8906 8.75781C24.8906 6.2162 26.9584 4.14844 29.5 4.14844C32.0416 4.14844 34.1094 6.2162 34.1094 8.75781C34.1094 11.2994 32.0416 13.3672 29.5 13.3672Z" fill="white"/>
<path d="M39.8711 30.6523V26.043C39.8711 20.3243 35.2186 15.6719 29.5 15.6719C23.7814 15.6719 19.1289 20.3243 19.1289 26.043V30.6523C19.1289 31.2888 19.6449 31.8047 20.2812 31.8047H38.7188C39.3551 31.8047 39.8711 31.2888 39.8711 30.6523ZM37.5664 29.5H21.4336V26.043C21.4336 21.5952 25.0522 17.9766 29.5 17.9766C33.9478 17.9766 37.5664 21.5952 37.5664 26.043V29.5Z" fill="white"/>
<path d="M8.28051 47.0288L13.8281 49.8021V56.0039C13.8281 56.6403 14.3441 57.1562 14.9805 57.1562H27.1953C27.8316 57.1562 28.3477 56.6403 28.3477 56.0039V41.3438C28.3477 37.6813 25.6452 34.5216 22.1952 34.1505C22.1036 34.1332 17.7415 33.8082 15.6328 31.7009L12.4777 28.5459C11.607 27.6749 10.4496 27.1953 9.21875 27.1953V17.9766C9.21875 15.435 7.15098 13.3672 4.60938 13.3672C2.06777 13.3672 0 15.435 0 17.9766V33.63C0 39.3009 3.20329 44.4896 8.28051 47.0288ZM2.30469 17.9766C2.30469 16.7058 3.33857 15.6719 4.60938 15.6719C5.88018 15.6719 6.91406 16.7058 6.91406 17.9766V27.8131C5.50866 28.6257 4.60938 30.1408 4.60938 31.8047C4.60938 33.0354 5.08898 34.1927 5.95981 35.0635L11.861 40.9658C12.3107 41.4158 13.0405 41.416 13.4906 40.9659C13.9406 40.5159 13.9407 39.7864 13.4907 39.3363L7.58957 33.4339C7.15398 32.9984 6.91406 32.4198 6.91406 31.8047C6.91406 30.8293 7.53137 29.9559 8.45037 29.6313C8.45071 29.6311 8.45106 29.6309 8.4514 29.6308C9.24422 29.3497 10.1876 29.515 10.848 30.1754L14.0035 33.3309C16.1526 35.4785 19.2848 36.0825 21.9358 36.4406C21.94 36.441 21.9444 36.4416 21.9488 36.4421C24.2446 36.6889 26.043 38.8421 26.043 41.3438V54.8516H16.1328V49.0898C16.1328 48.6533 15.8861 48.2543 15.4958 48.0592L9.31128 44.9675C4.98953 42.806 2.30469 38.4618 2.30469 33.63V17.9766Z" fill="white"/>
<path d="M52.8926 45.4023C53.529 45.4023 54.0449 44.8864 54.0449 44.25C54.0449 43.6136 53.529 43.0977 52.8926 43.0977C52.2562 43.0977 51.7402 43.6136 51.7402 44.25C51.7402 44.8864 52.2562 45.4023 52.8926 45.4023Z" fill="white"/>
<path d="M54.3906 13.3672C51.849 13.3672 49.7812 15.435 49.7812 17.9766V27.1953C48.5504 27.1953 47.393 27.6749 46.5223 28.5457L43.3675 31.7005C41.5284 33.5384 38.5452 33.8448 36.8048 34.1506C33.3548 34.5217 30.6523 37.6813 30.6523 41.3438V56.0039C30.6523 56.6403 31.1684 57.1562 31.8047 57.1562H44.0195C44.6559 57.1562 45.1719 56.6403 45.1719 56.0039V49.8021L48.9435 47.9166C49.5126 47.632 49.7435 46.9399 49.4589 46.3705C49.1744 45.8014 48.4824 45.5706 47.913 45.8551L43.5042 48.059C43.1139 48.2543 42.8672 48.6533 42.8672 49.0898V54.8516H32.957V41.3438C32.957 38.8421 34.7554 36.6889 37.0512 36.4419C37.0556 36.4415 37.06 36.441 37.0642 36.4405C39.7562 36.0769 42.8497 35.4762 44.9968 33.3305L48.152 30.1754C48.8116 29.5158 49.7552 29.3496 50.5485 29.6308H50.5486C50.5489 29.6309 50.5493 29.6311 50.5496 29.6313C51.4686 29.9559 52.0859 30.8293 52.0859 31.8047C52.0859 32.4198 51.846 32.9984 51.4105 33.4341L45.5094 39.3364C45.0594 39.7865 45.0595 40.5161 45.5095 40.9661C45.9594 41.4159 46.6892 41.416 47.1392 40.9659L53.0403 35.0636C53.911 34.1927 54.3906 33.0354 54.3906 31.8047C54.3906 30.1408 53.4913 28.6257 52.0859 27.8131V17.9766C52.0859 16.7058 53.1198 15.6719 54.3906 15.6719C55.6614 15.6719 56.6953 16.7058 56.6953 17.9766V33.63C56.6953 35.7383 56.1633 37.8314 55.1566 39.683C54.8525 40.2421 55.0593 40.9419 55.6186 41.2458C56.1776 41.5497 56.8774 41.343 57.1814 40.7839C58.3712 38.5956 59 36.1217 59 33.63V17.9766C59 15.435 56.9322 13.3672 54.3906 13.3672Z" fill="white"/>
</g>
<defs>
<clipPath id="clip0_267_6389">
<rect width="59" height="59" fill="white"/>
</clipPath>
</defs>
</svg>
