<svg width="59" height="59" viewBox="0 0 59 59" fill="none" xmlns="http://www.w3.org/2000/svg">
<g clip-path="url(#clip0_267_6336)">
<path d="M54.39 20.7431C54.39 11.8471 47.1527 4.60986 38.2568 4.60986C29.3608 4.60986 22.1235 11.8471 22.1235 20.7431C22.1235 29.6391 29.3608 36.8763 38.2568 36.8763C47.1527 36.8763 54.39 29.6391 54.39 20.7431ZM38.2568 34.5716C30.6315 34.5716 24.4282 28.3683 24.4282 20.7431C24.4282 13.1178 30.6315 6.91454 38.2568 6.91454C45.882 6.91454 52.0853 13.1178 52.0853 20.7431C52.0853 28.3683 45.882 34.5716 38.2568 34.5716Z" fill="white"/>
<path d="M47.4759 17.2861H41.7138V11.5239C41.7138 10.8874 41.1979 10.3716 40.5614 10.3716H35.9521C35.3156 10.3716 34.7997 10.8874 34.7997 11.5239V17.2861H29.0376C28.4011 17.2861 27.8853 17.8019 27.8853 18.4384V23.0478C27.8853 23.6843 28.4011 24.2001 29.0376 24.2001H34.7997V29.9623C34.7997 30.5988 35.3156 31.1146 35.9521 31.1146H40.5614C41.1979 31.1146 41.7138 30.5988 41.7138 29.9623V24.2001H47.4759C48.1124 24.2001 48.6283 23.6843 48.6283 23.0478V18.4384C48.6283 17.8019 48.1124 17.2861 47.4759 17.2861ZM46.3236 21.8954H40.5614C39.925 21.8954 39.4091 22.4113 39.4091 23.0478V28.8099H37.1044V23.0478C37.1044 22.4113 36.5886 21.8954 35.9521 21.8954H30.1899V19.5908H35.9521C36.5886 19.5908 37.1044 19.0749 37.1044 18.4384V12.6763H39.4091V18.4384C39.4091 19.0749 39.925 19.5908 40.5614 19.5908H46.3236V21.8954Z" fill="white"/>
<path d="M39.4092 40.334C39.4092 40.9705 38.8933 41.4863 38.2568 41.4863C37.6203 41.4863 37.1045 40.9705 37.1045 40.334C37.1045 39.6975 37.6203 39.1816 38.2568 39.1816C38.8933 39.1816 39.4092 39.6975 39.4092 40.334Z" fill="white"/>
<path d="M38.2564 0.000488281C26.819 0.000488281 17.5134 9.30564 17.5134 20.7435C17.5134 24.6754 18.6072 28.466 20.6837 31.7682L1.01245 51.4313C-0.3258 52.7696 -0.350107 54.9599 1.01155 56.3216L2.67164 57.9808C4.01978 59.3285 6.21238 59.3289 7.56053 57.9808C8.22628 57.3155 26.5665 38.9816 27.2318 38.3163C28.9644 39.406 30.8378 40.2284 32.8134 40.7645C33.4279 40.9311 34.0608 40.5683 34.2278 39.9543C34.3943 39.3399 34.0315 38.707 33.4171 38.54C25.5559 36.4077 19.8186 29.2285 19.8186 20.7435C19.8186 10.5768 28.0897 2.30517 38.2564 2.30517C48.4236 2.30517 56.6948 10.5768 56.6948 20.7435C56.6948 29.0503 51.1028 36.3685 43.0963 38.5404C42.4818 38.707 42.119 39.3399 42.2856 39.9543C42.4247 40.4674 42.8897 40.8055 43.397 40.8055C43.4969 40.8055 43.5986 40.7924 43.6995 40.765C52.708 38.3212 58.9995 30.0883 58.9995 20.7435C58.9995 9.30564 49.6943 0.000488281 38.2564 0.000488281ZM5.9306 56.3508C5.48182 56.8001 4.7508 56.8001 4.30112 56.3508L2.64103 54.6916C2.18639 54.237 2.1981 53.5051 2.64193 53.0613L17.1218 38.5872L20.4105 41.8764L5.9306 56.3508ZM25.3246 36.9636L22.0404 40.2469L18.7517 36.9578L22.0359 33.6749C23.0068 34.8925 24.107 35.9931 25.3246 36.9636Z" fill="white"/>
</g>
<defs>
<clipPath id="clip0_267_6336">
<rect width="59" height="59" fill="white"/>
</clipPath>
</defs>
</svg>
