<svg width="74" height="57" viewBox="0 0 74 57" fill="none" xmlns="http://www.w3.org/2000/svg">
<path d="M48.5655 26.9289C51.5003 24.9969 54.9838 24.0716 58.4905 24.2926C61.9972 24.5136 65.3369 25.869 68.0059 28.1542C70.6748 30.4394 72.5283 33.5306 73.2867 36.9614C74.0451 40.3923 73.6672 43.9767 72.2101 47.174C70.7531 50.3713 68.2958 53.008 65.209 54.6865C62.1222 56.365 58.5733 56.9942 55.0976 56.4792C51.6219 55.9642 48.4079 54.3329 45.9405 51.8314C43.4731 49.3299 41.886 46.0939 41.4187 42.6115C39.9407 35.3553 39.3657 26.6293 42.2569 18.7293C45.3586 10.2664 52.2341 3.32609 64.5478 0.102921C65.5739 -0.132862 66.6515 0.0402985 67.5521 0.585686C68.4527 1.13107 69.1054 2.00579 69.3719 3.02437C69.6384 4.04294 69.4977 5.12526 68.9796 6.04182C68.4615 6.95839 67.6068 7.63711 66.5967 7.93407C56.6356 10.5418 51.979 15.749 49.8613 21.5151C49.2337 23.236 48.8085 25.0541 48.5655 26.9329" fill="#4B438D"/>
<path d="M8.36779 26.9289C11.3026 24.9969 14.786 24.0716 18.2927 24.2926C21.7994 24.5136 25.1391 25.869 27.8081 28.1542C30.4771 30.4394 32.3305 33.5306 33.0889 36.9614C33.8473 40.3923 33.4695 43.9767 32.0124 47.174C30.5553 50.3713 28.0981 53.008 25.0113 54.6865C21.9245 56.365 18.3755 56.9942 14.8998 56.4792C11.4241 55.9642 8.21018 54.3329 5.74275 51.8314C3.27532 49.3299 1.68825 46.0939 1.22094 42.6115C-0.257015 35.3553 -0.832005 26.6293 2.05913 18.7293C5.16082 10.2664 12.0364 3.32609 24.35 0.102921C25.3761 -0.132862 26.4537 0.0402985 27.3543 0.585686C28.2549 1.13107 28.9077 2.00579 29.1741 3.02437C29.4406 4.04294 29.2999 5.12526 28.7818 6.04182C28.2637 6.95839 27.409 7.63711 26.3989 7.93407C16.4379 10.5418 11.7813 15.749 9.66353 21.5151C9.03591 23.236 8.61074 25.0541 8.36779 26.9329" fill="#4B438D"/>
</svg>
