<svg width="363" height="567" viewBox="0 0 363 567" fill="none" xmlns="http://www.w3.org/2000/svg">
<path d="M351.459 0.135771C356.336 -0.134463 358.862 -0.469528 362.167 4.19843C359.242 10.8162 346.136 18.6096 341.195 25.3115C330.328 39.7347 323.459 57.7206 314.004 73.2581C303.261 90.9139 291.59 107.347 277.835 121.852C265.299 135.07 249.871 148.102 239.511 163.569C226.419 183.387 216.156 205.545 209.118 229.185C206.653 237.676 204.642 244.265 203.435 253.165C199.073 285.317 206.116 312.567 219.424 340.785C232.814 369.179 247.288 403.302 236.233 436.223C224.593 470.888 193.554 489.121 164.113 496.996C159.09 498.327 153.557 498.954 148.439 499.863C139.915 501.378 130.266 500.846 123.624 508.443C119.714 514.971 117.244 524.512 114.554 531.686C106.105 554.22 98.6487 577.136 90.1078 599.572C89.0331 602.394 87.1141 604.814 85.0151 606.639C84.5929 606.283 83.068 604.878 82.8685 604.554C78.9981 596.785 79.3566 582.413 79.1073 573.764C78.6718 558.649 79.1752 545.215 80.2046 530.424C83.5409 482.497 95.3073 436.272 104.436 389.596C110.931 356.382 118.459 318.462 118.343 284.271C118.393 259.167 114.517 228.307 107.009 204.879C100.886 185.773 90.4159 170.092 80.8812 153.645C65.1257 125.937 48.2011 99.1608 30.1701 73.4135C27.8026 70.0491 24.1199 64.345 21.7759 61.1195C18.1719 56.1598 0.593317 33.5947 0 28.708C2.17016 24.0326 10.871 30.8279 13.7839 32.5134C21.1261 36.7614 28.2317 42.4987 35.1222 47.6761C57.1422 64.0681 78.1223 82.2911 97.8991 102.203C128.046 132.657 146.258 164.099 190.316 146.551C222.677 133.662 248.19 111.032 272.013 82.6081C282.452 70.1531 289.451 63.0044 296.754 47.111C290.332 51.4587 283.596 57.3489 277.959 63.04C259.04 82.1469 237.613 99.7646 213.982 109.818C212.121 108.65 211.581 108.299 209.971 106.733C211.95 101.634 214.298 96.9386 217.023 92.2774C240.338 52.3924 272.674 18.9655 313.346 6.34656C325.409 2.60381 339.258 1.26427 351.459 0.135771Z" fill="#EDE5FC"/>
<path d="M161.677 57.5877C172.046 56.6382 181.111 56.6728 189.307 65.1712C203.004 79.3738 204.294 103.333 192.546 119.588C188.582 125.072 180.503 130.143 174.469 130.639C164.698 130.623 157.227 132.556 148.983 125.664C142.965 120.657 137.061 111.391 135.726 102.753C132.301 80.5999 142.188 61.154 161.677 57.5877Z" fill="#EDE5FC"/>
<path d="M51.4426 170.619C58.3276 170.232 65.6632 170.14 72.4921 171.261C79.5841 172.427 86.7857 181.025 90.9567 187.499C97.8058 198.128 104.718 220.666 106.566 234.046C107.987 244.336 108.234 254.689 107.016 264.99C106.51 265.236 105.511 265.585 104.954 265.799C103.623 265.385 103.987 265.434 102.873 264.099C89.2574 239.041 72.4507 219.428 55.9571 197.143C50.7805 190.148 35.0347 173.452 51.4426 170.619Z" fill="#EDE5FC"/>
</svg>
