<svg width="52" height="52" viewBox="0 0 52 52" fill="none" xmlns="http://www.w3.org/2000/svg">
<path d="M26.4285 26.0514C29.506 24.2899 31.6087 21.0101 31.6087 17.2174C31.6087 11.5835 27.0252 7 21.3913 7C15.7574 7 11.1739 11.5835 11.1739 17.2174C11.1739 21.0101 13.2766 24.2899 16.3541 26.0514C8.65638 28.0724 3 34.5809 3 42.295V44.8044C3 45.3684 3.45777 45.8261 4.02177 45.8261C4.58577 45.8261 5.04354 45.3684 5.04354 44.8044V42.295C5.04344 34.1027 12.3775 27.4348 21.3913 27.4348C30.405 27.4348 37.7391 34.1027 37.7391 42.295V44.8044C37.7391 45.3684 38.1969 45.8261 38.7609 45.8261C39.3249 45.8261 39.7827 45.3684 39.7827 44.8044V42.295C39.7826 34.5809 34.1262 28.0704 26.4285 26.0514ZM13.2174 17.2174C13.2174 12.7095 16.8834 9.04354 21.3913 9.04354C25.8992 9.04354 29.5652 12.7095 29.5652 17.2174C29.5652 21.7253 25.8992 25.3913 21.3913 25.3913C16.8834 25.3913 13.2174 21.7254 13.2174 17.2174Z" fill="white"/>
<path d="M40.1871 26.0781C42.4022 24.6129 43.8695 22.1076 43.8695 19.261C43.8695 14.7532 40.2035 11.0872 35.6956 11.0872C35.1316 11.0872 34.6738 11.5449 34.6738 12.1089C34.6738 12.6729 35.1316 13.1307 35.6956 13.1307C39.0755 13.1307 41.826 15.8813 41.826 19.2611C41.826 22.641 39.0755 25.3916 35.6956 25.3916C35.1316 25.3916 34.6738 25.8493 34.6738 26.4133C34.6738 26.9773 35.1315 27.4349 35.6955 27.4349C42.4574 27.4349 47.9564 32.517 47.9564 38.766V40.7174C47.9564 41.2814 48.4141 41.7392 48.9781 41.7392C49.5421 41.7392 49.9999 41.2814 49.9999 40.7174V38.766C49.9999 32.8603 45.8803 27.8436 40.1871 26.0781Z" fill="white"/>
</svg>
