<svg width="52" height="52" viewBox="0 0 52 52" fill="none" xmlns="http://www.w3.org/2000/svg">
<path d="M20.0419 17.4849C20.2072 17.3901 20.3946 17.3406 20.5852 17.3413C20.7758 17.3421 20.9628 17.3931 21.1274 17.4892L34.1274 25.0726C34.291 25.168 34.4268 25.3046 34.5212 25.4688C34.6156 25.633 34.6653 25.8192 34.6653 26.0086C34.6653 26.198 34.6156 26.3841 34.5212 26.5484C34.4268 26.7126 34.291 26.8492 34.1274 26.9446L21.1274 34.5279C20.9626 34.6241 20.7753 34.675 20.5845 34.6756C20.3937 34.6761 20.2062 34.6263 20.0408 34.5311C19.8755 34.4359 19.7382 34.2987 19.6429 34.1334C19.5476 33.9681 19.4976 33.7806 19.498 33.5898V18.4231C19.498 18.0353 19.7061 17.6799 20.0419 17.4849Z" fill="white"/>
<path fill-rule="evenodd" clip-rule="evenodd" d="M25.3499 6.5H25.3434C23.8766 6.51083 20.1651 6.552 16.4168 6.70367C14.5426 6.78167 12.6468 6.88567 10.9784 7.033C9.37725 7.176 7.85842 7.36667 6.81842 7.657C5.43175 8.047 4.17509 8.80533 3.17842 9.84533C2.17526 10.8874 1.45872 12.1712 1.09842 13.572L1.07025 13.6695L1.05509 13.7692C-0.0845809 20.7242 -0.563414 31.4492 1.11792 38.4692L1.12225 38.4865L1.12659 38.506C1.49025 39.906 2.20718 41.1891 3.20875 42.2327C4.20975 43.2727 5.46209 44.031 6.84875 44.421C7.78692 44.6875 9.12375 44.8673 10.5321 44.9995C12.1399 45.1432 13.7509 45.2487 15.3638 45.3158L17.1903 45.3895C20.1153 45.4913 22.9319 45.5282 24.5569 45.5412L26.1667 45.5498H26.1819C26.9857 45.5477 30.7536 45.5325 34.7619 45.3917C36.7639 45.3223 38.8569 45.2205 40.6552 45.0732C42.4102 44.9302 44.1003 44.7308 45.1836 44.4232C46.5702 44.0332 47.8269 43.2748 48.8236 42.2348C49.8267 41.1948 50.5417 39.9165 50.9058 38.5082L50.9274 38.4193L50.9447 38.3283C52.1516 31.33 52.5546 20.6267 50.8862 13.6283L50.8819 13.6067L50.8754 13.585C50.5118 12.185 49.7948 10.9019 48.7932 9.85833C47.7961 8.81824 46.5396 8.06285 45.1532 7.67C44.1631 7.39267 42.7049 7.20633 41.1882 7.06767C39.4649 6.92099 37.7383 6.81479 36.0099 6.74917L35.4964 6.7275C32.7891 6.62828 30.0783 6.56906 27.3692 6.54983L26.0671 6.54117L25.3218 6.5455L25.3499 6.5ZM4.76659 11.3533C5.49705 10.5916 6.41674 10.0375 7.43159 9.74783C10.6599 8.83133 22.4466 8.69267 25.3716 8.671L26.0952 8.66883L27.3909 8.67533C29.1221 8.68833 32.2659 8.7295 35.4509 8.853L35.9601 8.8725C39.5351 9.01983 43.0667 9.2755 44.6051 9.71533C45.6147 9.997 46.5377 10.5538 47.2701 11.3187C48.0024 12.0835 48.5441 13.0455 48.8171 14.092C50.3923 20.6787 50.0282 31.057 48.8474 37.9253C48.5777 38.967 48.045 39.9219 47.3004 40.6987C46.5702 41.4612 45.6505 42.016 44.6354 42.3063C41.1687 43.29 27.8004 43.3507 26.1971 43.355L24.5959 43.3485C22.9731 43.3355 20.1759 43.2987 17.2726 43.1968L16.3496 43.16L15.4678 43.1232C12.1094 42.9715 8.90275 42.7202 7.45109 42.3063C6.43435 42.0221 5.51348 41.4681 4.78609 40.703C4.04146 39.9263 3.50878 38.9713 3.23909 37.9297C1.65742 31.3863 2.09075 20.9863 3.20875 14.0963C3.47845 13.0547 4.01113 12.0997 4.75575 11.323L4.76659 11.3533Z" fill="white"/>
</svg>
