<svg width="25" height="25" viewBox="0 0 25 25" fill="none" xmlns="http://www.w3.org/2000/svg">
<path d="M16.3557 19.2375V7.14283C16.3557 6.66923 16.1676 6.21503 15.8327 5.88014C15.4978 5.54525 15.0436 5.35712 14.57 5.35712H3.03962C2.56602 5.35712 2.11182 5.54525 1.77693 5.88014C1.44204 6.21503 1.25391 6.66923 1.25391 7.14283V18.975C1.25391 19.4486 1.44204 19.9028 1.77693 20.2377C2.11182 20.5726 2.56602 20.7607 3.03962 20.7607H4.44498M23.7468 13.8071H16.3575" stroke="white" stroke-width="1.28571" stroke-linecap="round" stroke-linejoin="round"/>
<path d="M20.7821 20.7607H21.9999C22.2356 20.7607 22.469 20.714 22.6866 20.6234C22.9042 20.5328 23.1017 20.4 23.2677 20.2326C23.4337 20.0653 23.5649 19.8668 23.6538 19.6484C23.7427 19.4301 23.7875 19.1964 23.7856 18.9607L23.7428 13.2821L21.2571 8.19284C21.1104 7.89191 20.8822 7.63824 20.5983 7.4608C20.3145 7.28335 19.9865 7.18926 19.6517 7.18927H16.3303M4.46777 20.8143C4.46777 21.4754 4.73041 22.1095 5.19791 22.577C5.66542 23.0445 6.29948 23.3071 6.96063 23.3071C7.62178 23.3071 8.25584 23.0445 8.72335 22.577C9.19085 22.1095 9.45349 21.4754 9.45349 20.8143C9.45349 20.1531 9.19085 19.5191 8.72335 19.0516C8.25584 18.5841 7.62178 18.3214 6.96063 18.3214C6.29948 18.3214 5.66542 18.5841 5.19791 19.0516C4.73041 19.5191 4.46777 20.1531 4.46777 20.8143Z" stroke="white" stroke-width="1.28571" stroke-linecap="round" stroke-linejoin="round"/>
<path d="M6.12695 12.5H11.4823M8.80374 9.82318V15.1768M15.7841 20.7607H9.45374M15.7841 20.8143C15.7841 21.4754 16.0467 22.1095 16.5142 22.577C16.9817 23.0445 17.6158 23.3071 18.277 23.3071C18.9381 23.3071 19.5722 23.0445 20.0397 22.577C20.5072 22.1095 20.7698 21.4754 20.7698 20.8143C20.7698 20.1531 20.5072 19.519 20.0397 19.0515C19.5722 18.584 18.9381 18.3214 18.277 18.3214C17.6158 18.3214 16.9817 18.584 16.5142 19.0515C16.0467 19.519 15.7841 20.1531 15.7841 20.8143Z" stroke="white" stroke-width="1.28571" stroke-linecap="round" stroke-linejoin="round"/>
</svg>
