<svg width="23" height="10" viewBox="0 0 23 10" fill="none" xmlns="http://www.w3.org/2000/svg">
<g clip-path="url(#clip0_439_3179)">
<path d="M4.31277 2.143C4.31162 2.04932 4.33021 1.95644 4.36735 1.87032C4.40449 1.78421 4.45934 1.70678 4.5284 1.643C4.8159 1.35728 5.26152 1.35728 5.54902 1.643L11.5146 7.57157L17.4659 1.643C17.7534 1.35728 18.199 1.35728 18.4865 1.643C18.774 1.92871 18.774 2.37157 18.4865 2.65728L12.0034 9.07157C11.7159 9.35728 11.2703 9.35728 10.9828 9.07157L4.5284 2.643C4.38465 2.50014 4.31277 2.31443 4.31277 2.143Z" fill="white"/>
</g>
<defs>
<clipPath id="clip0_439_3179">
<rect width="10" height="23" fill="white" transform="translate(23 1.00536e-06) rotate(90)"/>
</clipPath>
</defs>
</svg>
