<svg width="20" height="20" viewBox="0 0 20 20" fill="none" xmlns="http://www.w3.org/2000/svg">
<path fill-rule="evenodd" clip-rule="evenodd" d="M17.8419 7.05305L10.5859 14.2961C10.5236 14.3612 10.4486 14.413 10.3655 14.4481C10.2824 14.4832 10.1931 14.5008 10.1029 14.5001C10.0107 14.5005 9.91932 14.4826 9.83403 14.4476C9.74874 14.4126 9.67121 14.3611 9.60588 14.2961C7.04988 11.6761 4.58288 9.15105 2.20488 6.72105C2.08788 6.59605 1.79688 6.09605 2.22888 5.71005C2.66188 5.32405 3.03888 5.55805 3.19488 5.71005L10.1029 12.7781L16.8619 6.03105C17.2012 5.78505 17.5142 5.80505 17.8009 6.09105C18.0875 6.37772 18.1019 6.69839 17.8419 7.05305Z" fill="#666666"/>
</svg>
