<svg width="20" height="20" viewBox="0 0 20 20" fill="none" xmlns="http://www.w3.org/2000/svg">
<path d="M15 5H6.90625C6.74049 5 6.58152 4.93415 6.46431 4.81694C6.3471 4.69973 6.28125 4.54076 6.28125 4.375C6.28125 4.20924 6.3471 4.05027 6.46431 3.93306C6.58152 3.81585 6.74049 3.75 6.90625 3.75H15.625C15.7908 3.75 15.9497 3.81585 16.0669 3.93306C16.1842 4.05027 16.25 4.20924 16.25 4.375V13.125C16.25 13.2908 16.1842 13.4497 16.0669 13.5669C15.9497 13.6842 15.7908 13.75 15.625 13.75C15.4592 13.75 15.3003 13.6842 15.1831 13.5669C15.0658 13.4497 15 13.2908 15 13.125V5Z" fill="#4B438D"/>
<path d="M15.1816 3.93169C15.2992 3.81411 15.4587 3.74805 15.625 3.74805C15.7913 3.74805 15.9508 3.81411 16.0684 3.93169C16.1859 4.04928 16.252 4.20876 16.252 4.37505C16.252 4.54134 16.1859 4.70082 16.0684 4.81841L5.44335 15.4434C5.32576 15.561 5.16628 15.6271 4.99999 15.6271C4.8337 15.6271 4.67422 15.561 4.55663 15.4434C4.43905 15.3258 4.37299 15.1663 4.37299 15.0001C4.37299 14.8338 4.43905 14.6743 4.55663 14.5567L15.1816 3.93169Z" fill="#4B438D"/>
</svg>
