<svg width="20" height="20" viewBox="0 0 20 20" fill="none" xmlns="http://www.w3.org/2000/svg">
<path d="M4.64202 6.5725C4.40389 5.00125 5.51264 3.5875 7.20639 3.06875C7.50712 2.97671 7.83164 3.00287 8.11375 3.14189C8.39586 3.28091 8.6143 3.52232 8.72452 3.81688L9.26764 5.26688C9.35496 5.50012 9.37062 5.75413 9.3126 5.99634C9.25459 6.23854 9.12554 6.45789 8.94202 6.62625L7.32639 8.10813C7.24656 8.18122 7.18708 8.27379 7.15377 8.37678C7.12047 8.47976 7.11448 8.58963 7.13639 8.69563L7.15077 8.76063L7.19077 8.92375C7.22639 9.06125 7.28014 9.255 7.35577 9.48625C7.50577 9.94563 7.74514 10.5631 8.10139 11.18C8.45764 11.7969 8.87264 12.3131 9.19514 12.6725C9.36325 12.8595 9.5388 13.0396 9.72139 13.2125L9.77139 13.2588C9.8522 13.3303 9.95017 13.3797 10.0558 13.4022C10.1613 13.4246 10.2709 13.4194 10.3739 13.3869L12.4651 12.7288C12.7027 12.6541 12.9572 12.6521 13.196 12.723C13.4347 12.7939 13.6469 12.9346 13.8051 13.1269L14.7945 14.3281C15.207 14.8281 15.1583 15.5631 14.6839 16.005C13.3876 17.2131 11.6051 17.4613 10.3651 16.4638C8.84559 15.2375 7.56432 13.7425 6.58514 12.0531C5.59878 10.3644 4.93956 8.50545 4.64202 6.5725ZM8.44577 8.7775L9.78702 7.5475C10.1541 7.21077 10.4122 6.77207 10.5282 6.28767C10.6442 5.80327 10.6129 5.29524 10.4383 4.82875L9.89452 3.37875C9.67269 2.78633 9.23327 2.30081 8.66585 2.02117C8.09843 1.74152 7.44571 1.6888 6.84077 1.87375C4.73764 2.51813 3.04889 4.40375 3.40639 6.75938C3.72731 8.84807 4.43911 10.8575 5.50452 12.6825C6.56064 14.5043 7.94255 16.1165 9.58139 17.4388C11.4408 18.9325 13.9245 18.4231 15.5364 16.92C15.9979 16.4903 16.2779 15.9006 16.3194 15.2714C16.3609 14.6422 16.1606 14.0209 15.7595 13.5344L14.7701 12.3331C14.4535 11.9484 14.0292 11.667 13.5516 11.5252C13.0739 11.3833 12.5648 11.3874 12.0895 11.5369L10.3539 12.0831C10.2762 12.0032 10.2001 11.9218 10.1258 11.8388C9.76894 11.4442 9.45335 11.0143 9.18389 10.5556C8.92128 10.0929 8.70662 9.60451 8.54327 9.09813C8.50857 8.99214 8.47607 8.88545 8.44577 8.77813" fill="url(#paint0_linear_583_4354)"/>
<defs>
<linearGradient id="paint0_linear_583_4354" x1="3.3584" y1="10.0504" x2="16.3248" y2="10.0504" gradientUnits="userSpaceOnUse">
<stop stop-color="#6D5DCF"/>
<stop offset="1" stop-color="#13958F"/>
</linearGradient>
</defs>
</svg>
