<svg width="37" height="37" viewBox="0 0 37 37" fill="none" xmlns="http://www.w3.org/2000/svg">
<path d="M31.4445 6.50759C31.247 6.31005 30.9267 6.31005 30.7292 6.50759L29.2116 8.02516C29.0141 8.22269 29.0141 8.54291 29.2116 8.74044C29.3105 8.83934 29.4398 8.88866 29.5693 8.88866C29.6988 8.88866 29.828 8.83934 29.9269 8.74044L31.4445 7.22287C31.642 7.02534 31.642 6.70513 31.4445 6.50759Z" fill="#4B438D"/>
<path d="M31.0868 30.6406C31.2163 30.6406 31.3456 30.5913 31.4445 30.4924C31.642 30.2949 31.642 29.9747 31.4445 29.7771L29.9269 28.2595C29.7294 28.062 29.4092 28.062 29.2116 28.2595C29.0141 28.4571 29.0141 28.7773 29.2116 28.9748L30.7292 30.4924C30.8281 30.5913 30.9573 30.6406 31.0868 30.6406Z" fill="#4B438D"/>
<path d="M9.33496 30.3831V34.1816C9.33496 34.4609 9.56158 34.6875 9.84082 34.6875C10.1201 34.6875 10.3467 34.4609 10.3467 34.1816V30.3831C10.3467 28.6566 9.80643 27.0048 8.78459 25.6061C7.32442 23.6079 6.55274 21.2382 6.55274 18.7529C6.55274 16.2676 7.32443 13.8979 8.78459 11.8996C9.80643 10.5011 10.3467 8.84897 10.3467 7.12272V2.81836C10.3467 2.53912 10.1201 2.3125 9.84082 2.3125C9.56158 2.3125 9.33496 2.53912 9.33496 2.81836V7.12272C9.33496 8.63322 8.86224 10.0787 7.96762 11.3029C6.37998 13.4753 5.54102 16.0516 5.54102 18.7529C5.54102 21.4542 6.37998 24.0306 7.96762 26.203C8.86223 27.4274 9.33496 28.8729 9.33496 30.3831Z" fill="#4B438D"/>
<path d="M26.5342 2.3125C26.2549 2.3125 26.0283 2.53912 26.0283 2.81836V7.12272C26.0283 8.84922 26.5686 10.5011 27.5904 11.8998C29.0506 13.8979 29.8223 16.2676 29.8223 18.7529C29.8223 21.2382 29.0506 23.6079 27.5904 25.6063C26.5683 27.005 26.0283 28.6569 26.0283 30.3834V34.1816C26.0283 34.4609 26.2549 34.6875 26.5342 34.6875C26.8134 34.6875 27.04 34.4609 27.04 34.1816V30.3831C27.04 28.8726 27.5128 27.4271 28.4074 26.203C29.995 24.0306 30.834 21.4542 30.834 18.7529C30.834 16.0516 29.995 13.4753 28.4074 11.3029C27.5128 10.0784 27.04 8.63295 27.04 7.12271V2.81836C27.04 2.53912 26.8134 2.3125 26.5342 2.3125Z" fill="#4B438D"/>
<path d="M21.4756 3.57715C20.2203 3.57715 19.1992 4.59823 19.1992 5.85352C19.1992 7.10881 20.2203 8.12989 21.4756 8.12989C22.7309 8.12989 23.752 7.10881 23.752 5.85352C23.752 4.59823 22.7309 3.57715 21.4756 3.57715ZM21.4756 7.11816C20.7783 7.11816 20.2109 6.55084 20.2109 5.85351C20.2109 5.15618 20.7783 4.58886 21.4756 4.58886C22.1729 4.58886 22.7402 5.15618 22.7402 5.85351C22.7402 6.55084 22.1729 7.11816 21.4756 7.11816Z" fill="#4B438D"/>
<path d="M21.4756 24.3174C20.2203 24.3174 19.1992 25.3385 19.1992 26.5938C19.1992 27.849 20.2203 28.8701 21.4756 28.8701C22.7309 28.8701 23.752 27.849 23.752 26.5938C23.752 25.3385 22.7309 24.3174 21.4756 24.3174ZM21.4756 27.8584C20.7783 27.8584 20.2109 27.2911 20.2109 26.5938C20.2109 25.8964 20.7783 25.3291 21.4756 25.3291C22.1729 25.3291 22.7402 25.8964 22.7402 26.5938C22.7402 27.2911 22.1729 27.8584 21.4756 27.8584Z" fill="#4B438D"/>
<path d="M12.623 12.1768C12.623 13.5714 13.7577 14.7061 15.1523 14.7061C16.547 14.7061 17.6816 13.5714 17.6816 12.1768C17.6816 10.7821 16.547 9.64746 15.1523 9.64746C13.7577 9.64746 12.623 10.7821 12.623 12.1768ZM16.6699 12.1768C16.6699 13.0137 15.9893 13.6943 15.1523 13.6943C14.3154 13.6943 13.6348 13.0137 13.6348 12.1768C13.6348 11.3398 14.3154 10.6592 15.1523 10.6592C15.9893 10.6592 16.6699 11.3398 16.6699 12.1768Z" fill="#4B438D"/>
<path d="M12.623 30.8936C12.623 32.2882 13.7577 33.4229 15.1523 33.4229C16.547 33.4229 17.6816 32.2882 17.6816 30.8936C17.6816 29.4989 16.547 28.3643 15.1523 28.3643C13.7577 28.3643 12.623 29.4989 12.623 30.8936ZM15.1523 29.376C15.9893 29.376 16.6699 30.0566 16.6699 30.8936C16.6699 31.7305 15.9893 32.4111 15.1523 32.4111C14.3154 32.4111 13.6348 31.7305 13.6348 30.8936C13.6348 30.0566 14.3154 29.376 15.1523 29.376Z" fill="#4B438D"/>
<path d="M20.9697 12.4297C20.9697 13.2666 21.6504 13.9473 22.4873 13.9473C23.3242 13.9473 24.0049 13.2666 24.0049 12.4297C24.0049 11.5927 23.3242 10.9121 22.4873 10.9121C21.6504 10.9121 20.9697 11.5927 20.9697 12.4297ZM22.9932 12.4297C22.9932 12.7087 22.7663 12.9355 22.4873 12.9355C22.2083 12.9355 21.9814 12.7087 21.9814 12.4297C21.9814 12.1507 22.2083 11.9238 22.4873 11.9238C22.7663 11.9238 22.9932 12.1507 22.9932 12.4297Z" fill="#4B438D"/>
<path d="M17.4287 24.5703C17.4287 23.7334 16.7481 23.0527 15.9111 23.0527C15.0742 23.0527 14.3936 23.7334 14.3936 24.5703C14.3936 25.4072 15.0742 26.0879 15.9111 26.0879C16.7481 26.0879 17.4287 25.4072 17.4287 24.5703ZM15.4053 24.5703C15.4053 24.2913 15.6321 24.0644 15.9111 24.0644C16.1901 24.0644 16.417 24.2913 16.417 24.5703C16.417 24.8493 16.1901 25.0762 15.9111 25.0762C15.6321 25.0762 15.4053 24.8493 15.4053 24.5703Z" fill="#4B438D"/>
<path d="M20.9697 32.6641C20.9697 33.501 21.6504 34.1816 22.4873 34.1816C23.3242 34.1816 24.0049 33.501 24.0049 32.6641C24.0049 31.8271 23.3242 31.1465 22.4873 31.1465C21.6504 31.1465 20.9697 31.8271 20.9697 32.6641ZM22.9932 32.6641C22.9932 32.943 22.7663 33.1699 22.4873 33.1699C22.2083 33.1699 21.9814 32.943 21.9814 32.6641C21.9814 32.3851 22.2083 32.1582 22.4873 32.1582C22.7663 32.1582 22.9932 32.3851 22.9932 32.6641Z" fill="#4B438D"/>
<path d="M24.1095 16.6248C23.912 16.4272 23.5918 16.4272 23.3943 16.6248C23.1967 16.8223 23.1967 17.1425 23.3943 17.3401L24.301 18.2471H12.0739L12.9806 17.3401C13.1782 17.1425 13.1782 16.8223 12.9806 16.6248C12.7831 16.4272 12.4629 16.4272 12.2653 16.6248L10.4948 18.3953C10.2973 18.5928 10.2973 18.913 10.4948 19.1106L12.2653 20.8811C12.3642 20.98 12.4935 21.0293 12.623 21.0293C12.7525 21.0293 12.8817 20.98 12.9806 20.8811C13.1782 20.6835 13.1782 20.3633 12.9806 20.1658L12.0739 19.2588H24.3012L23.3945 20.1658C23.197 20.3633 23.197 20.6835 23.3945 20.8811C23.4934 20.98 23.6226 21.0293 23.7521 21.0293C23.8816 21.0293 24.0109 20.98 24.1098 20.8811L25.8803 19.1106C26.0778 18.913 26.0778 18.5928 25.8803 18.3953L24.1095 16.6248Z" fill="#4B438D"/>
<path d="M33.8691 17.9941H32.0986C31.8194 17.9941 31.5928 18.2208 31.5928 18.5C31.5928 18.7792 31.8194 19.0059 32.0986 19.0059H33.8691C34.1484 19.0059 34.375 18.7792 34.375 18.5C34.375 18.2208 34.1484 17.9941 33.8691 17.9941Z" fill="#4B438D"/>
<path d="M5.64566 6.50759C5.44813 6.31005 5.12791 6.31005 4.93038 6.50759C4.73284 6.70512 4.73284 7.02534 4.93038 7.22287L6.44795 8.74044C6.54684 8.83934 6.67609 8.88866 6.80559 8.88866C6.93509 8.88866 7.06434 8.83934 7.16323 8.74044C7.36077 8.54291 7.36077 8.22269 7.16323 8.02516L5.64566 6.50759Z" fill="#4B438D"/>
<path d="M4.93038 30.4924C5.02928 30.5913 5.15853 30.6406 5.28803 30.6406C5.41753 30.6406 5.54678 30.5913 5.64567 30.4924L7.16324 28.9748C7.36078 28.7773 7.36078 28.4571 7.16324 28.2595C6.96571 28.062 6.64549 28.062 6.44796 28.2595L4.93038 29.7771C4.73284 29.9747 4.73284 30.2949 4.93038 30.4924Z" fill="#4B438D"/>
<path d="M4.27637 19.0059C4.55561 19.0059 4.78223 18.7792 4.78223 18.5C4.78223 18.2208 4.55561 17.9941 4.27637 17.9941H2.50586C2.22662 17.9941 2 18.2208 2 18.5C2 18.7792 2.22662 19.0059 2.50586 19.0059H4.27637Z" fill="#4B438D"/>
</svg>
