<svg width="35" height="35" viewBox="0 0 35 35" fill="none" xmlns="http://www.w3.org/2000/svg">
<path d="M32.8029 16.4922C32.8114 16.2834 32.6998 16.0879 32.5158 15.9889C32.4372 15.9466 30.7405 15.0599 28.0353 15.3158C29.099 12.6516 29.2548 10.1216 28.4805 7.78549C28.4129 7.58201 28.233 7.43674 28.0199 7.41378C27.8534 7.39519 24.3283 7.06221 21.5779 9.68513C21.1731 4.80965 18.0656 1.93498 17.8955 1.78134C17.6829 1.58961 17.3579 1.59442 17.1507 1.79256C14.1417 4.67663 13.1699 7.50494 13.024 9.77031C10.3478 7.17502 7.14542 7.40036 6.99295 7.41245C6.77479 7.43087 6.5884 7.57747 6.51951 7.78549C5.74509 10.122 5.90107 12.6524 6.96451 15.3158C4.25914 15.0599 2.56261 15.9463 2.48417 15.9889C2.30018 16.0879 2.18857 16.2834 2.19711 16.4922C2.49512 23.9114 8.45794 25.76 10.1532 26.1361V27.7763C8.72339 27.9354 7.67583 29.2295 7.78819 30.6808C7.78816 32.1577 8.98979 33.3594 10.4667 33.3594H24.5608C27.9464 33.3136 28.2017 28.2027 24.8742 27.7763C24.8743 27.7763 24.8743 26.13 24.8743 26.13C26.6056 25.7401 32.5065 23.8718 32.8029 16.4922ZM31.6896 16.8199C31.2642 22.9317 26.5857 24.6062 24.8743 25.0162C24.8392 24.1111 24.9862 21.5176 24.7194 20.68C25.2089 20.1323 26.49 18.5955 27.5187 16.488C29.5733 16.1611 31.0759 16.5857 31.6896 16.8199ZM21.7586 21.954C21.4566 21.954 21.2117 22.1989 21.2117 22.5009V27.7446H13.8468V22.5009C13.8365 21.783 12.7641 21.7819 12.753 22.5009C12.753 22.5009 12.753 27.7445 12.753 27.7445H11.247V21.903C11.247 19.7016 13.0379 17.9107 15.2393 17.9107C16.5595 17.9189 18.4682 17.9161 19.7882 17.9107C21.9895 17.9107 23.7805 19.7016 23.7805 21.903V27.7446H22.3054V22.5009C22.3054 22.1989 22.0606 21.954 21.7586 21.954ZM17.7837 16.8169C16.34 16.9699 14.9995 15.8359 15.0118 14.349C15.1168 11.0518 19.9111 11.0523 20.0157 14.3491C20.0157 15.6326 19.0351 16.6806 17.7837 16.8169ZM27.551 8.4835C28.7394 12.0029 26.5598 16.8881 24.2751 19.513C23.4651 17.9982 21.9101 16.9444 20.103 16.8329C20.7063 16.2066 21.0832 15.364 21.1051 14.4339C21.4131 13.3167 21.5677 12.2635 21.6091 11.2762C23.632 8.66852 26.5433 8.46484 27.551 8.4835ZM17.5248 2.96054C18.504 4.02499 21.0416 7.32366 20.4253 12.2516C19.7714 11.3501 18.7114 10.7602 17.5136 10.7602C16.1639 10.7602 14.9868 11.5072 14.3721 12.608C13.8466 10.6391 13.642 6.92091 17.5248 2.96054ZM7.4453 8.49631C8.4082 8.51824 11.0677 8.83417 13.0603 11.4543C13.2321 13.0329 13.74 14.1389 13.9257 14.4996C13.9636 15.4036 14.3354 16.2215 14.9243 16.8329C13.1091 16.9449 11.5491 18.0083 10.7422 19.5341C8.45075 16.9006 6.26314 12.0405 7.4453 8.49631ZM3.31009 16.8199C3.92533 16.5849 5.42693 16.161 7.48115 16.4879C8.5276 18.6309 9.83147 20.1804 10.302 20.7037C10.0456 21.5149 10.1868 24.1523 10.1532 25.0248C8.46549 24.6318 3.73804 22.9852 3.31009 16.8199ZM8.88192 30.6808C8.77102 29.5985 9.61238 28.733 10.7001 28.8383C10.7001 28.8383 18.7716 28.8383 18.7716 28.8383C18.5412 29.5143 17.9056 30.0052 17.1507 30.0052C15.6702 29.8633 14.2771 30.8216 14.0066 32.2656C14.0066 32.2656 10.4667 32.2656 10.4667 32.2656C9.59276 32.2656 8.88192 31.5548 8.88192 30.6808ZM26.1456 30.4234C26.2499 31.3801 25.549 32.2728 24.5608 32.2656C24.5608 32.2656 15.1429 32.2656 15.1429 32.2656C15.3733 31.5898 16.0087 31.099 16.7635 31.099C18.2443 31.2409 19.6374 30.2824 19.9079 28.8383C19.9079 28.8383 24.3274 28.8383 24.3274 28.8383C25.2766 28.7402 26.1524 29.4477 26.1456 30.4234Z" fill="#4B438D"/>
</svg>
