<svg width="25" height="25" viewBox="0 0 25 25" fill="none" xmlns="http://www.w3.org/2000/svg">
<path d="M12.4997 2.08124C18.2538 2.08124 22.9184 6.74582 22.9184 12.5C22.9184 18.2531 18.2538 22.9167 12.4997 22.9167C6.74551 22.9167 2.08301 18.2531 2.08301 12.5C2.08197 6.74582 6.74551 2.08124 12.4997 2.08124ZM15.5622 17.1875H9.43822C10.1174 19.7031 11.2986 21.3562 12.5007 21.3562C13.7028 21.3562 14.883 19.7021 15.5622 17.1875ZM7.82155 17.1875H4.98405C5.9901 18.7967 7.48495 20.0415 9.24968 20.7396C8.70592 19.8854 8.25697 18.8167 7.92676 17.5989L7.82155 17.1875ZM20.0143 17.1875H17.1788C16.8413 18.5781 16.3538 19.7917 15.7486 20.7406C17.4015 20.0867 18.8203 18.952 19.8216 17.4833L20.0143 17.1875ZM7.38926 10.4167H3.89134L3.88613 10.4344C3.72506 11.1111 3.6443 11.8044 3.64551 12.5C3.6445 13.5673 3.83648 14.626 4.21218 15.625H7.51738C7.3637 14.5905 7.28814 13.5459 7.29134 12.5C7.29134 11.7875 7.32467 11.0896 7.3903 10.4156M16.0393 10.4156H8.96113C8.77829 12.1503 8.82557 13.9016 9.10176 15.6239H15.8976C16.1738 13.9016 16.2221 12.1503 16.0393 10.4156ZM21.1091 10.4156H17.6111C17.6757 11.0896 17.7101 11.7875 17.7101 12.4989C17.7129 13.5448 17.637 14.5895 17.483 15.6239H20.7882C21.1643 14.625 21.3566 13.5663 21.3559 12.4989C21.3559 11.7812 21.2705 11.0833 21.1091 10.4156ZM9.24968 4.25832L9.22572 4.26665C7.09342 5.11833 5.37359 6.76237 4.42676 8.85416H7.60176C7.92884 7.02915 8.49759 5.43957 9.25072 4.2604M12.5007 3.64478L12.3788 3.64999C11.0622 3.77082 9.78822 5.8552 9.19759 8.85416H15.8038C15.2143 5.86457 13.9466 3.78228 12.632 3.65103L12.5007 3.64478ZM15.7507 4.25936L15.8611 4.44165C16.5591 5.59999 17.0872 7.12082 17.3976 8.8552H20.5726C19.6685 6.85928 18.0589 5.26779 16.0528 4.38645L15.7507 4.25936Z" fill="white"/>
</svg>
