<svg width="25" height="25" viewBox="0 0 25 25" fill="none" xmlns="http://www.w3.org/2000/svg">
<path fill-rule="evenodd" clip-rule="evenodd" d="M21.4066 6.54695C21.891 6.97508 21.9363 7.7157 21.5082 8.2032L12.5238 18.3595C12.4201 18.4768 12.2938 18.5721 12.1526 18.6398C12.0114 18.7075 11.858 18.7462 11.7016 18.7537C11.5451 18.7611 11.3888 18.7371 11.2418 18.6831C11.0948 18.629 10.9601 18.5461 10.8457 18.4391L4.98632 12.9704C4.76091 12.758 4.62877 12.4649 4.61877 12.1554C4.60878 11.8458 4.72175 11.5448 4.933 11.3183C5.14424 11.0918 5.43657 10.9581 5.74609 10.9465C6.0556 10.9349 6.35713 11.0463 6.58476 11.2563L11.5691 15.897L19.7566 6.64695C19.8587 6.53147 19.9826 6.43727 20.1211 6.36973C20.2597 6.30219 20.4102 6.26264 20.564 6.25335C20.7179 6.24406 20.872 6.26521 21.0177 6.31559C21.1634 6.36598 21.2977 6.4446 21.4129 6.54695H21.4066Z" fill="#13958F"/>
</svg>
