<svg width="35" height="35" viewBox="0 0 35 35" fill="none" xmlns="http://www.w3.org/2000/svg">
<g clip-path="url(#clip0_133_300)">
<path fill-rule="evenodd" clip-rule="evenodd" d="M17.4826 35C16.3117 35 15.1524 34.8841 14.0047 34.6522C12.115 34.2696 10.3296 33.5972 8.67177 32.635C8.49787 32.5422 8.43991 32.322 8.54425 32.1481C8.63699 31.9742 8.85726 31.9162 9.03116 32.0205C15.6161 35.8463 23.9749 34.7565 29.3541 29.3773C35.9043 22.8271 35.9043 12.1845 29.3541 5.63432C22.8039 -0.915866 12.1613 -0.915866 5.61116 5.63432C0.243485 11.0136 -0.84628 19.3839 2.99108 25.9573C3.08383 26.1312 3.03746 26.3398 2.86356 26.4442C2.68966 26.5369 2.46939 26.4906 2.37664 26.3167C1.4144 24.6588 0.730401 22.8735 0.359417 20.9838C-0.0115667 19.1289 -0.0927194 17.2392 0.150739 15.361C0.382604 13.4598 0.915893 11.628 1.73901 9.91222C2.59691 8.13846 3.73305 6.527 5.13583 5.12421C6.80526 3.45479 8.75292 2.15634 10.9209 1.27526C13.0076 0.42895 15.222 0 17.4942 0C19.7665 0 21.9808 0.42895 24.0792 1.28685C26.2471 2.16794 28.1948 3.46638 29.8642 5.13581C31.5336 6.80523 32.8321 8.7529 33.7132 10.9208C34.5595 13.0192 35 15.2335 35 17.5058C35 19.7781 34.5711 21.9924 33.7132 24.0908C32.8321 26.2587 31.5336 28.2064 29.8642 29.8758C28.4614 31.2786 26.85 32.4263 25.0762 33.2726C23.3604 34.0957 21.5287 34.629 19.6274 34.8609C18.9202 34.9536 18.2014 35 17.4826 35Z" fill="url(#paint0_linear_133_300)"/>
<path fill-rule="evenodd" clip-rule="evenodd" d="M5.78502 26.8037C5.68068 26.8037 5.57634 26.7573 5.50678 26.6645C3.30407 23.7778 2.2143 20.1955 2.43457 16.5552C2.55051 14.7583 2.96786 13.0193 3.69824 11.3731C4.4518 9.68045 5.50678 8.13854 6.82841 6.81691C8.11526 5.53006 9.62238 4.48667 11.2686 3.7447C12.8685 3.02592 14.5727 2.58538 16.3349 2.45785C19.8824 2.19121 23.4183 3.17664 26.2935 5.22864C26.4558 5.34457 26.4906 5.56484 26.3746 5.72715C26.2703 5.87786 26.05 5.91264 25.8877 5.79671C20.1375 1.68111 12.3352 2.31874 7.32692 7.32702C2.24908 12.4049 1.7042 20.5317 6.06326 26.2356C6.17919 26.3863 6.156 26.6182 5.9937 26.7341C5.93573 26.7805 5.85458 26.8037 5.78502 26.8037ZM17.4942 32.6003C14.1785 32.6003 10.9556 31.5221 8.32394 29.5049C8.17323 29.389 8.13845 29.1571 8.25438 29.0064C8.37031 28.8557 8.60218 28.8209 8.75289 28.9368C11.3266 30.9077 14.4104 31.8815 17.471 31.8815C21.1808 31.8815 24.8791 30.4555 27.6615 27.6732C32.6698 22.6649 33.3074 14.8626 29.1918 9.11238C29.0758 8.95007 29.1106 8.7298 29.2729 8.61387C29.4352 8.49793 29.6555 8.53271 29.7714 8.69502C31.835 11.5701 32.8205 15.1061 32.5422 18.6536C32.4031 20.4158 31.9742 22.12 31.2554 23.7199C30.5018 25.3777 29.47 26.8732 28.1716 28.1717C26.8499 29.4933 25.3196 30.5483 23.6154 31.3018C21.9808 32.0322 20.2302 32.4496 18.4332 32.5655C18.1318 32.5887 17.8188 32.6003 17.4942 32.6003Z" fill="url(#paint1_linear_133_300)"/>
<path fill-rule="evenodd" clip-rule="evenodd" d="M21.0533 19.1057C20.9606 19.1057 20.8678 19.0709 20.7983 19.0013C20.6591 18.8622 20.6591 18.6304 20.7983 18.4912L28.6585 10.631C29.3425 9.92383 29.3541 8.78769 28.6585 8.10369L26.8963 6.34152C26.2123 5.65752 25.0762 5.65752 24.369 6.34152L16.5088 14.1901C16.3696 14.3293 16.1378 14.3293 15.9987 14.1901C15.8595 14.051 15.8595 13.8192 15.9987 13.68L23.8589 5.81982C24.8443 4.85758 26.4326 4.85758 27.3948 5.81982L29.157 7.582C30.1192 8.54424 30.1192 10.1325 29.157 11.1179L21.2968 18.9782C21.2272 19.0709 21.1461 19.1057 21.0533 19.1057ZM10.3991 20.1607C10.3064 20.1607 10.2136 20.1259 10.1441 20.0563C10.005 19.9172 10.005 19.6853 10.1441 19.5462L13.6916 15.9987C13.8307 15.8596 14.0626 15.8596 14.2017 15.9987C14.3408 16.1378 14.3408 16.3697 14.2017 16.5088L10.6542 20.0563C10.5846 20.1259 10.4919 20.1607 10.3991 20.1607ZM15.1987 24.9603C15.106 24.9603 15.0132 24.9255 14.9437 24.8559C14.8046 24.7168 14.8046 24.4849 14.9437 24.3458L18.4912 20.7983C18.6303 20.6592 18.8622 20.6592 19.0013 20.7983C19.1404 20.9374 19.1404 21.1693 19.0013 21.3084L15.4538 24.8559C15.3842 24.9255 15.2915 24.9603 15.1987 24.9603Z" fill="url(#paint2_linear_133_300)"/>
<path fill-rule="evenodd" clip-rule="evenodd" d="M8.91518 19.0939C8.74128 19.0939 8.56738 19.1635 8.45145 19.291C8.32392 19.4185 8.25436 19.5924 8.25436 19.7663C8.25436 19.9402 8.32392 20.0909 8.43986 20.2069C8.43986 20.2069 8.43986 20.2069 8.45145 20.2185L14.793 26.56L14.8045 26.5715C14.9205 26.6875 15.0712 26.757 15.2451 26.757C15.419 26.757 15.5929 26.6875 15.7204 26.56C15.8479 26.4324 15.9175 26.2585 15.9175 26.0846C15.9175 25.9107 15.8479 25.76 15.732 25.6441C15.732 25.6441 15.732 25.6441 15.7204 25.6325L9.37891 19.291C9.37891 19.291 9.37891 19.291 9.36732 19.2794C9.25138 19.1635 9.08908 19.0939 8.91518 19.0939ZM15.2335 27.4642C15.2219 27.4642 15.2219 27.4642 15.2103 27.4642C14.8509 27.4642 14.5147 27.3135 14.2713 27.0585L7.94135 20.7286C7.6863 20.4851 7.53558 20.1489 7.53558 19.7895C7.53558 19.4185 7.6747 19.0591 7.94135 18.7925C8.20799 18.5258 8.56738 18.3867 8.93837 18.3867C9.29776 18.3867 9.63396 18.5374 9.87742 18.7925L16.2073 25.1224C16.4624 25.3659 16.6131 25.7021 16.6131 26.0614C16.6131 26.4324 16.474 26.7918 16.2073 27.0585C15.9523 27.3251 15.5929 27.4642 15.2335 27.4642Z" fill="url(#paint3_linear_133_300)"/>
<path fill-rule="evenodd" clip-rule="evenodd" d="M17.4826 22.6534C17.3899 22.6534 17.2971 22.6186 17.2276 22.5491L12.4511 17.7726C12.312 17.6335 12.312 17.4017 12.4511 17.2625C12.5903 17.1234 12.8221 17.1234 12.9612 17.2625L17.7377 22.039C17.8768 22.1781 17.8768 22.4099 17.7377 22.5491C17.6565 22.6186 17.5638 22.6534 17.4826 22.6534Z" fill="url(#paint4_linear_133_300)"/>
<path fill-rule="evenodd" clip-rule="evenodd" d="M11.9874 21.7374C11.8947 21.7374 11.802 21.7026 11.7324 21.633C11.5933 21.4939 11.5933 21.2737 11.7324 21.1229L14.0047 18.8275C14.1438 18.6884 14.3641 18.6884 14.5148 18.8275C14.6539 18.9666 14.6539 19.1869 14.5148 19.3376L12.2425 21.633C12.1729 21.7026 12.0802 21.7374 11.9874 21.7374ZM13.6105 23.372C13.5178 23.372 13.425 23.3373 13.3554 23.2677C13.2163 23.1286 13.2163 22.8967 13.3554 22.7576L15.6509 20.4853C15.79 20.3462 16.0219 20.3462 16.161 20.4853C16.3001 20.6244 16.3001 20.8563 16.161 20.9954L13.8655 23.2677C13.796 23.3373 13.7032 23.372 13.6105 23.372Z" fill="url(#paint5_linear_133_300)"/>
<path fill-rule="evenodd" clip-rule="evenodd" d="M25.2849 7.67497C25.1921 7.67497 25.0994 7.64019 25.0298 7.57063L23.8241 6.36493C23.685 6.22581 23.685 5.99395 23.8241 5.85483C23.9632 5.71571 24.1951 5.71571 24.3342 5.85483L25.5399 7.06052C25.679 7.19964 25.679 7.43151 25.5399 7.57063C25.4704 7.64019 25.3776 7.67497 25.2849 7.67497Z" fill="url(#paint6_linear_133_300)"/>
<path fill-rule="evenodd" clip-rule="evenodd" d="M23.9053 9.08903C23.8126 9.08903 23.7198 9.05425 23.6502 8.98469L22.4445 7.77899C22.3054 7.63987 22.3054 7.40801 22.4445 7.26889C22.5837 7.12977 22.8155 7.12977 22.9547 7.26889L24.1603 8.47459C24.2995 8.61371 24.2995 8.84557 24.1603 8.98469C24.0908 9.05425 23.998 9.08903 23.9053 9.08903Z" fill="url(#paint7_linear_133_300)"/>
<path fill-rule="evenodd" clip-rule="evenodd" d="M22.5025 10.4919C22.4097 10.4919 22.317 10.4571 22.2474 10.3875L21.0417 9.18182C20.9026 9.04271 20.9026 8.81084 21.0417 8.67172C21.1808 8.5326 21.4127 8.5326 21.5518 8.67172L22.7575 9.87742C22.8966 10.0165 22.8966 10.2484 22.7575 10.3875C22.688 10.4571 22.5952 10.4919 22.5025 10.4919Z" fill="url(#paint8_linear_133_300)"/>
<path fill-rule="evenodd" clip-rule="evenodd" d="M21.0881 11.8713C20.9954 11.8713 20.9026 11.8365 20.833 11.7669L19.6273 10.5612C19.4882 10.4221 19.4882 10.1902 19.6273 10.0511C19.7665 9.912 19.9983 9.912 20.1375 10.0511L21.3431 11.2568C21.4823 11.3959 21.4823 11.6278 21.3431 11.7669C21.2736 11.8365 21.1808 11.8713 21.0881 11.8713Z" fill="url(#paint9_linear_133_300)"/>
<path fill-rule="evenodd" clip-rule="evenodd" d="M19.7085 13.2858C19.6158 13.2858 19.523 13.251 19.4535 13.1815L18.2246 11.9758C18.0855 11.8367 18.0855 11.6164 18.2246 11.4657C18.3637 11.3265 18.584 11.3265 18.7347 11.4657L19.9636 12.6714C20.1027 12.8105 20.1027 13.0308 19.9636 13.1815C19.894 13.251 19.8013 13.2858 19.7085 13.2858Z" fill="url(#paint10_linear_133_300)"/>
<path fill-rule="evenodd" clip-rule="evenodd" d="M18.3057 14.6886C18.213 14.6886 18.1203 14.6539 18.0507 14.5843L16.845 13.3786C16.7059 13.2395 16.7059 13.0076 16.845 12.8685C16.9841 12.7294 17.216 12.7294 17.3551 12.8685L18.5608 14.0742C18.6999 14.2133 18.6999 14.4452 18.5608 14.5843C18.4912 14.6539 18.3985 14.6886 18.3057 14.6886Z" fill="url(#paint11_linear_133_300)"/>
<path fill-rule="evenodd" clip-rule="evenodd" d="M4.89235 27.7076C4.7996 27.7076 4.70686 27.6728 4.6373 27.6033C4.49818 27.4642 4.49818 27.2323 4.6373 27.0932L9.72673 22.0038C9.86585 21.8646 10.0977 21.8646 10.2368 22.0038C10.376 22.1429 10.376 22.3747 10.2368 22.5139L5.13581 27.5917C5.06625 27.6613 4.9735 27.7076 4.89235 27.7076ZM7.65154 30.4668C7.55879 30.4668 7.46605 30.432 7.39649 30.3625C7.25737 30.2234 7.25737 29.9915 7.39649 29.8524L12.4859 24.7629C12.625 24.6238 12.8569 24.6238 12.996 24.7629C13.1351 24.9021 13.1351 25.1339 12.996 25.273L7.90659 30.3625C7.83703 30.432 7.74429 30.4668 7.65154 30.4668Z" fill="url(#paint12_linear_133_300)"/>
<path fill-rule="evenodd" clip-rule="evenodd" d="M29.0874 6.27174C28.9947 6.27174 28.9019 6.23697 28.8324 6.16741C28.6932 6.02829 28.6932 5.79642 28.8324 5.6573L33.4117 1.07797C33.5508 0.938853 33.7827 0.938853 33.9218 1.07797C34.0609 1.21709 34.0609 1.44896 33.9218 1.58807L29.3425 6.16741C29.2729 6.23697 29.1802 6.27174 29.0874 6.27174Z" fill="url(#paint13_linear_133_300)"/>
<path fill-rule="evenodd" clip-rule="evenodd" d="M2.27226 27.0816L7.92977 32.7391L8.85723 31.8117L3.19972 26.1542L2.27226 27.0816ZM7.91817 33.597C7.82543 33.597 7.73268 33.5622 7.66312 33.4927L1.50711 27.3251C1.36799 27.186 1.36799 26.9541 1.50711 26.815L2.93308 25.389C3.0722 25.2499 3.30406 25.2499 3.44318 25.389L9.59919 31.545C9.73831 31.6841 9.73831 31.916 9.59919 32.0551L8.17322 33.4811C8.10366 33.5622 8.01092 33.597 7.91817 33.597Z" fill="url(#paint14_linear_133_300)"/>
<path fill-rule="evenodd" clip-rule="evenodd" d="M6.45745 8.2774L26.7108 28.5308C27.0355 28.2526 27.3485 27.9627 27.6615 27.6613C27.9513 27.3483 28.2527 27.0353 28.531 26.7107L8.27759 6.45726C7.95298 6.7355 7.63996 7.03693 7.32694 7.32676C7.03711 7.63978 6.73569 7.95279 6.45745 8.2774ZM26.6992 29.3771C26.6065 29.3771 26.5138 29.3423 26.4442 29.2728L5.72707 8.55564C5.59955 8.42812 5.58795 8.21944 5.70389 8.08032C6.05168 7.63978 6.44585 7.23401 6.81684 6.82825L6.82843 6.81666C7.23419 6.43408 7.63996 6.0515 8.0805 5.7037C8.21962 5.58777 8.4283 5.59936 8.55582 5.72689L29.2729 26.444C29.4005 26.5715 29.4121 26.7802 29.2961 26.9193C28.9483 27.3599 28.5542 27.7656 28.1832 28.1714L28.1716 28.183C27.7658 28.5656 27.3601 28.9482 26.9195 29.2959C26.85 29.3539 26.7688 29.3771 26.6992 29.3771Z" fill="url(#paint15_linear_133_300)"/>
</g>
<defs>
<linearGradient id="paint0_linear_133_300" x1="0.0119019" y1="17.5" x2="35" y2="17.5" gradientUnits="userSpaceOnUse">
<stop stop-color="#6D5DCF"/>
<stop offset="1" stop-color="#13958F"/>
</linearGradient>
<linearGradient id="paint1_linear_133_300" x1="2.40668" y1="17.5077" x2="32.5884" y2="17.5077" gradientUnits="userSpaceOnUse">
<stop stop-color="#6D5DCF"/>
<stop offset="1" stop-color="#13958F"/>
</linearGradient>
<linearGradient id="paint2_linear_133_300" x1="10.0397" y1="15.0292" x2="29.8787" y2="15.0292" gradientUnits="userSpaceOnUse">
<stop stop-color="#6D5DCF"/>
<stop offset="1" stop-color="#13958F"/>
</linearGradient>
<linearGradient id="paint3_linear_133_300" x1="7.53558" y1="22.9255" x2="16.6131" y2="22.9255" gradientUnits="userSpaceOnUse">
<stop stop-color="#6D5DCF"/>
<stop offset="1" stop-color="#13958F"/>
</linearGradient>
<linearGradient id="paint4_linear_133_300" x1="12.3468" y1="19.9058" x2="17.842" y2="19.9058" gradientUnits="userSpaceOnUse">
<stop stop-color="#6D5DCF"/>
<stop offset="1" stop-color="#13958F"/>
</linearGradient>
<linearGradient id="paint5_linear_133_300" x1="11.6281" y1="21.0476" x2="16.2653" y2="21.0476" gradientUnits="userSpaceOnUse">
<stop stop-color="#6D5DCF"/>
<stop offset="1" stop-color="#13958F"/>
</linearGradient>
<linearGradient id="paint6_linear_133_300" x1="23.7198" y1="6.71273" x2="25.6443" y2="6.71273" gradientUnits="userSpaceOnUse">
<stop stop-color="#6D5DCF"/>
<stop offset="1" stop-color="#13958F"/>
</linearGradient>
<linearGradient id="paint7_linear_133_300" x1="22.3402" y1="8.12679" x2="24.2647" y2="8.12679" gradientUnits="userSpaceOnUse">
<stop stop-color="#6D5DCF"/>
<stop offset="1" stop-color="#13958F"/>
</linearGradient>
<linearGradient id="paint8_linear_133_300" x1="20.9374" y1="9.52962" x2="22.8619" y2="9.52962" gradientUnits="userSpaceOnUse">
<stop stop-color="#6D5DCF"/>
<stop offset="1" stop-color="#13958F"/>
</linearGradient>
<linearGradient id="paint9_linear_133_300" x1="19.523" y1="10.909" x2="21.4475" y2="10.909" gradientUnits="userSpaceOnUse">
<stop stop-color="#6D5DCF"/>
<stop offset="1" stop-color="#13958F"/>
</linearGradient>
<linearGradient id="paint10_linear_133_300" x1="18.1202" y1="12.3236" x2="20.0679" y2="12.3236" gradientUnits="userSpaceOnUse">
<stop stop-color="#6D5DCF"/>
<stop offset="1" stop-color="#13958F"/>
</linearGradient>
<linearGradient id="paint11_linear_133_300" x1="16.7407" y1="13.7264" x2="18.6651" y2="13.7264" gradientUnits="userSpaceOnUse">
<stop stop-color="#6D5DCF"/>
<stop offset="1" stop-color="#13958F"/>
</linearGradient>
<linearGradient id="paint12_linear_133_300" x1="4.53296" y1="26.1831" x2="13.1004" y2="26.1831" gradientUnits="userSpaceOnUse">
<stop stop-color="#6D5DCF"/>
<stop offset="1" stop-color="#13958F"/>
</linearGradient>
<linearGradient id="paint13_linear_133_300" x1="28.728" y1="3.62269" x2="34.0261" y2="3.62269" gradientUnits="userSpaceOnUse">
<stop stop-color="#6D5DCF"/>
<stop offset="1" stop-color="#13958F"/>
</linearGradient>
<linearGradient id="paint14_linear_133_300" x1="1.40277" y1="29.4408" x2="9.70353" y2="29.4408" gradientUnits="userSpaceOnUse">
<stop stop-color="#6D5DCF"/>
<stop offset="1" stop-color="#13958F"/>
</linearGradient>
<linearGradient id="paint15_linear_133_300" x1="5.62372" y1="17.5003" x2="29.3763" y2="17.5003" gradientUnits="userSpaceOnUse">
<stop stop-color="#6D5DCF"/>
<stop offset="1" stop-color="#13958F"/>
</linearGradient>
<clipPath id="clip0_133_300">
<rect width="35" height="35" fill="white"/>
</clipPath>
</defs>
</svg>
