<svg width="35" height="35" viewBox="0 0 35 35" fill="none" xmlns="http://www.w3.org/2000/svg">
<path d="M22.3303 14.6289L15.7678 10.2539C15.6442 10.1714 15.5005 10.1241 15.352 10.1169C15.2036 10.1098 15.056 10.1431 14.925 10.2133C14.794 10.2834 14.6846 10.3879 14.6084 10.5155C14.5321 10.643 14.492 10.7889 14.4922 10.9375V19.6875C14.492 19.8361 14.5321 19.982 14.6084 20.1095C14.6846 20.2371 14.794 20.3416 14.925 20.4117C15.056 20.4819 15.2036 20.5152 15.352 20.5081C15.5005 20.5009 15.6442 20.4536 15.7678 20.3711L22.3303 15.9961C22.4431 15.9213 22.5356 15.8197 22.5996 15.7004C22.6636 15.5811 22.6971 15.4479 22.6971 15.3125C22.6971 15.1771 22.6636 15.0439 22.5996 14.9246C22.5356 14.8053 22.4431 14.7037 22.3303 14.6289ZM16.1328 18.1549V12.4701L20.3957 15.3125L16.1328 18.1549ZM29.5312 5.74219H5.46875C4.96111 5.74219 4.47426 5.94385 4.1153 6.3028C3.75635 6.66176 3.55469 7.14861 3.55469 7.65625V22.9688C3.55469 23.4764 3.75635 23.9632 4.1153 24.3222C4.47426 24.6812 4.96111 24.8828 5.46875 24.8828H29.5312C30.0389 24.8828 30.5257 24.6812 30.8847 24.3222C31.2437 23.9632 31.4453 23.4764 31.4453 22.9688V7.65625C31.4453 7.14861 31.2437 6.66176 30.8847 6.3028C30.5257 5.94385 30.0389 5.74219 29.5312 5.74219ZM29.8047 22.9688C29.8047 23.0413 29.7759 23.1108 29.7246 23.1621C29.6733 23.2134 29.6038 23.2422 29.5312 23.2422H5.46875C5.39623 23.2422 5.32668 23.2134 5.2754 23.1621C5.22412 23.1108 5.19531 23.0413 5.19531 22.9688V7.65625C5.19531 7.58373 5.22412 7.51418 5.2754 7.4629C5.32668 7.41162 5.39623 7.38281 5.46875 7.38281H29.5312C29.6038 7.38281 29.6733 7.41162 29.7246 7.4629C29.7759 7.51418 29.8047 7.58373 29.8047 7.65625V22.9688ZM31.4453 28.4375C31.4453 28.6551 31.3589 28.8637 31.205 29.0175C31.0512 29.1714 30.8426 29.2578 30.625 29.2578H4.375C4.15744 29.2578 3.94879 29.1714 3.79495 29.0175C3.64111 28.8637 3.55469 28.6551 3.55469 28.4375C3.55469 28.2199 3.64111 28.0113 3.79495 27.8575C3.94879 27.7036 4.15744 27.6172 4.375 27.6172H30.625C30.8426 27.6172 31.0512 27.7036 31.205 27.8575C31.3589 28.0113 31.4453 28.2199 31.4453 28.4375Z" fill="url(#paint0_linear_133_296)"/>
<defs>
<linearGradient id="paint0_linear_133_296" x1="3.55469" y1="17.5" x2="31.4453" y2="17.5" gradientUnits="userSpaceOnUse">
<stop stop-color="#6D5DCF"/>
<stop offset="1" stop-color="#13958F"/>
</linearGradient>
</defs>
</svg>
