<svg width="25" height="25" viewBox="0 0 25 25" fill="none" xmlns="http://www.w3.org/2000/svg">
<g clip-path="url(#clip0_583_4363)">
<path d="M12.5 0.833305L12.8733 0.0883054C12.7575 0.0302363 12.6296 0 12.5 0C12.3704 0 12.2425 0.0302363 12.1267 0.0883054L12.5 0.833305ZM2.5 5.83331L2.12667 5.08831C1.98842 5.15758 1.87218 5.26395 1.79094 5.39552C1.7097 5.5271 1.66667 5.67868 1.66667 5.83331H2.5ZM22.5 5.83331H23.3333C23.3333 5.67868 23.2903 5.5271 23.2091 5.39552C23.1278 5.26395 23.0116 5.15758 22.8733 5.08831L22.5 5.83331ZM9.16667 17.5V16.6666H8.33333V17.5H9.16667ZM15.8333 17.5H16.6667V16.6666H15.8333V17.5ZM0 25H25V23.3333H0V25ZM12.1267 0.0883054L2.12667 5.08831L2.87333 6.57831L12.8733 1.57831L12.1267 0.0883054ZM22.8733 5.08831L12.8733 0.0883054L12.1267 1.57831L22.1267 6.57831L22.8733 5.08831ZM11.6667 4.99997V9.16664H13.3333V4.99997H11.6667ZM11.6667 9.16664V13.3333H13.3333V9.16664H11.6667ZM8.33333 9.99997H12.5V8.33331H8.33333V9.99997ZM12.5 9.99997H16.6667V8.33331H12.5V9.99997ZM1.66667 5.83331V24.1666H3.33333V5.83331H1.66667ZM21.6667 5.83331V24.1666H23.3333V5.83331H21.6667ZM10 24.1666V17.5H8.33333V24.1666H10ZM9.16667 18.3333H15.8333V16.6666H9.16667V18.3333ZM15 17.5V24.1666H16.6667V17.5H15Z" fill="white"/>
</g>
<defs>
<clipPath id="clip0_583_4363">
<rect width="25" height="25" fill="white"/>
</clipPath>
</defs>
</svg>
