<svg width="35" height="35" viewBox="0 0 35 35" fill="none" xmlns="http://www.w3.org/2000/svg">
<path d="M27.3438 14.2188C27.3438 11.608 26.3066 9.10423 24.4606 7.25817C22.6145 5.41211 20.1107 4.375 17.5 4.375C14.8893 4.375 12.3855 5.41211 10.5394 7.25817C8.69336 9.10423 7.65625 11.608 7.65625 14.2188C7.65625 18.2569 10.8872 23.52 17.5 29.8244C24.1128 23.52 27.3438 18.2569 27.3438 14.2188ZM17.5 32.8125C9.47844 25.5216 5.46875 19.3222 5.46875 14.2188C5.46875 11.0279 6.73632 7.96767 8.99262 5.71137C11.2489 3.45507 14.3091 2.1875 17.5 2.1875C20.6909 2.1875 23.7511 3.45507 26.0074 5.71137C28.2637 7.96767 29.5312 11.0279 29.5312 14.2188C29.5312 19.3222 25.5216 25.5216 17.5 32.8125Z" fill="white"/>
<path d="M17.5 17.5C18.3702 17.5 19.2048 17.1543 19.8202 16.5389C20.4355 15.9236 20.7812 15.089 20.7812 14.2188C20.7812 13.3485 20.4355 12.5139 19.8202 11.8986C19.2048 11.2832 18.3702 10.9375 17.5 10.9375C16.6298 10.9375 15.7952 11.2832 15.1798 11.8986C14.5645 12.5139 14.2188 13.3485 14.2188 14.2188C14.2188 15.089 14.5645 15.9236 15.1798 16.5389C15.7952 17.1543 16.6298 17.5 17.5 17.5ZM17.5 19.6875C16.0496 19.6875 14.6586 19.1113 13.633 18.0857C12.6074 17.0602 12.0313 15.6692 12.0312 14.2188C12.0313 12.7683 12.6074 11.3773 13.633 10.3518C14.6586 9.32617 16.0496 8.75 17.5 8.75C18.9504 8.75 20.3414 9.32617 21.367 10.3518C22.3926 11.3773 22.9688 12.7683 22.9688 14.2188C22.9688 15.6692 22.3926 17.0602 21.367 18.0857C20.3414 19.1113 18.9504 19.6875 17.5 19.6875Z" fill="white"/>
</svg>
