<svg width="32" height="46" viewBox="0 0 32 46" fill="none" xmlns="http://www.w3.org/2000/svg">
<path d="M8.93325 19.7622C8.65887 19.2864 8.59027 19.1766 8.49002 19.0668C8.43725 19.0041 8.36866 18.9205 8.34755 18.8839C8.33172 18.8473 8.25785 18.7532 8.19981 18.68C8.08372 18.5545 8.03623 18.4133 7.93598 18.314C7.74602 18.1049 7.47164 17.7232 7.20253 17.4514C7.03368 17.2684 6.82789 17.0383 6.75402 16.939C6.60628 16.7299 6.34245 16.5155 6.20526 16.3169C6.15249 16.2437 6.04696 16.1182 5.97309 16.0398C5.44015 15.517 5.25547 15.2242 4.79113 14.7171C4.44816 14.3459 4.17378 14.0113 4.11046 13.8753C4.08408 13.8283 4.02603 13.7446 3.97854 13.6924C3.90467 13.6139 3.88357 13.5617 3.87301 13.4153C3.84135 12.8297 4.12101 12.9866 5.26075 12.9552C6.6907 12.9552 6.63266 12.9395 7.23946 13.478C7.80406 13.9799 8.03623 14.2988 8.44253 15.151C8.72219 15.747 8.82244 16.0032 8.87521 16.228C8.89104 16.3012 8.96491 16.5417 9.04406 16.7665C9.11793 16.9913 9.1918 17.2579 9.20235 17.3729C9.2129 17.4827 9.23401 17.603 9.25512 17.6343C9.27095 17.6657 9.30789 17.9689 9.32899 18.2983C9.39759 19.2864 9.40287 19.5321 9.37121 19.5635C9.29206 19.6838 9.4187 19.9974 9.16542 19.9765C9.07044 19.9765 9.04933 19.9556 8.93325 19.7622Z" fill="#59C4D7"/>
<path d="M13.698 9.66151C13.0806 9.45761 12.648 9.08642 12.2575 8.40676C11.9778 7.92055 11.8934 7.61732 11.8934 7.06315C11.867 5.4163 13.1387 4.25566 14.8114 4.29226C15.4287 4.29749 15.6028 4.32886 16.083 4.56412C16.6265 4.82552 16.9484 5.15489 17.2861 5.81886L17.5499 6.33121V6.96904C17.5499 7.7062 17.4866 7.97806 17.2069 8.4695C16.8587 9.08119 16.5368 9.34782 15.8508 9.60922L15.3971 9.78698L14.7269 9.78175C14.1201 9.78175 14.0199 9.7713 13.698 9.66151Z" fill="#F58425"/>
<mask id="mask0_786_651" style="mask-type:luminance" maskUnits="userSpaceOnUse" x="0" y="0" width="32" height="46">
<path d="M31.8758 0H0V45.7248H31.8758V0Z" fill="white"/>
</mask>
<g mask="url(#mask0_786_651)">
<mask id="mask1_786_651" style="mask-type:luminance" maskUnits="userSpaceOnUse" x="0" y="0" width="32" height="46">
<path d="M31.8758 0H0V45.7248H31.8758V0Z" fill="white"/>
</mask>
<g mask="url(#mask1_786_651)">
<mask id="mask2_786_651" style="mask-type:luminance" maskUnits="userSpaceOnUse" x="-1" y="0" width="33" height="46">
<path d="M28.388 0.298162C26.6784 0.622304 25.0532 1.36992 23.6021 2.3162C21.7026 3.67028 20.1354 5.42692 18.869 7.36654C17.3547 9.62507 22.6312 6.16408 22.9953 5.83994C23.9029 5.15506 24.9477 4.16695 25.908 3.55003C26.0927 3.44547 26.1929 3.42456 26.1824 3.52912C26.0188 4.06239 25.4911 4.61133 25.1165 5.05572C22.7632 7.75342 18.7899 11.0419 15.1068 11.4444C12.6216 11.7947 10.9014 9.78714 9.20763 8.31805C7.30278 6.56141 5.21326 5.02435 3.03931 3.618C2.62773 3.37228 -0.622638 1.13466 0.10553 2.39985C0.754549 3.28863 1.53021 4.09375 2.21616 4.95639C3.7833 6.85418 5.25019 8.8304 6.65376 10.8537C7.74073 12.5267 9.04933 14.1055 9.62975 16.0399C10.2155 17.8802 10.4423 19.8512 10.4529 21.7751C10.4054 23.2756 10.1574 24.7552 9.90413 26.2347C8.92796 31.3007 7.18669 36.2517 6.97563 41.4484C6.92286 42.745 6.97035 44.0468 7.10754 45.3329C7.2975 46.755 8.23674 43.9631 8.41614 43.5972C8.64303 43.0273 8.88048 42.4993 9.1232 41.9399C9.5295 40.9936 9.93052 40.0421 10.321 39.0906C10.4476 38.7978 10.569 38.4737 10.78 38.2279C10.7695 37.9718 10.8223 37.6842 10.9594 37.5065C10.9753 37.4855 10.9964 37.4594 11.0122 37.4333C11.0861 37.1144 11.1652 36.8007 11.3394 36.5393C11.3763 36.1472 11.4924 35.7498 11.619 35.3943C11.7509 35.0283 11.9092 34.6206 12.1572 34.2912C12.3683 33.7161 12.6216 33.1515 12.8168 32.5764C13.144 31.651 13.508 30.7361 13.8141 29.8055L15.1174 26.0779C15.3496 25.2832 15.6556 24.5147 15.9194 23.7305C16.2149 22.8574 16.5051 21.9947 16.8692 21.1478C16.9167 21.0328 16.9695 20.9177 17.0222 20.8027C17.2016 20.1649 17.4444 19.5271 17.8032 18.9729C17.8401 18.7585 17.8876 18.5442 17.9404 18.3351C18.6421 15.9772 19.8505 13.7343 21.4176 11.8261C21.9769 11.1987 22.6418 10.6602 23.2855 10.1165C24.3197 9.27479 25.2959 8.37033 26.1454 7.34562C27.3379 6.02292 28.2455 4.49632 29.1689 2.9854C29.6649 2.16982 30.3298 1.46403 31.116 0.90462C31.5434 0.596163 32.5037 0.0210735 31.2532 0.00538921H31.2426C30.2876 0.0158454 29.3325 0.141319 28.388 0.298162Z" fill="white"/>
</mask>
<g mask="url(#mask2_786_651)">
<path d="M32.5037 0H-0.622635V46.7443H32.5037V0Z" fill="url(#paint0_linear_786_651)"/>
</g>
</g>
</g>
<mask id="mask3_786_651" style="mask-type:luminance" maskUnits="userSpaceOnUse" x="10" y="18" width="12" height="21">
<path d="M12.057 34.7825C12.1097 34.4426 12.2575 34.0819 12.3841 33.7525C12.648 33.0781 12.896 32.4037 13.1387 31.724C13.4025 31.0026 13.6663 30.2811 13.9091 29.5544C14.0304 29.2146 14.1412 28.8486 14.3312 28.5401C15.0382 27.4527 15.9458 28.9532 16.3363 29.5753C16.8956 30.4798 17.2175 31.6299 16.8745 32.6494L16.8692 32.6599C16.6318 33.397 16.0514 33.9983 15.434 34.4322C14.996 34.7511 13.5291 35.483 12.6743 35.483C12.2417 35.483 11.9673 35.2948 12.057 34.7825ZM17.8929 18.4552C17.8876 18.4604 17.877 18.5231 17.8665 18.5754C17.381 20.0706 11.123 36.973 10.7062 38.4892C10.9489 38.2644 11.2022 38.0762 11.6032 37.9507C12.0253 37.8304 12.4686 37.8043 12.9065 37.7468C13.9302 37.6266 14.9538 37.4331 15.9247 37.0776C19.1645 36.0006 21.7395 33.3709 20.9427 29.7844V29.774C20.5312 27.9389 19.497 26.3339 18.7055 24.64C17.6713 22.5017 17.5763 20.881 17.8876 18.5754C17.8929 18.5493 17.8929 18.5231 17.8929 18.5022C17.8929 18.4708 17.8929 18.4552 17.8929 18.4552Z" fill="white"/>
</mask>
<g mask="url(#mask3_786_651)">
<path d="M21.7342 18.4552H10.7062V38.4892H21.7342V18.4552Z" fill="url(#paint1_linear_786_651)"/>
</g>
<mask id="mask4_786_651" style="mask-type:luminance" maskUnits="userSpaceOnUse" x="7" y="13" width="14" height="33">
<path d="M18.6949 14.4818C18.0142 15.0673 17.3758 15.6947 16.7162 16.3064C14.9855 17.9323 12.9856 19.2655 11.1811 20.7764C11.0069 20.928 10.8486 21.0901 10.7484 21.2731C10.5215 21.6757 10.5743 22.1828 10.5162 22.6324C10.2524 25.1419 9.79332 27.6357 9.13903 30.0772C8.53222 32.4978 7.9518 34.9289 7.51912 37.3913C7.11282 39.8903 6.92286 42.4364 7.17086 44.9616C7.20252 45.2386 7.17614 45.6935 7.35554 45.8451C7.43996 45.8922 7.56133 45.7615 7.69852 45.521C7.98873 45.0243 8.34754 44.078 8.58498 43.482C9.27621 41.8613 9.96745 40.2458 10.6323 38.6147L14.69 27.4056C14.7111 27.322 14.7375 27.2331 14.7639 27.1495C14.8272 26.9508 14.8852 26.6528 15.033 26.4646L18.162 17.8278C18.6158 16.4005 19.1698 14.9785 20.0457 13.7656C20.2462 13.4885 20.2779 13.3839 20.2093 13.3839C19.9929 13.3787 18.8004 14.4034 18.6949 14.4818Z" fill="white"/>
</mask>
<g mask="url(#mask4_786_651)">
<path d="M20.2779 13.3787H6.92287V45.8922H20.2779V13.3787Z" fill="url(#paint2_linear_786_651)"/>
</g>
<defs>
<linearGradient id="paint0_linear_786_651" x1="4.70581" y1="23.9893" x2="31.8523" y2="22.4717" gradientUnits="userSpaceOnUse">
<stop stop-color="#9BC449"/>
<stop offset="0.05" stop-color="#9BC449"/>
<stop offset="0.23" stop-color="#13958F"/>
<stop offset="0.46" stop-color="#7181AC"/>
<stop offset="0.58" stop-color="#BA6F8A"/>
<stop offset="0.71" stop-color="#D27343"/>
<stop offset="0.99" stop-color="#F1B021"/>
<stop offset="1" stop-color="#F1B021"/>
</linearGradient>
<linearGradient id="paint1_linear_786_651" x1="16.2219" y1="38.4905" x2="16.2219" y2="18.4562" gradientUnits="userSpaceOnUse">
<stop stop-color="#1769B0"/>
<stop offset="0.11" stop-color="#1769B0"/>
<stop offset="0.23" stop-color="#1769B0"/>
<stop offset="0.94" stop-color="#1D91BA"/>
<stop offset="1" stop-color="#1D91BA"/>
</linearGradient>
<linearGradient id="paint2_linear_786_651" x1="1.60097" y1="46.8792" x2="19.4374" y2="20.7678" gradientUnits="userSpaceOnUse">
<stop stop-color="#116869"/>
<stop offset="0.53" stop-color="#13938D"/>
<stop offset="0.82" stop-color="#13958F"/>
<stop offset="0.95" stop-color="#13958F"/>
<stop offset="1" stop-color="#13958F"/>
</linearGradient>
</defs>
</svg>
