<svg width="35" height="35" viewBox="0 0 35 35" fill="none" xmlns="http://www.w3.org/2000/svg">
<path fill-rule="evenodd" clip-rule="evenodd" d="M30.0969 8.08733L18.6546 17.672C18.3294 17.9445 17.9204 18.0936 17.4982 18.0936C17.0759 18.0936 16.667 17.9445 16.3418 17.672L4.90494 8.08733C4.84357 8.27417 4.81236 8.46979 4.8125 8.66667V23.3333C4.8125 23.8196 5.00346 24.2859 5.34337 24.6297C5.68328 24.9735 6.14429 25.1667 6.625 25.1667H28.375C28.8557 25.1667 29.3167 24.9735 29.6566 24.6297C29.9965 24.2859 30.1875 23.8196 30.1875 23.3333V8.66667C30.1882 8.46989 30.1576 8.27427 30.0969 8.08733ZM6.625 5H28.375C29.3364 5 30.2584 5.38631 30.9383 6.07394C31.6181 6.76157 32 7.69421 32 8.66667V23.3333C32 24.3058 31.6181 25.2384 30.9383 25.9261C30.2584 26.6137 29.3364 27 28.375 27H6.625C5.66359 27 4.74156 26.6137 4.06174 25.9261C3.38192 25.2384 3 24.3058 3 23.3333V8.66667C3 7.69421 3.38192 6.76157 4.06174 6.07394C4.74156 5.38631 5.66359 5 6.625 5ZM6.24437 6.83333L16.3509 15.2722C16.6746 15.5426 17.081 15.691 17.5008 15.692C17.9207 15.693 18.3278 15.5465 18.6527 15.2777L28.8608 6.83333H6.24437Z" fill="white"/>
</svg>
