<svg width="48" height="48" viewBox="0 0 48 48" fill="none" xmlns="http://www.w3.org/2000/svg">
<g clip-path="url(#clip0_189_233)">
<path d="M18 20C12.486 20 8 15.514 8 10C8 4.486 12.486 0 18 0C23.514 0 28 4.486 28 10C28 15.514 23.514 20 18 20ZM18 2C13.588 2 10 5.588 10 10C10 14.412 13.588 18 18 18C22.412 18 26 14.412 26 10C26 5.588 22.412 2 18 2Z" fill="#FFF4F4"/>
<path d="M19 42H1C0.448 42 0 41.552 0 41V33C0 28.038 4.038 24 9 24H27C27.552 24 28 24.448 28 25C28 25.552 27.552 26 27 26H9C5.14 26 2 29.14 2 33V40H19C19.552 40 20 40.448 20 41C20 41.552 19.552 42 19 42Z" fill="#FFF4F4"/>
<path d="M37 48H35C33.346 48 32 46.654 32 45V40H27C25.346 40 24 38.654 24 37V35C24 33.346 25.346 32 27 32H32V27C32 25.346 33.346 24 35 24H37C38.654 24 40 25.346 40 27V32H45C46.654 32 48 33.346 48 35V37C48 38.654 46.654 40 45 40H40V45C40 46.654 38.654 48 37 48ZM27 34C26.448 34 26 34.448 26 35V37C26 37.552 26.448 38 27 38H33C33.552 38 34 38.448 34 39V45C34 45.552 34.448 46 35 46H37C37.552 46 38 45.552 38 45V39C38 38.448 38.448 38 39 38H45C45.552 38 46 37.552 46 37V35C46 34.448 45.552 34 45 34H39C38.448 34 38 33.552 38 33V27C38 26.448 37.552 26 37 26H35C34.448 26 34 26.448 34 27V33C34 33.552 33.552 34 33 34H27Z" fill="#FFF4F4"/>
</g>
<defs>
<clipPath id="clip0_189_233">
<rect width="48" height="48" fill="white"/>
</clipPath>
</defs>
</svg>
