<svg width="35" height="35" viewBox="0 0 35 35" fill="none" xmlns="http://www.w3.org/2000/svg">
<path d="M24.2535 20.2577L24.9185 19.5971L23.3741 18.0455L22.712 18.7061L24.2535 20.2577ZM27.1483 19.32L29.9351 20.8353L30.9779 18.9132L28.1924 17.3994L27.1483 19.32ZM30.4704 23.8453L28.3995 25.9059L29.941 27.4561L32.0118 25.3969L30.4704 23.8453ZM27.1366 26.568C25.022 26.7663 19.5533 26.5898 13.6295 20.7011L12.0866 22.2513C18.5499 28.6782 24.7027 28.9932 27.3408 28.7467L27.1366 26.568ZM13.6295 20.7011C7.98432 15.0865 7.04807 10.3659 6.9314 8.31692L4.74682 8.44088C4.89265 11.0192 6.05202 16.2517 12.0866 22.2513L13.6295 20.7011ZM15.6347 11.6886L16.0533 11.2715L14.5133 9.72129L14.0947 10.1369L15.6347 11.6886ZM16.3858 5.97046L14.5483 3.51463L12.7968 4.82713L14.6343 7.2815L16.3858 5.97046ZM8.36348 2.97942L6.0739 5.25442L7.61682 6.80608L9.90494 4.53109L8.36348 2.97942ZM14.8647 10.9128C14.0918 10.1369 14.0918 10.1369 14.0918 10.1398H14.0889L14.0845 10.1457C14.0152 10.2155 13.9532 10.2923 13.8993 10.3746C13.8206 10.4913 13.7345 10.6444 13.6616 10.8384C13.4841 11.3391 13.4399 11.8773 13.5333 12.4003C13.7287 13.6617 14.5979 15.3286 16.8233 17.5423L18.3662 15.9907C16.2822 13.9198 15.7864 12.6598 15.6945 12.0648C15.6508 11.7819 15.696 11.6419 15.7091 11.6098C15.7179 11.5904 15.7179 11.5875 15.7091 11.6011C15.6961 11.6212 15.6815 11.6402 15.6654 11.658L15.6508 11.6725L15.6362 11.6857L14.8647 10.9128ZM16.8233 17.5423C19.0501 19.7561 20.7258 20.6194 21.9887 20.8119C22.6347 20.9111 23.1554 20.8323 23.5506 20.685C23.7719 20.6041 23.9788 20.4879 24.1631 20.3409L24.236 20.2753L24.2462 20.2665L24.2506 20.2621L24.252 20.2592C24.252 20.2592 24.2535 20.2578 23.482 19.4819C22.7091 18.7061 22.7135 18.7046 22.7135 18.7046L22.7164 18.7017L22.7193 18.6988L22.7281 18.6915L22.7427 18.6769L22.7981 18.6332C22.8117 18.6244 22.8083 18.6254 22.7879 18.6361C22.7514 18.6492 22.6085 18.6944 22.3212 18.6507C21.7174 18.5573 20.4487 18.0615 18.3662 15.9907L16.8233 17.5423ZM14.5483 3.51317C13.0608 1.52983 10.1383 1.21483 8.36348 2.97942L9.90494 4.53109C10.6808 3.75963 12.0574 3.83983 12.7968 4.82713L14.5483 3.51317ZM6.93286 8.31838C6.90369 7.81379 7.13557 7.28588 7.61682 6.80754L6.07244 5.25588C5.28932 6.03463 4.67244 7.13713 4.74682 8.44088L6.93286 8.31838ZM28.3995 25.9059C27.9999 26.3055 27.5683 26.53 27.1381 26.5694L27.3408 28.7467C28.4126 28.6461 29.2891 28.1065 29.9424 27.4575L28.3995 25.9059ZM16.0533 11.2715C17.4897 9.84379 17.5962 7.58775 16.3872 5.97192L14.6358 7.28296C15.2235 8.069 15.136 9.10004 14.5118 9.72275L16.0533 11.2715ZM29.9366 20.8367C31.1281 21.4842 31.3133 23.0096 30.4718 23.8467L32.0147 25.3969C33.9689 23.453 33.3666 20.2111 30.9793 18.9146L29.9366 20.8367ZM24.9185 19.5986C25.4785 19.0415 26.3797 18.9044 27.1497 19.3215L28.1939 17.4009C26.6131 16.5405 24.6531 16.7782 23.3756 18.0469L24.9185 19.5986Z" fill="white"/>
</svg>
