<svg width="40" height="40" viewBox="0 0 40 40" fill="none" xmlns="http://www.w3.org/2000/svg">
<path d="M37.5667 10.7C37.3585 9.92049 36.9496 9.20913 36.3808 8.63685C35.8121 8.06457 35.1032 7.65134 34.325 7.43835C31.4667 6.66669 20 6.66669 20 6.66669C20 6.66669 8.53333 6.66669 5.675 7.43835C4.89677 7.65134 4.18794 8.06457 3.61916 8.63685C3.05039 9.20913 2.64153 9.92049 2.43333 10.7C1.66667 13.58 1.66667 19.5834 1.66667 19.5834C1.66667 19.5834 1.66667 25.5867 2.43333 28.4667C2.64127 29.2465 3.05002 29.9582 3.61881 30.5308C4.1876 31.1034 4.89657 31.5169 5.675 31.73C8.535 32.5 20 32.5 20 32.5C20 32.5 31.4667 32.5 34.325 31.73C35.1034 31.5169 35.8124 31.1034 36.3812 30.5308C36.95 29.9582 37.3587 29.2465 37.5667 28.4667C38.3333 25.59 38.3333 19.5834 38.3333 19.5834C38.3333 19.5834 38.3333 13.58 37.5667 10.7ZM16.25 25.035V14.1334L25.8333 19.585L16.25 25.035Z" stroke="white" stroke-width="1.5" stroke-miterlimit="10" stroke-linejoin="round"/>
</svg>
