<svg width="45" height="45" viewBox="0 0 45 45" fill="none" xmlns="http://www.w3.org/2000/svg">
<circle cx="22.5" cy="22.5" r="21.5" fill="white"/>
<g clip-path="url(#clip0_524_387)">
<path d="M37.3154 14.4314C37.1375 13.7682 36.7907 13.1635 36.3094 12.6777C35.828 12.1918 35.229 11.8417 34.5719 11.6622C32.1662 11 22.4843 11 22.4843 11C22.4843 11 12.8019 11.02 10.3962 11.6822C9.7391 11.8618 9.14004 12.2119 8.6587 12.6978C8.17735 13.1836 7.83051 13.7883 7.65272 14.4516C6.92507 18.7658 6.6428 25.3396 7.6727 29.4812C7.85051 30.1445 8.19736 30.7491 8.6787 31.235C9.16005 31.7208 9.7591 32.0709 10.4162 32.2504C12.8218 32.9126 22.504 32.9126 22.504 32.9126C22.504 32.9126 32.1861 32.9126 34.5916 32.2504C35.2487 32.0709 35.8478 31.7208 36.3292 31.235C36.8105 30.7491 37.1574 30.1445 37.3352 29.4812C38.1027 25.1609 38.3392 18.5911 37.3154 14.4314Z" fill="#FF0000"/>
<path d="M19.4025 26.6518L27.4344 21.9563L19.4025 17.2607V26.6518Z" fill="white"/>
</g>
<defs>
<clipPath id="clip0_524_387">
<rect width="31" height="22" fill="white" transform="translate(7 11)"/>
</clipPath>
</defs>
</svg>
