<svg width="149" height="51" viewBox="0 0 149 51" fill="none" xmlns="http://www.w3.org/2000/svg">
<g clip-path="url(#clip0_524_688)">
<path d="M101.711 45.4948C101.711 45.155 101.643 44.8622 101.511 44.6217C101.374 44.376 101.194 44.193 100.967 44.0623C100.74 43.9316 100.492 43.8689 100.229 43.8689C99.9648 43.8689 99.7221 43.9316 99.5004 44.0571C99.2788 44.1826 99.0994 44.3708 98.9622 44.6113C98.825 44.857 98.7564 45.1445 98.7564 45.4791C98.7564 45.8137 98.825 46.1065 98.9622 46.3522C99.0994 46.6032 99.2841 46.7966 99.5057 46.9273C99.7326 47.0632 99.97 47.126 100.229 47.126C100.492 47.126 100.735 47.0632 100.967 46.9325C101.194 46.8018 101.379 46.6136 101.511 46.3731C101.643 46.1274 101.711 45.8346 101.711 45.4948ZM97.3054 45.4739C97.3054 44.9145 97.4162 44.4178 97.6431 43.9839C97.87 43.55 98.176 43.2154 98.5665 42.9853C98.9569 42.7501 99.3896 42.6351 99.8698 42.6351C100.234 42.6351 100.582 42.7135 100.909 42.8703C101.242 43.0272 101.5 43.2363 101.695 43.4977V40.868H103.131V48.2709H101.695V47.4501C101.521 47.722 101.273 47.9416 100.957 48.1089C100.64 48.2762 100.271 48.3598 99.854 48.3598C99.3844 48.3598 98.9517 48.2396 98.5612 47.9991C98.1707 47.7586 97.8647 47.4188 97.6378 46.9848C97.4215 46.5457 97.3054 46.0438 97.3054 45.4739ZM95.1789 45.0347C95.1736 44.6479 95.0417 44.3446 94.7884 44.1198C94.5352 43.895 94.2239 43.7852 93.8439 43.7852C93.4851 43.7852 93.1896 43.895 92.9469 44.1198C92.7042 44.3446 92.5617 44.6479 92.5142 45.0347H95.1789ZM96.6405 45.3641C96.6405 45.5523 96.6247 45.7249 96.5983 45.8869H92.509C92.5354 46.2947 92.6725 46.6136 92.9205 46.8489C93.1685 47.0842 93.4799 47.1992 93.8492 47.1992C94.3769 47.1992 94.7462 46.9744 94.9678 46.53H96.4928C96.3292 47.0632 96.0232 47.5024 95.5641 47.8475C95.105 48.1925 94.5457 48.365 93.8756 48.365C93.3374 48.365 92.8519 48.2448 92.4245 48.0095C91.9971 47.7743 91.6647 47.4397 91.422 47.0057C91.1845 46.5718 91.0632 46.0699 91.0632 45.5053C91.0632 44.9302 91.1793 44.4283 91.4167 43.9944C91.6542 43.5604 91.9813 43.2258 92.4087 42.9958C92.8308 42.7605 93.3216 42.6455 93.8756 42.6455C94.4085 42.6455 94.8834 42.7605 95.3055 42.9853C95.7277 43.2101 96.0548 43.5343 96.287 43.9473C96.5244 44.3499 96.6405 44.8256 96.6405 45.3641ZM87.8656 42.6455C88.5304 42.6455 89.0686 42.8546 89.4802 43.2729C89.8918 43.6911 90.0976 44.2714 90.0976 45.0191V48.2709H88.6834V45.2073C88.6834 44.7681 88.5726 44.4283 88.351 44.193C88.1294 43.9578 87.8234 43.8375 87.4435 43.8375C87.053 43.8375 86.7469 43.9578 86.5201 44.193C86.2932 44.4283 86.1824 44.7681 86.1824 45.2073V48.2709H84.7682V42.7292H86.1824V43.4193C86.3723 43.1788 86.6097 42.9906 86.9052 42.8546C87.1954 42.7135 87.5173 42.6455 87.8656 42.6455ZM83.3699 42.7239V48.2657H81.9558V42.7239H83.3699ZM82.6734 42.0652C82.4254 42.0652 82.2196 41.9868 82.0508 41.8299C81.8872 41.6731 81.8028 41.4796 81.8028 41.2444C81.8028 41.0091 81.8872 40.8157 82.0508 40.6588C82.2144 40.502 82.4254 40.4236 82.6734 40.4236C82.9214 40.4236 83.1272 40.502 83.2961 40.6588C83.4596 40.8157 83.5441 41.0091 83.5441 41.2444C83.5441 41.4796 83.4596 41.6731 83.2961 41.8299C83.1325 41.9868 82.9214 42.0652 82.6734 42.0652ZM79.1487 45.4948C79.1487 45.155 79.0801 44.8622 78.9482 44.6217C78.8162 44.3812 78.6316 44.193 78.4047 44.0623C78.1778 43.9316 77.9298 43.8689 77.666 43.8689C77.4021 43.8689 77.1594 43.9316 76.9378 44.0571C76.7162 44.1826 76.5368 44.3708 76.3996 44.6113C76.2624 44.857 76.1938 45.1445 76.1938 45.4791C76.1938 45.8137 76.2624 46.1065 76.3996 46.3522C76.5368 46.6032 76.7215 46.7966 76.9431 46.9273C77.17 47.0632 77.4074 47.126 77.666 47.126C77.9298 47.126 78.1725 47.0632 78.4047 46.9325C78.6316 46.8018 78.8162 46.6136 78.9482 46.3731C79.0801 46.1326 79.1487 45.8346 79.1487 45.4948ZM77.3019 42.6351C77.7187 42.6351 78.0881 42.7187 78.4047 42.8808C78.7213 43.0428 78.9693 43.2572 79.1539 43.5186V42.7292H80.5786V48.3075C80.5786 48.8199 80.4731 49.28 80.2673 49.6825C80.0562 50.0851 79.7449 50.404 79.3281 50.6445C78.9112 50.8798 78.4047 51 77.8137 51C77.0169 51 76.3679 50.817 75.8614 50.451C75.3548 50.0851 75.0646 49.5832 74.996 48.9506H76.3996C76.4734 49.2015 76.6317 49.4054 76.8797 49.557C77.1277 49.7087 77.4232 49.7819 77.7715 49.7819C78.1831 49.7819 78.5155 49.6616 78.774 49.4159C79.0273 49.1702 79.1592 48.8042 79.1592 48.3128V47.4501C78.9798 47.7115 78.7265 47.9259 78.4047 48.0984C78.0828 48.2709 77.7187 48.3598 77.3071 48.3598C76.8375 48.3598 76.4048 48.2396 76.0144 47.9991C75.6239 47.7586 75.3179 47.4188 75.091 46.9848C74.8641 46.5457 74.7533 46.0438 74.7533 45.4791C74.7533 44.9197 74.8641 44.4231 75.091 43.9891C75.3179 43.5552 75.6239 43.2206 76.0091 42.9906C76.389 42.7501 76.8217 42.6351 77.3019 42.6351ZM72.2997 45.4948C72.2997 45.155 72.2311 44.8622 72.0992 44.6217C71.962 44.376 71.7826 44.193 71.5557 44.0623C71.3288 43.9316 71.0808 43.8689 70.817 43.8689C70.5531 43.8689 70.3104 43.9316 70.0888 44.0571C69.8672 44.1826 69.6878 44.3708 69.5506 44.6113C69.4134 44.857 69.3448 45.1445 69.3448 45.4791C69.3448 45.8137 69.4134 46.1065 69.5506 46.3522C69.6878 46.6032 69.8724 46.7966 70.0941 46.9273C70.321 47.0632 70.5584 47.126 70.817 47.126C71.0808 47.126 71.3235 47.0632 71.5557 46.9325C71.7826 46.8018 71.9672 46.6136 72.0992 46.3731C72.2364 46.1274 72.2997 45.8346 72.2997 45.4948ZM67.899 45.4739C67.899 44.9145 68.0098 44.4178 68.2367 43.9839C68.4636 43.55 68.7696 43.2154 69.1548 42.9853C69.54 42.7501 69.9727 42.6351 70.4529 42.6351C70.8697 42.6351 71.2338 42.7187 71.5504 42.886C71.8617 43.0533 72.115 43.2624 72.3049 43.5186V42.7292H73.7296V48.2709H72.3049V47.4606C72.1255 47.722 71.8723 47.9363 71.5504 48.1036C71.2285 48.2762 70.8644 48.3598 70.4423 48.3598C69.9727 48.3598 69.54 48.2396 69.1548 47.9991C68.7696 47.7586 68.4636 47.4188 68.2367 46.9848C68.0098 46.5457 67.899 46.0438 67.899 45.4739ZM64.6275 42.6455C65.3135 42.6455 65.8675 42.8546 66.2896 43.2729C66.7118 43.6911 66.9228 44.2714 66.9228 45.0191V48.2709H65.5087V45.2073C65.5087 44.7733 65.3979 44.444 65.1763 44.2139C64.9547 43.9839 64.6486 43.8689 64.2687 43.8689C63.8888 43.8689 63.5828 43.9839 63.3559 44.2139C63.129 44.444 63.0182 44.7786 63.0182 45.2073V48.2709H61.604V45.2073C61.604 44.7733 61.4932 44.444 61.2716 44.2139C61.05 43.9839 60.744 43.8689 60.3641 43.8689C59.9736 43.8689 59.6675 43.9839 59.4407 44.2139C59.2138 44.444 59.103 44.7786 59.103 45.2073V48.2709H57.6888V42.7292H59.103V43.3931C59.2824 43.1579 59.5198 42.9749 59.8047 42.8442C60.0897 42.7082 60.4063 42.6455 60.7492 42.6455C61.1872 42.6455 61.5777 42.7396 61.9206 42.9226C62.2636 43.1056 62.5275 43.367 62.7174 43.7068C62.8968 43.3879 63.1659 43.1317 63.5089 42.9383C63.8466 42.7396 64.2212 42.6455 64.6275 42.6455ZM56.2853 42.7239V48.2657H54.8711V42.7239H56.2853ZM55.5887 42.0652C55.3408 42.0652 55.135 41.9868 54.9661 41.8299C54.8025 41.6731 54.7181 41.4796 54.7181 41.2444C54.7181 41.0091 54.8025 40.8157 54.9661 40.6588C55.1297 40.502 55.3408 40.4236 55.5887 40.4236C55.8368 40.4236 56.0425 40.502 56.2114 40.6588C56.375 40.8157 56.4594 41.0091 56.4594 41.2444C56.4594 41.4796 56.375 41.6731 56.2114 41.8299C56.0425 41.9868 55.8368 42.0652 55.5887 42.0652ZM52.3753 45.0347C52.37 44.6479 52.2381 44.3446 51.9848 44.1198C51.7316 43.895 51.4203 43.7852 51.0403 43.7852C50.6815 43.7852 50.386 43.895 50.1433 44.1198C49.9006 44.3446 49.7581 44.6479 49.7106 45.0347H52.3753ZM53.8422 45.3641C53.8422 45.5523 53.8264 45.7249 53.8 45.8869H49.7106C49.737 46.2947 49.8742 46.6136 50.1222 46.8489C50.3702 47.0842 50.6815 47.1992 51.0509 47.1992C51.5786 47.1992 51.9479 46.9744 52.1695 46.53H53.6945C53.5309 47.0632 53.2248 47.5024 52.7658 47.8475C52.3067 48.1925 51.7474 48.365 51.0773 48.365C50.5391 48.365 50.0536 48.2448 49.6262 48.0095C49.1988 47.7743 48.8664 47.4397 48.6289 47.0057C48.3915 46.5718 48.2701 46.0699 48.2701 45.5053C48.2701 44.9302 48.3862 44.4283 48.6237 43.9944C48.8611 43.5604 49.1883 43.2258 49.6157 42.9958C50.0378 42.7605 50.5285 42.6455 51.0826 42.6455C51.6155 42.6455 52.0904 42.7605 52.5125 42.9853C52.9346 43.2101 53.2618 43.5343 53.4939 43.9473C53.7261 44.3499 53.8422 44.8256 53.8422 45.3641ZM43.5793 44.5067H44.7612C45.1464 44.5067 45.4313 44.4126 45.6213 44.2244C45.8112 44.0362 45.9062 43.78 45.9062 43.4559C45.9062 43.1265 45.8112 42.8756 45.6213 42.6926C45.4313 42.5096 45.1464 42.4155 44.7612 42.4155H43.5793V44.5067ZM45.8007 48.2657L44.2441 45.5419H43.5793V48.2657H42.1651V41.2862H44.8087C45.3522 41.2862 45.8165 41.3803 46.2017 41.5738C46.5869 41.762 46.8718 42.0234 47.0671 42.3423C47.257 42.6664 47.3573 43.0272 47.3573 43.4297C47.3573 43.8898 47.2201 44.3028 46.951 44.674C46.6819 45.0452 46.2809 45.3014 45.7479 45.4373L47.4364 48.2709H45.8007V48.2657ZM36.6511 45.4948C36.6511 45.155 36.5825 44.8622 36.4506 44.6217C36.3134 44.376 36.134 44.193 35.9071 44.0623C35.6802 43.9316 35.4322 43.8689 35.1684 43.8689C34.9046 43.8689 34.6618 43.9316 34.4402 44.0571C34.2186 44.1826 34.0392 44.3708 33.902 44.6113C33.7648 44.857 33.6962 45.1445 33.6962 45.4791C33.6962 45.8137 33.7648 46.1065 33.902 46.3522C34.0392 46.6032 34.2239 46.7966 34.4455 46.9273C34.6724 47.0632 34.9098 47.126 35.1684 47.126C35.4322 47.126 35.6749 47.0632 35.9071 46.9325C36.134 46.8018 36.3187 46.6136 36.4506 46.3731C36.5825 46.1274 36.6511 45.8346 36.6511 45.4948ZM34.8043 42.6351C35.2212 42.6351 35.5905 42.7187 35.9071 42.8808C36.2237 43.0428 36.4717 43.2572 36.6564 43.5186V42.7292H38.0811V48.3075C38.0811 48.8199 37.9755 49.28 37.7697 49.6825C37.5587 50.0851 37.2474 50.404 36.8305 50.6445C36.4137 50.8798 35.9071 51 35.3161 51C34.5194 51 33.8704 50.817 33.3638 50.451C32.8573 50.0851 32.567 49.5832 32.4984 48.9506H33.902C33.9759 49.2015 34.1342 49.4054 34.3822 49.557C34.6302 49.7087 34.9257 49.7819 35.2739 49.7819C35.6855 49.7819 36.0179 49.6616 36.2712 49.4159C36.5297 49.1702 36.6564 48.8042 36.6564 48.3128V47.4501C36.477 47.7115 36.2237 47.9259 35.9018 48.0984C35.58 48.2709 35.2159 48.3598 34.8043 48.3598C34.3347 48.3598 33.902 48.2396 33.5115 47.9991C33.1211 47.7586 32.815 47.4188 32.5881 46.9848C32.3613 46.5457 32.2504 46.0438 32.2504 45.4791C32.2504 44.9197 32.3613 44.4231 32.5881 43.9891C32.815 43.5552 33.1211 43.2206 33.5063 42.9906C33.8915 42.7501 34.3241 42.6351 34.8043 42.6351ZM29.037 42.6455C29.7019 42.6455 30.2401 42.8546 30.6516 43.2729C31.0632 43.6911 31.269 44.2714 31.269 45.0191V48.2709H29.8549V45.2073C29.8549 44.7681 29.7441 44.4283 29.5225 44.193C29.3008 43.9578 28.9948 43.8375 28.6149 43.8375C28.2244 43.8375 27.9184 43.9578 27.6915 44.193C27.4646 44.4283 27.3538 44.7681 27.3538 45.2073V48.2709H25.9397V42.7292H27.3538V43.4193C27.5437 43.1788 27.7812 42.9906 28.0767 42.8546C28.3616 42.7135 28.6835 42.6455 29.037 42.6455ZM24.5414 42.7239V48.2657H23.1272V42.7239H24.5414ZM23.8449 42.0652C23.5969 42.0652 23.3911 41.9868 23.2222 41.8299C23.0586 41.6731 22.9742 41.4796 22.9742 41.2444C22.9742 41.0091 23.0586 40.8157 23.2222 40.6588C23.3858 40.502 23.5916 40.4236 23.8449 40.4236C24.0929 40.4236 24.2986 40.502 24.4675 40.6588C24.6311 40.8157 24.7155 41.0091 24.7155 41.2444C24.7155 41.4796 24.6311 41.6731 24.4675 41.8299C24.2986 41.9868 24.0929 42.0652 23.8449 42.0652ZM21.7342 40.8627V48.2657H20.3201V40.8627H21.7342ZM17.513 45.4948C17.513 45.155 17.4444 44.8622 17.3125 44.6217C17.1753 44.376 16.9959 44.193 16.769 44.0623C16.5421 43.9316 16.2941 43.8689 16.0302 43.8689C15.7664 43.8689 15.5237 43.9316 15.3021 44.0571C15.0805 44.1826 14.9011 44.3708 14.7639 44.6113C14.6267 44.857 14.5581 45.1445 14.5581 45.4791C14.5581 45.8137 14.6267 46.1065 14.7639 46.3522C14.9011 46.6032 15.0857 46.7966 15.3074 46.9273C15.5342 47.0632 15.7717 47.126 16.0302 47.126C16.2941 47.126 16.5368 47.0632 16.769 46.9325C16.9959 46.8018 17.1805 46.6136 17.3125 46.3731C17.4444 46.1274 17.513 45.8346 17.513 45.4948ZM13.107 45.4739C13.107 44.9145 13.2178 44.4178 13.4447 43.9839C13.6716 43.55 13.9777 43.2154 14.3628 42.9853C14.748 42.7501 15.1807 42.6351 15.6609 42.6351C16.0777 42.6351 16.4418 42.7187 16.7584 42.886C17.0697 43.0533 17.323 43.2624 17.513 43.5186V42.7292H18.9376V48.2709H17.513V47.4606C17.3336 47.722 17.0803 47.9363 16.7584 48.1036C16.4365 48.2762 16.0725 48.3598 15.6503 48.3598C15.1807 48.3598 14.748 48.2396 14.3628 47.9991C13.9777 47.7586 13.6716 47.4188 13.4447 46.9848C13.2231 46.5457 13.107 46.0438 13.107 45.4739ZM10.9806 45.0347C10.9753 44.6479 10.8434 44.3446 10.5901 44.1198C10.3368 43.895 10.0202 43.7852 9.64559 43.7852C9.28678 43.7852 8.99129 43.895 8.74857 44.1198C8.50584 44.3446 8.36338 44.6479 8.31589 45.0347H10.9806ZM12.4422 45.3641C12.4422 45.5523 12.4263 45.7249 12.4 45.8869H8.31061C8.33699 46.2947 8.47418 46.6136 8.72746 46.8489C8.97546 47.0842 9.28678 47.1992 9.65614 47.1992C10.1838 47.1992 10.5532 46.9744 10.7748 46.53H12.2997C12.1361 47.0632 11.8301 47.5024 11.371 47.8475C10.912 48.1925 10.3526 48.365 9.68252 48.365C9.14431 48.365 8.65886 48.2448 8.23146 48.0095C7.80406 47.7743 7.47163 47.4397 7.22891 47.0057C6.99147 46.5718 6.8701 46.0699 6.8701 45.5053C6.8701 44.9302 6.98619 44.4283 7.22364 43.9944C7.46108 43.5604 7.78823 43.2258 8.21563 42.9958C8.63776 42.7605 9.12848 42.6455 9.68252 42.6455C10.2155 42.6455 10.6903 42.7605 11.1125 42.9853C11.5346 43.2101 11.8617 43.5343 12.0939 43.9473C12.3261 44.3499 12.4422 44.8256 12.4422 45.3641ZM5.84645 41.2862V48.2709H4.43233V45.2752H1.41412V48.2657H0V41.2862H1.41412V44.1773H4.43233V41.2862H5.84645Z" fill="#7D7F80"/>
<path d="M90.6094 18.5074C89.5066 18.5074 88.4935 18.7688 87.5701 19.3021C86.6467 19.8354 85.8974 20.6039 85.3117 21.6234C84.7366 22.6324 84.4516 23.8401 84.4516 25.236C84.4516 26.6214 84.7366 27.8448 85.3117 28.8956C85.8974 29.936 86.652 30.7464 87.5965 31.3006C88.541 31.86 89.5435 32.1318 90.6094 32.1318C91.7122 32.1318 92.7411 31.86 93.6856 31.3162C94.6407 30.7725 95.4058 29.9883 95.9704 28.9793C96.535 27.9598 96.8199 26.7417 96.8199 25.3196C96.8199 23.8976 96.535 22.6794 95.9704 21.66C95.4058 20.6405 94.6407 19.8563 93.6856 19.323C92.7411 18.7793 91.7122 18.5074 90.6094 18.5074ZM89.0897 13.363C90.8363 13.363 92.3665 13.708 93.6698 14.4034C94.9731 15.1039 96.0284 15.977 96.8147 17.0331V13.7394H102.761V36.8946H96.8147V33.512C96.0496 34.6047 94.9942 35.5039 93.6593 36.215C92.3296 36.926 90.7888 37.2815 89.0423 37.2815C87.0688 37.2815 85.2748 36.7848 83.6602 35.7758C82.0455 34.7668 80.7633 33.3604 79.8188 31.5306C78.8743 29.706 78.41 27.6095 78.41 25.236C78.41 22.8886 78.8743 20.813 79.8188 19.0041C80.7633 17.19 82.0455 15.8045 83.6602 14.8321C85.2748 13.8492 87.0952 13.363 89.0897 13.363Z" fill="#231F20"/>
<mask id="mask0_524_688" style="mask-type:luminance" maskUnits="userSpaceOnUse" x="78" y="13" width="25" height="25">
<path d="M87.5912 31.2953C86.6467 30.7359 85.8869 29.936 85.3117 28.8904C84.7366 27.8448 84.4463 26.6266 84.4463 25.2308C84.4463 23.8349 84.7366 22.6324 85.3117 21.6129C85.8869 20.5934 86.6414 19.8197 87.5701 19.2916C88.4988 18.7636 89.5119 18.497 90.6094 18.497C91.7069 18.497 92.7306 18.7688 93.6909 19.3126C94.646 19.8563 95.4058 20.6353 95.9704 21.6547C96.535 22.6742 96.8146 23.8924 96.8146 25.3144C96.8146 26.7364 96.535 27.9546 95.9704 28.9741C95.4058 29.9935 94.646 30.7725 93.6909 31.3162C92.7359 31.86 91.7069 32.1318 90.6094 32.1318C89.5382 32.1318 88.5357 31.8547 87.5912 31.2953ZM83.6707 14.8269C82.0508 15.8045 80.7738 17.1952 79.8293 19.0093C78.8848 20.8235 78.4152 22.899 78.4152 25.2412C78.4152 27.6095 78.8848 29.706 79.8293 31.5358C80.7738 33.3604 82.0508 34.7772 83.6707 35.781C85.2853 36.7848 87.0794 37.2867 89.0528 37.2867C90.7941 37.2867 92.3348 36.9312 93.6751 36.2202C95.0101 35.5092 96.0601 34.6099 96.8199 33.5225V36.9103H102.772V13.7499H96.8199V17.054C96.0337 15.9927 94.9837 15.1196 93.6751 14.4191C92.3665 13.7237 90.8416 13.3734 89.095 13.3734C87.0952 13.363 85.2853 13.8492 83.6707 14.8269Z" fill="white"/>
</mask>
<g mask="url(#mask0_524_688)">
<path d="M102.761 13.363H78.4152V37.2763H102.761V13.363Z" fill="url(#paint0_linear_524_688)"/>
</g>
<mask id="mask1_524_688" style="mask-type:luminance" maskUnits="userSpaceOnUse" x="78" y="13" width="25" height="25">
<path d="M87.5912 31.2953C86.6467 30.7359 85.8869 29.936 85.3117 28.8904C84.7366 27.8448 84.4463 26.6266 84.4463 25.2308C84.4463 23.8349 84.7366 22.6324 85.3117 21.6129C85.8869 20.5934 86.6414 19.8197 87.5701 19.2916C88.4988 18.7636 89.5119 18.497 90.6094 18.497C91.7069 18.497 92.7306 18.7688 93.6909 19.3126C94.646 19.8563 95.4058 20.6353 95.9704 21.6547C96.535 22.6742 96.8146 23.8924 96.8146 25.3144C96.8146 26.7364 96.535 27.9546 95.9704 28.9741C95.4058 29.9935 94.646 30.7725 93.6909 31.3162C92.7359 31.86 91.7069 32.1318 90.6094 32.1318C89.5382 32.1318 88.5357 31.8547 87.5912 31.2953ZM83.6707 14.8269C82.0508 15.8045 80.7738 17.1952 79.8293 19.0093C78.8848 20.8235 78.4152 22.899 78.4152 25.2412C78.4152 27.6095 78.8848 29.706 79.8293 31.5358C80.7738 33.3604 82.0508 34.7772 83.6707 35.781C85.2853 36.7848 87.0794 37.2867 89.0528 37.2867C90.7941 37.2867 92.3348 36.9312 93.6751 36.2202C95.0101 35.5092 96.0601 34.6099 96.8199 33.5225V36.9103H102.772V13.7499H96.8199V17.054C96.0337 15.9927 94.9837 15.1196 93.6751 14.4191C92.3665 13.7237 90.8416 13.3734 89.095 13.3734C87.0952 13.363 85.2853 13.8492 83.6707 14.8269Z" fill="white"/>
</mask>
<g mask="url(#mask1_524_688)">
<path d="M102.761 13.363H78.4152V37.2763H102.761V13.363Z" fill="url(#paint1_linear_524_688)"/>
</g>
<path d="M25.4489 36.7064H19.5444L6.15776 16.6828V36.7064H0.247997V7.48139H6.15776L19.5444 27.5468V7.48139H25.4489V36.7064Z" fill="black"/>
<mask id="mask2_524_688" style="mask-type:luminance" maskUnits="userSpaceOnUse" x="0" y="7" width="26" height="30">
<path d="M0.253277 36.7064H6.16304V16.6828L19.5392 36.7064H25.4437V7.48662H19.5392V27.552L6.16304 7.48662H0.253277V36.7064Z" fill="white"/>
</mask>
<g mask="url(#mask2_524_688)">
<path d="M25.4437 7.48662H0.253277V36.7116H25.4437V7.48662Z" fill="url(#paint2_linear_524_688)"/>
</g>
<path d="M39.6007 18.314C38.4979 18.314 37.4848 18.5754 36.5614 19.1087C35.638 19.6419 34.8887 20.4105 34.303 21.4299C33.7279 22.439 33.4429 23.6466 33.4429 25.0425C33.4429 26.428 33.7279 27.6514 34.303 28.7022C34.8887 29.7426 35.6433 30.5529 36.5878 31.1071C37.5323 31.6665 38.5348 31.9384 39.6007 31.9384C40.7035 31.9384 41.7325 31.6665 42.677 31.1228C43.632 30.5791 44.3971 29.7949 44.9617 28.7859C45.5263 27.7664 45.8112 26.5482 45.8112 25.1262C45.8112 23.7042 45.5263 22.486 44.9617 21.4665C44.3971 20.4471 43.632 19.6628 42.677 19.1296C41.7272 18.5859 40.6982 18.314 39.6007 18.314ZM38.0811 13.1748C39.8276 13.1748 41.3578 13.5198 42.6611 14.2152C43.9644 14.9157 45.0198 15.7888 45.806 16.8449V13.5512H51.7527V36.7064H45.806V33.3186C45.0409 34.4113 43.9856 35.3105 42.6506 36.0215C41.3209 36.7325 39.7801 37.0881 38.0336 37.0881C36.0601 37.0881 34.2661 36.5914 32.6515 35.5824C31.0368 34.5733 29.7546 33.167 28.8101 31.3372C27.8656 29.5126 27.4013 27.4161 27.4013 25.0425C27.4013 22.6951 27.8656 20.6196 28.8101 18.8107C29.7546 16.9965 31.0368 15.6111 32.6515 14.6386C34.2661 13.6558 36.0812 13.1748 38.0811 13.1748Z" fill="#231F20"/>
<mask id="mask3_524_688" style="mask-type:luminance" maskUnits="userSpaceOnUse" x="27" y="13" width="25" height="25">
<path d="M36.5825 31.1071C35.638 30.5477 34.8782 29.7478 34.303 28.7022C33.7279 27.6566 33.4377 26.4384 33.4377 25.0425C33.4377 23.6466 33.7279 22.4442 34.303 21.4247C34.8782 20.4052 35.6327 19.6367 36.5614 19.1034C37.4901 18.5754 38.5032 18.3088 39.6007 18.3088C40.6982 18.3088 41.7219 18.5806 42.6822 19.1243C43.6373 19.6681 44.3971 20.4471 44.9617 21.4665C45.5263 22.486 45.806 23.7042 45.806 25.1262C45.806 26.5482 45.5263 27.7664 44.9617 28.7859C44.3971 29.8053 43.6373 30.5843 42.6822 31.128C41.7272 31.6718 40.6982 31.9436 39.6007 31.9436C38.5296 31.9436 37.5217 31.6665 36.5825 31.1071ZM32.6567 14.6334C31.0368 15.6111 29.7599 17.0017 28.8154 18.8159C27.8709 20.63 27.4013 22.7056 27.4013 25.0478C27.4013 27.4161 27.8709 29.5126 28.8154 31.3424C29.7599 33.167 31.0368 34.5838 32.6567 35.5876C34.2766 36.5914 36.0654 37.0933 38.0388 37.0933C39.7801 37.0933 41.3209 36.7378 42.6611 36.0268C43.9961 35.3157 45.0461 34.4165 45.806 33.3291V36.7169H51.7579V13.5564H45.8007V16.8606C45.0145 15.7993 43.9644 14.9262 42.6559 14.2256C41.3473 13.5303 39.8223 13.18 38.0758 13.18C36.0812 13.1696 34.2714 13.661 32.6567 14.6334Z" fill="white"/>
</mask>
<g mask="url(#mask3_524_688)">
<path d="M51.7474 13.1696H27.4013V37.0828H51.7474V13.1696Z" fill="url(#paint3_linear_524_688)"/>
</g>
<path d="M148.995 13.4519V36.6071H143.048V33.6793C142.293 34.6884 141.301 35.4673 140.072 36.0477C138.853 36.6175 137.523 36.8998 136.088 36.8998C134.257 36.8998 132.643 36.5182 131.234 35.7497C129.835 34.9811 128.722 33.8519 127.92 32.3619C127.118 30.8666 126.722 29.0891 126.722 27.0292V13.4519H132.632V26.2032C132.632 28.0382 133.096 29.4498 134.02 30.4432C134.954 31.426 136.22 31.9227 137.824 31.9227C139.449 31.9227 140.732 31.426 141.65 30.4432C142.584 29.4498 143.048 28.0382 143.048 26.2032V13.4519H148.995Z" fill="#231F20"/>
<mask id="mask4_524_688" style="mask-type:luminance" maskUnits="userSpaceOnUse" x="126" y="13" width="24" height="24">
<path d="M126.722 13.4466V27.0344C126.722 29.0995 127.123 30.8719 127.925 32.3671C128.727 33.8571 129.83 34.9864 131.239 35.7549C132.648 36.5234 134.263 36.9051 136.093 36.9051C137.529 36.9051 138.858 36.6175 140.083 36.0477C141.307 35.4778 142.299 34.6884 143.059 33.6846V36.6123H149.011V13.4519H143.048V26.2032C143.048 28.0435 142.584 29.4603 141.655 30.4484C140.726 31.4365 139.444 31.9332 137.814 31.9332C136.21 31.9332 134.943 31.4365 134.015 30.4484C133.086 29.4603 132.622 28.0435 132.622 26.2032V13.4466H126.722Z" fill="white"/>
</mask>
<g mask="url(#mask4_524_688)">
<path d="M149 13.4466H126.722V36.8998H149V13.4466Z" fill="url(#paint4_linear_524_688)"/>
</g>
<path d="M67.0495 31.3163L72.9592 13.5512H79.2858L70.685 36.7064H63.4245L54.8131 13.5512H61.1397L67.0495 31.3163Z" fill="#231F20"/>
<mask id="mask5_524_688" style="mask-type:luminance" maskUnits="userSpaceOnUse" x="54" y="13" width="26" height="24">
<path d="M63.4245 36.7064H70.6798L79.2911 13.546H72.9592L67.0547 31.3162L61.145 13.546H54.8184L63.4245 36.7064Z" fill="white"/>
</mask>
<g mask="url(#mask5_524_688)">
<path d="M79.2911 13.546H54.8184V36.7064H79.2911V13.546Z" fill="url(#paint5_linear_524_688)"/>
</g>
<mask id="mask6_524_688" style="mask-type:luminance" maskUnits="userSpaceOnUse" x="123" y="39" width="1" height="1">
<path d="M123.44 39.425C123.414 39.425 123.382 39.4302 123.356 39.4355C123.351 39.4355 123.34 39.4407 123.335 39.4407C123.488 39.4302 123.514 39.425 123.488 39.425C123.472 39.425 123.456 39.425 123.44 39.425Z" fill="white"/>
</mask>
<g mask="url(#mask6_524_688)">
<path d="M123.514 39.425H123.335V39.4407H123.514V39.425Z" fill="url(#paint6_linear_524_688)"/>
</g>
<path d="M109.621 19.7622C109.347 19.2864 109.278 19.1766 109.178 19.0668C109.125 19.0041 109.056 18.9205 109.035 18.8839C109.019 18.8473 108.946 18.7532 108.887 18.68C108.771 18.5545 108.724 18.4133 108.624 18.314C108.434 18.1049 108.159 17.7232 107.89 17.4514C107.721 17.2684 107.516 17.0383 107.442 16.939C107.294 16.7299 107.03 16.5155 106.893 16.3169C106.84 16.2437 106.735 16.1182 106.661 16.0398C106.128 15.517 105.943 15.2242 105.479 14.7171C105.136 14.3459 104.861 14.0113 104.798 13.8753C104.772 13.8283 104.714 13.7446 104.666 13.6924C104.592 13.6139 104.571 13.5617 104.561 13.4153C104.529 12.8297 104.809 12.9866 105.948 12.9552C107.378 12.9552 107.32 12.9395 107.927 13.478C108.492 13.9799 108.724 14.2988 109.13 15.151C109.41 15.747 109.51 16.0032 109.563 16.228C109.579 16.3012 109.653 16.5417 109.732 16.7665C109.806 16.9913 109.879 17.2579 109.89 17.3729C109.901 17.4827 109.922 17.603 109.943 17.6343C109.959 17.6657 109.996 17.9689 110.017 18.2983C110.085 19.2864 110.091 19.5321 110.059 19.5635C109.98 19.6838 110.106 19.9974 109.853 19.9765C109.758 19.9765 109.737 19.9556 109.621 19.7622Z" fill="#59C4D7"/>
<path d="M114.386 9.66151C113.768 9.45761 113.336 9.08642 112.945 8.40676C112.665 7.92055 112.581 7.61732 112.581 7.06315C112.555 5.4163 113.826 4.25566 115.499 4.29226C116.116 4.29749 116.29 4.32886 116.771 4.56412C117.314 4.82552 117.636 5.15489 117.974 5.81886L118.238 6.33121V6.96904C118.238 7.7062 118.174 7.97806 117.895 8.4695C117.546 9.08119 117.224 9.34782 116.538 9.60922L116.085 9.78698L115.415 9.78175C114.808 9.78175 114.708 9.7713 114.386 9.66151Z" fill="#F58425"/>
<mask id="mask7_524_688" style="mask-type:luminance" maskUnits="userSpaceOnUse" x="100" y="0" width="33" height="46">
<path d="M132.563 0H100.688V45.7248H132.563V0Z" fill="white"/>
</mask>
<g mask="url(#mask7_524_688)">
<mask id="mask8_524_688" style="mask-type:luminance" maskUnits="userSpaceOnUse" x="100" y="0" width="33" height="46">
<path d="M132.563 0H100.688V45.7248H132.563V0Z" fill="white"/>
</mask>
<g mask="url(#mask8_524_688)">
<mask id="mask9_524_688" style="mask-type:luminance" maskUnits="userSpaceOnUse" x="100" y="0" width="33" height="46">
<path d="M129.076 0.298162C127.366 0.622304 125.741 1.36992 124.29 2.3162C122.39 3.67028 120.823 5.42692 119.557 7.36654C118.042 9.62507 123.319 6.16408 123.683 5.83994C124.591 5.15506 125.635 4.16695 126.596 3.55003C126.78 3.44547 126.881 3.42456 126.87 3.52912C126.706 4.06239 126.179 4.61133 125.804 5.05572C123.451 7.75342 119.478 11.0419 115.794 11.4444C113.309 11.7947 111.589 9.78714 109.895 8.31805C107.99 6.56141 105.901 5.02435 103.727 3.618C103.315 3.37228 100.065 1.13466 100.793 2.39985C101.442 3.28863 102.218 4.09375 102.904 4.95639C104.471 6.85418 105.938 8.8304 107.341 10.8537C108.428 12.5267 109.737 14.1055 110.317 16.0399C110.903 17.8802 111.13 19.8512 111.141 21.7751C111.093 23.2756 110.845 24.7552 110.592 26.2347C109.616 31.3007 107.874 36.2517 107.663 41.4484C107.611 42.745 107.658 44.0468 107.795 45.3329C107.985 46.755 108.924 43.9631 109.104 43.5972C109.331 43.0273 109.568 42.4993 109.811 41.9399C110.217 40.9936 110.618 40.0421 111.009 39.0906C111.135 38.7978 111.257 38.4737 111.468 38.2279C111.457 37.9718 111.51 37.6842 111.647 37.5065C111.663 37.4855 111.684 37.4594 111.7 37.4333C111.774 37.1144 111.853 36.8007 112.027 36.5393C112.064 36.1472 112.18 35.7498 112.307 35.3943C112.439 35.0283 112.597 34.6206 112.845 34.2912C113.056 33.7161 113.309 33.1515 113.504 32.5764C113.832 31.651 114.196 30.7361 114.502 29.8055L115.805 26.0779C116.037 25.2832 116.343 24.5147 116.607 23.7305C116.903 22.8574 117.193 21.9947 117.557 21.1478C117.604 21.0328 117.657 20.9177 117.71 20.8027C117.889 20.1649 118.132 19.5271 118.491 18.9729C118.528 18.7585 118.575 18.5442 118.628 18.3351C119.33 15.9772 120.538 13.7343 122.105 11.8261C122.665 11.1987 123.329 10.6602 123.973 10.1165C125.007 9.27479 125.984 8.37033 126.833 7.34562C128.026 6.02292 128.933 4.49632 129.857 2.9854C130.353 2.16982 131.017 1.46403 131.804 0.90462C132.231 0.596163 133.191 0.0210735 131.941 0.00538921H131.93C130.975 0.0158454 130.02 0.141319 129.076 0.298162Z" fill="white"/>
</mask>
<g mask="url(#mask9_524_688)">
<path d="M133.191 0H100.065V46.7443H133.191V0Z" fill="url(#paint7_linear_524_688)"/>
</g>
</g>
</g>
<mask id="mask10_524_688" style="mask-type:luminance" maskUnits="userSpaceOnUse" x="111" y="18" width="11" height="21">
<path d="M112.745 34.7825C112.797 34.4426 112.945 34.0819 113.072 33.7525C113.336 33.0781 113.584 32.4037 113.826 31.724C114.09 31.0026 114.354 30.2811 114.597 29.5544C114.718 29.2146 114.829 28.8486 115.019 28.5401C115.726 27.4527 116.633 28.9532 117.024 29.5753C117.583 30.4798 117.905 31.6299 117.562 32.6494L117.557 32.6599C117.319 33.397 116.739 33.9983 116.122 34.4322C115.684 34.7511 114.217 35.483 113.362 35.483C112.929 35.483 112.655 35.2948 112.745 34.7825ZM118.581 18.4552C118.575 18.4604 118.565 18.5231 118.554 18.5754C118.069 20.0706 111.811 36.973 111.394 38.4892C111.637 38.2644 111.89 38.0762 112.291 37.9507C112.713 37.8304 113.156 37.8043 113.594 37.7468C114.618 37.6266 115.641 37.4331 116.612 37.0776C119.852 36.0006 122.427 33.3709 121.63 29.7844V29.774C121.219 27.9389 120.185 26.3339 119.393 24.64C118.359 22.5017 118.264 20.881 118.575 18.5754C118.581 18.5493 118.581 18.5231 118.581 18.5022C118.581 18.4708 118.581 18.4552 118.581 18.4552Z" fill="white"/>
</mask>
<g mask="url(#mask10_524_688)">
<path d="M122.422 18.4552H111.394V38.4892H122.422V18.4552Z" fill="url(#paint8_linear_524_688)"/>
</g>
<mask id="mask11_524_688" style="mask-type:luminance" maskUnits="userSpaceOnUse" x="107" y="13" width="14" height="33">
<path d="M119.383 14.4818C118.702 15.0673 118.063 15.6947 117.404 16.3064C115.673 17.9323 113.673 19.2655 111.869 20.7764C111.695 20.928 111.536 21.0901 111.436 21.2731C111.209 21.6757 111.262 22.1828 111.204 22.6324C110.94 25.1419 110.481 27.6357 109.827 30.0772C109.22 32.4978 108.639 34.9289 108.207 37.3913C107.8 39.8903 107.611 42.4364 107.859 44.9616C107.89 45.2386 107.864 45.6935 108.043 45.8451C108.128 45.8922 108.249 45.7615 108.386 45.521C108.676 45.0243 109.035 44.078 109.273 43.482C109.964 41.8613 110.655 40.2458 111.32 38.6147L115.378 27.4056C115.399 27.322 115.425 27.2331 115.452 27.1495C115.515 26.9508 115.573 26.6528 115.721 26.4646L118.85 17.8278C119.303 16.4005 119.857 14.9785 120.733 13.7656C120.934 13.4885 120.966 13.3839 120.897 13.3839C120.681 13.3787 119.488 14.4034 119.383 14.4818Z" fill="white"/>
</mask>
<g mask="url(#mask11_524_688)">
<path d="M120.966 13.3787H107.611V45.8922H120.966V13.3787Z" fill="url(#paint9_linear_524_688)"/>
</g>
</g>
<defs>
<linearGradient id="paint0_linear_524_688" x1="90.5882" y1="37.2757" x2="90.5882" y2="13.3615" gradientUnits="userSpaceOnUse">
<stop stop-color="#231F20"/>
<stop offset="1" stop-color="white"/>
</linearGradient>
<linearGradient id="paint1_linear_524_688" x1="89.9671" y1="37.2084" x2="91.7595" y2="2.25688" gradientUnits="userSpaceOnUse">
<stop stop-color="#4B438D"/>
<stop offset="0.99" stop-color="#9B63AF"/>
<stop offset="1" stop-color="#9B63AF"/>
</linearGradient>
<linearGradient id="paint2_linear_524_688" x1="12.8497" y1="32.5858" x2="12.8497" y2="3.36192" gradientUnits="userSpaceOnUse">
<stop stop-color="#4B438D"/>
<stop offset="0.92" stop-color="#9B63AF"/>
<stop offset="1" stop-color="#9B63AF"/>
</linearGradient>
<linearGradient id="paint3_linear_524_688" x1="39.5768" y1="33.0145" x2="39.5768" y2="9.10032" gradientUnits="userSpaceOnUse">
<stop stop-color="#4B438D"/>
<stop offset="0.92" stop-color="#9B63AF"/>
<stop offset="1" stop-color="#9B63AF"/>
</linearGradient>
<linearGradient id="paint4_linear_524_688" x1="145.642" y1="38.5284" x2="130.166" y2="11.4748" gradientUnits="userSpaceOnUse">
<stop stop-color="#2A66AD"/>
<stop offset="0.03" stop-color="#2A66AD"/>
<stop offset="0.95" stop-color="#49BFD5"/>
<stop offset="1" stop-color="#49BFD5"/>
</linearGradient>
<linearGradient id="paint5_linear_524_688" x1="67.0529" y1="26.563" x2="67.0529" y2="3.40119" gradientUnits="userSpaceOnUse">
<stop stop-color="#4B438D"/>
<stop offset="0.88" stop-color="#9860AC"/>
<stop offset="1" stop-color="#9860AC"/>
</linearGradient>
<linearGradient id="paint6_linear_524_688" x1="103.23" y1="55.2661" x2="122.378" y2="39.9692" gradientUnits="userSpaceOnUse">
<stop stop-color="#CD97AB"/>
<stop offset="0.36" stop-color="#CD97AB"/>
<stop offset="0.74" stop-color="#BA6F8A"/>
<stop offset="0.84" stop-color="#D27343"/>
<stop offset="0.99" stop-color="#F1B021"/>
<stop offset="1" stop-color="#F1B021"/>
</linearGradient>
<linearGradient id="paint7_linear_524_688" x1="105.393" y1="23.9893" x2="132.54" y2="22.4717" gradientUnits="userSpaceOnUse">
<stop stop-color="#9BC449"/>
<stop offset="0.05" stop-color="#9BC449"/>
<stop offset="0.23" stop-color="#13958F"/>
<stop offset="0.46" stop-color="#7181AC"/>
<stop offset="0.58" stop-color="#BA6F8A"/>
<stop offset="0.71" stop-color="#D27343"/>
<stop offset="0.99" stop-color="#F1B021"/>
<stop offset="1" stop-color="#F1B021"/>
</linearGradient>
<linearGradient id="paint8_linear_524_688" x1="116.91" y1="38.4905" x2="116.91" y2="18.4562" gradientUnits="userSpaceOnUse">
<stop stop-color="#1769B0"/>
<stop offset="0.11" stop-color="#1769B0"/>
<stop offset="0.23" stop-color="#1769B0"/>
<stop offset="0.94" stop-color="#1D91BA"/>
<stop offset="1" stop-color="#1D91BA"/>
</linearGradient>
<linearGradient id="paint9_linear_524_688" x1="102.289" y1="46.8792" x2="120.125" y2="20.7678" gradientUnits="userSpaceOnUse">
<stop stop-color="#116869"/>
<stop offset="0.53" stop-color="#13938D"/>
<stop offset="0.82" stop-color="#13958F"/>
<stop offset="0.95" stop-color="#13958F"/>
<stop offset="1" stop-color="#13958F"/>
</linearGradient>
<clipPath id="clip0_524_688">
<rect width="149" height="51" fill="white"/>
</clipPath>
</defs>
</svg>
