<svg width="271" height="347" viewBox="0 0 271 347" fill="none" xmlns="http://www.w3.org/2000/svg">
<g opacity="0.69">
<path d="M75.9482 168.08C73.6155 164.034 73.0323 163.1 72.18 162.166C71.7314 161.633 71.1482 160.921 70.9687 160.61C70.8342 160.299 70.2061 159.498 69.7127 158.876C68.7257 157.809 68.322 156.608 67.4697 155.763C65.8547 153.985 63.522 150.739 61.2341 148.426C59.7986 146.87 58.049 144.914 57.421 144.069C56.1649 142.29 53.9219 140.467 52.7555 138.777C52.3069 138.155 51.4097 137.088 50.7817 136.421C46.2508 131.974 44.6807 129.484 40.733 125.171C37.8171 122.014 35.4844 119.168 34.9461 118.012C34.7218 117.612 34.2283 116.9 33.8246 116.456C33.1965 115.789 33.0171 115.344 32.9274 114.099C32.6582 109.119 35.0357 110.453 44.7255 110.186C56.8826 110.186 56.3892 110.053 61.5481 114.633C66.3481 118.901 68.322 121.614 71.7763 128.862C74.1538 133.931 75.0061 136.109 75.4548 138.021C75.5893 138.644 76.2174 140.689 76.8903 142.601C77.5183 144.513 78.1463 146.781 78.2361 147.759C78.3258 148.693 78.5052 149.716 78.6847 149.983C78.8193 150.249 79.1333 152.828 79.3127 155.63C79.8959 164.034 79.9408 166.124 79.6716 166.391C78.9987 167.413 80.0754 170.081 77.9221 169.903C77.1146 169.903 76.9351 169.725 75.9482 168.08Z" fill="#EEEEEE"/>
<path d="M116.457 82.1724C111.208 80.4382 107.53 77.2812 104.21 71.5006C101.833 67.3653 101.115 64.7863 101.115 60.073C100.89 46.0663 111.702 36.1949 125.922 36.5062C131.171 36.5506 132.651 36.8174 136.734 38.8184C141.354 41.0417 144.091 43.843 146.962 49.4901L149.205 53.8478V59.2726C149.205 65.5422 148.666 67.8544 146.289 72.0342C143.328 77.2367 140.592 79.5044 134.76 81.7277L130.902 83.2395L125.205 83.1951C120.046 83.1951 119.193 83.1062 116.457 82.1724Z" fill="#EEEEEE"/>
<mask id="mask0_524_407" style="mask-type:luminance" maskUnits="userSpaceOnUse" x="0" y="0" width="271" height="389">
<path d="M271 0H0V388.896H271V0Z" fill="white"/>
</mask>
<g mask="url(#mask0_524_407)">
<mask id="mask1_524_407" style="mask-type:luminance" maskUnits="userSpaceOnUse" x="0" y="0" width="271" height="389">
<path d="M271 0H0V388.896H271V0Z" fill="white"/>
</mask>
<g mask="url(#mask1_524_407)">
<mask id="mask2_524_407" style="mask-type:luminance" maskUnits="userSpaceOnUse" x="-1" y="0" width="272" height="389">
<path d="M241.348 2.53597C226.813 5.29284 212.996 11.6514 200.659 19.6997C184.51 31.2163 171.186 46.1568 160.42 62.6535C147.545 81.8627 192.405 52.4264 195.5 49.6695C203.216 43.8445 212.099 35.4405 220.263 30.1936C221.833 29.3043 222.686 29.1264 222.596 30.0157C221.205 34.5512 216.719 39.2201 213.534 42.9997C193.527 65.944 159.747 93.9128 128.435 97.3367C107.305 100.316 92.681 83.2411 78.2809 70.7462C62.0864 55.8058 44.3218 42.7329 25.8394 30.7716C22.3403 28.6818 -5.2935 9.65047 0.897199 20.4112C6.415 27.9703 13.0094 34.818 18.8413 42.1548C32.1647 58.2959 44.6358 75.1039 56.5686 92.3121C65.8098 106.541 76.9351 119.97 81.8698 136.422C86.8492 152.074 88.7782 168.837 88.8679 185.201C88.4642 197.962 86.3557 210.546 84.2024 223.13C75.9033 266.217 61.0995 308.326 59.305 352.525C58.8564 363.552 59.2602 374.624 60.4266 385.563C62.0415 397.658 70.0267 373.913 71.5519 370.8C73.4809 365.954 75.4996 361.463 77.5632 356.705C81.0174 348.656 84.4268 340.564 87.7464 332.471C88.8231 329.981 89.8548 327.224 91.6492 325.134C91.5595 322.955 92.0081 320.51 93.1745 318.998C93.309 318.82 93.4885 318.598 93.6231 318.375C94.2511 315.663 94.924 312.995 96.4044 310.772C96.7184 307.437 97.7053 304.057 98.782 301.034C99.9035 297.921 101.249 294.453 103.358 291.651C105.152 286.76 107.305 281.958 108.965 277.067C111.747 269.196 114.842 261.415 117.444 253.5L128.524 221.796C130.498 215.037 133.1 208.501 135.343 201.831C137.855 194.405 140.322 187.068 143.418 179.865C143.822 178.887 144.27 177.908 144.719 176.93C146.244 171.505 148.308 166.081 151.358 161.367C151.672 159.544 152.076 157.721 152.524 155.942C158.491 135.888 168.764 116.813 182.087 100.583C186.842 95.2468 192.495 90.6668 197.968 86.0424C206.76 78.8835 215.059 71.1909 222.282 62.4756C232.42 51.2258 240.136 38.2419 247.987 25.3913C252.204 18.4547 257.856 12.4518 264.54 7.69399C268.174 5.07051 276.338 0.179295 265.707 0.0458984H265.617C257.497 0.13483 249.377 1.202 241.348 2.53597Z" fill="white"/>
</mask>
<g mask="url(#mask2_524_407)">
<path d="M276.339 0H-5.2934V397.567H276.339V0Z" fill="#EEEEEE"/>
</g>
</g>
</g>
<mask id="mask3_524_407" style="mask-type:luminance" maskUnits="userSpaceOnUse" x="91" y="156" width="89" height="172">
<path d="M102.505 295.83C102.954 292.94 104.21 289.872 105.287 287.07C107.53 281.334 109.638 275.598 111.702 269.818C113.945 263.681 116.188 257.545 118.251 251.364C119.283 248.474 120.225 245.362 121.84 242.738C127.851 233.489 135.567 246.251 138.887 251.542C143.642 259.235 146.379 269.017 143.463 277.688L143.418 277.777C141.399 284.047 136.465 289.16 131.216 292.851C127.493 295.563 115.021 301.788 107.754 301.788C104.076 301.788 101.743 300.188 102.505 295.83ZM152.121 156.964C152.076 157.008 151.986 157.542 151.896 157.987C147.769 170.704 94.5652 314.461 91.0212 327.356C93.0848 325.444 95.2381 323.843 98.6474 322.776C102.236 321.754 106.005 321.531 109.728 321.042C118.431 320.019 127.134 318.374 135.388 315.35C162.932 306.191 184.824 283.824 178.05 253.321V253.232C174.551 237.625 165.758 223.974 159.029 209.567C150.237 191.38 149.429 177.596 152.076 157.987C152.121 157.764 152.121 157.542 152.121 157.364C152.121 157.097 152.121 156.964 152.121 156.964Z" fill="white"/>
</mask>
<g mask="url(#mask3_524_407)">
<path d="M184.779 156.964H91.0212V327.356H184.779V156.964Z" fill="#EEEEEE"/>
</g>
<mask id="mask4_524_407" style="mask-type:luminance" maskUnits="userSpaceOnUse" x="60" y="113" width="113" height="277">
<path d="M158.939 123.17C153.152 128.15 147.724 133.486 142.117 138.688C127.403 152.517 110.401 163.856 95.0586 176.707C93.5782 177.996 92.2324 179.375 91.3801 180.931C89.4511 184.355 89.8997 188.668 89.4062 192.492C87.1632 213.835 83.2604 235.046 77.6977 255.811C72.5388 276.399 67.6042 297.075 63.9257 318.018C60.4715 339.273 58.8565 360.928 60.9649 382.405C61.2341 384.761 61.0097 388.63 62.535 389.919C63.2527 390.32 64.2845 389.208 65.4509 387.162C67.9182 382.938 70.9687 374.89 72.9874 369.821C78.8641 356.037 84.7408 342.297 90.3931 328.423L124.891 233.089C125.07 232.378 125.294 231.622 125.519 230.91C126.057 229.221 126.55 226.686 127.806 225.085L154.409 151.628C158.267 139.489 162.977 127.394 170.424 117.078C172.128 114.722 172.397 113.832 171.814 113.832C169.975 113.788 159.837 122.503 158.939 123.17Z" fill="white"/>
</mask>
<g mask="url(#mask4_524_407)">
<path d="M172.397 113.788H58.8565V390.319H172.397V113.788Z" fill="#EEEEEE"/>
</g>
</g>
</svg>
