<svg width="234" height="245" viewBox="0 0 234 245" fill="none" xmlns="http://www.w3.org/2000/svg">
<path d="M65.5789 144.808C63.5647 141.322 63.0612 140.517 62.3252 139.713C61.9378 139.253 61.4343 138.64 61.2793 138.372C61.1631 138.104 60.6208 137.414 60.1947 136.878C59.3426 135.958 58.9939 134.924 58.258 134.196C56.8635 132.664 54.8493 129.867 52.8738 127.875C51.6342 126.534 50.1235 124.849 49.5812 124.121C48.4966 122.589 46.5599 121.018 45.5528 119.562C45.1654 119.026 44.3907 118.106 43.8484 117.532C39.9362 113.701 38.5804 111.556 35.1717 107.84C32.6539 105.12 30.6397 102.668 30.1749 101.672C29.9812 101.327 29.5551 100.714 29.2065 100.331C28.6642 99.7565 28.5093 99.3734 28.4318 98.3007C28.1994 94.0101 30.2523 95.1594 38.6191 94.9295C49.1164 94.9295 48.6903 94.8146 53.1449 98.7604C57.2896 102.438 58.994 104.775 61.9766 111.019C64.0296 115.386 64.7655 117.264 65.1528 118.911C65.2691 119.447 65.8114 121.209 66.3924 122.857C66.9347 124.504 67.4769 126.458 67.5544 127.301C67.6319 128.105 67.7868 128.986 67.9418 129.216C68.058 129.446 68.3291 131.668 68.4841 134.081C68.9876 141.322 69.0264 143.122 68.794 143.352C68.2129 144.233 69.1426 146.532 67.2833 146.378C66.5861 146.378 66.4311 146.225 65.5789 144.808Z" fill="white" fill-opacity="0.12"/>
<path d="M100.557 70.7947C96.0249 69.3006 92.8486 66.5807 89.9822 61.6005C87.9293 58.0378 87.3095 55.8159 87.3095 51.7552C87.1158 39.6879 96.451 31.1833 108.73 31.4515C113.262 31.4898 114.54 31.7196 118.065 33.4435C122.055 35.359 124.418 37.7724 126.897 42.6377L128.834 46.3919V51.0656C128.834 56.4672 128.369 58.4592 126.316 62.0602C123.759 66.5424 121.397 68.4961 116.361 70.4116L113.03 71.7141L108.11 71.6758C103.656 71.6758 102.92 71.5991 100.557 70.7947Z" fill="white" fill-opacity="0.12"/>
<mask id="mask0_160_364" style="mask-type:luminance" maskUnits="userSpaceOnUse" x="0" y="0" width="234" height="336">
<path d="M234 0H0V335.049H234V0Z" fill="white"/>
</mask>
<g mask="url(#mask0_160_364)">
<mask id="mask1_160_364" style="mask-type:luminance" maskUnits="userSpaceOnUse" x="0" y="0" width="234" height="336">
<path d="M234 0H0V335.049H234V0Z" fill="white"/>
</mask>
<g mask="url(#mask1_160_364)">
<mask id="mask2_160_364" style="mask-type:luminance" maskUnits="userSpaceOnUse" x="-1" y="0" width="235" height="336">
<path d="M208.396 2.18485C195.846 4.55999 183.915 10.0382 173.263 16.9721C159.318 26.8941 147.814 39.7658 138.517 53.9784C127.4 70.5278 166.136 45.1674 168.808 42.7922C175.471 37.7738 183.141 30.5334 190.19 26.0129C191.546 25.2468 192.282 25.0935 192.205 25.8597C191.004 29.7672 187.13 33.7896 184.38 37.0459C167.104 56.8133 137.936 80.9095 110.899 83.8593C92.6548 86.426 80.0271 71.7154 67.5931 60.9506C53.6097 48.0788 38.2705 36.816 22.3115 26.511C19.2902 24.7104 -4.57079 8.31426 0.774689 17.585C5.53913 24.0975 11.2332 29.9971 16.2688 36.318C27.7732 50.2241 38.5416 64.7049 48.8452 79.5304C56.8246 91.7892 66.4311 103.359 70.6919 117.533C74.9916 131.018 76.6572 145.46 76.7346 159.558C76.386 170.552 74.5654 181.394 72.7061 192.235C65.5401 229.356 52.7574 265.635 51.208 303.714C50.8207 313.214 51.1693 322.753 52.1764 332.177C53.5709 342.597 60.4658 322.14 61.7828 319.459C63.4484 315.283 65.1915 311.414 66.9733 307.315C69.9559 300.381 72.8998 293.409 75.7663 286.436C76.6959 284.291 77.5868 281.916 79.1362 280.116C79.0587 278.238 79.4461 276.131 80.4532 274.829C80.5694 274.676 80.7244 274.484 80.8406 274.293C81.3829 271.956 81.9639 269.657 83.2422 267.742C83.5133 264.869 84.3655 261.957 85.2951 259.352C86.2635 256.671 87.4256 253.682 89.2461 251.269C90.7956 247.055 92.6548 242.918 94.0881 238.704C96.4896 231.923 99.1624 225.219 101.409 218.4L110.977 191.086C112.681 185.263 114.928 179.631 116.864 173.885C119.034 167.488 121.164 161.167 123.837 154.961C124.185 154.118 124.573 153.275 124.96 152.432C126.277 147.758 128.059 143.085 130.693 139.024C130.964 137.453 131.313 135.883 131.7 134.35C136.852 117.073 145.722 100.639 157.227 86.6559C161.333 82.0588 166.213 78.113 170.939 74.1289C178.531 67.9611 185.697 61.3337 191.933 53.8252C200.688 44.133 207.35 32.9468 214.129 21.8756C217.77 15.8994 222.651 10.7277 228.422 6.62867C231.56 4.36845 238.61 0.154477 229.429 0.0395508H229.352C222.341 0.116168 215.33 1.03558 208.396 2.18485Z" fill="white"/>
</mask>
<g mask="url(#mask2_160_364)">
<path d="M238.61 0H-4.57068V342.519H238.61V0Z" fill="white" fill-opacity="0.12"/>
</g>
</g>
</g>
<mask id="mask3_160_364" style="mask-type:luminance" maskUnits="userSpaceOnUse" x="78" y="135" width="77" height="148">
<path d="M88.5102 254.869C88.8976 252.379 89.9821 249.736 90.9118 247.322C92.8486 242.38 94.6692 237.438 96.451 232.458C98.3877 227.172 100.324 221.885 102.106 216.56C102.997 214.07 103.811 211.388 105.205 209.128C110.396 201.16 117.058 212.155 119.925 216.713C124.031 223.341 126.393 231.769 123.876 239.239L123.837 239.316C122.094 244.717 117.833 249.123 113.301 252.302C110.086 254.639 99.3174 260.002 93.0423 260.002C89.866 260.002 87.8517 258.623 88.5102 254.869ZM131.351 135.23C131.313 135.269 131.235 135.728 131.158 136.112C127.594 147.068 81.6541 270.92 78.594 282.03C80.3758 280.383 82.2351 279.004 85.179 278.084C88.2778 277.203 91.5316 277.012 94.7466 276.59C102.261 275.709 109.776 274.292 116.903 271.687C140.687 263.795 159.59 244.526 153.74 218.246V218.169C150.719 204.723 143.127 192.962 137.317 180.55C129.725 164.882 129.027 153.006 131.313 136.112C131.351 135.92 131.351 135.728 131.351 135.575C131.351 135.345 131.351 135.23 131.351 135.23Z" fill="white"/>
</mask>
<g mask="url(#mask3_160_364)">
<path d="M159.551 135.23H78.594V282.03H159.551V135.23Z" fill="white" fill-opacity="0.12"/>
</g>
<mask id="mask4_160_364" style="mask-type:luminance" maskUnits="userSpaceOnUse" x="51" y="98" width="98" height="238">
<path d="M137.239 106.115C132.242 110.406 127.555 115.003 122.713 119.485C110.008 131.399 95.3276 141.168 82.0801 152.239C80.8018 153.35 79.6398 154.538 78.9038 155.879C77.2382 158.828 77.6256 162.544 77.1995 165.839C75.2627 184.227 71.8927 202.5 67.0896 220.391C62.635 238.128 58.3741 255.941 55.1978 273.985C52.2152 292.296 50.8207 310.953 52.6413 329.456C52.8737 331.486 52.68 334.819 53.997 335.93C54.6168 336.275 55.5077 335.317 56.5148 333.555C58.6453 329.916 61.2793 322.982 63.0223 318.615C68.0967 306.739 73.171 294.901 78.0517 282.949L107.839 200.815C107.994 200.202 108.188 199.551 108.381 198.938C108.846 197.482 109.272 195.298 110.357 193.919L133.327 130.633C136.658 120.175 140.725 109.755 147.155 100.867C148.627 98.8366 148.86 98.0705 148.356 98.0705C146.768 98.0321 138.014 105.541 137.239 106.115Z" fill="white"/>
</mask>
<g mask="url(#mask4_160_364)">
<path d="M148.86 98.0322H50.8208V336.275H148.86V98.0322Z" fill="white" fill-opacity="0.12"/>
</g>
</svg>
