<svg width="65" height="65" viewBox="0 0 65 65" fill="none" xmlns="http://www.w3.org/2000/svg">
<rect width="65" height="65" rx="32.5" fill="#02A6AA"/>
<path d="M25.076 29.126C24.1721 27.9122 24.753 27.2958 24.9192 26.0774C25.2241 23.7669 26.0559 21.5529 27.813 19.871C29.8384 17.9322 31.7178 15.7412 33.8918 13.9517C34.5156 13.4381 35.0428 12.6632 35.7472 12.2296C36.0418 12.0482 37.0591 11.8752 37.3367 12.1241C37.3231 12.9994 35.941 14.0373 35.3187 14.6379L31.8964 17.9263C30.2633 19.4673 27.4454 22.2183 26.7541 24.3914C26.6158 24.8263 26.6178 26.817 26.6096 27.4186C26.5036 27.7265 26.4809 27.9793 26.13 28.0674L26.1226 28.0944C25.9747 28.6554 26.1868 29.3499 25.9307 29.5975L25.6883 29.6729C25.777 30.0488 25.8387 30.2656 25.9696 30.6325C25.1477 32.0184 23.8043 32.6851 22.2677 33.0865C22.1627 33.1144 22.0563 33.1369 21.9489 33.1541C21.524 34.0172 21.2147 33.1169 20.7102 33.6093C20.6625 33.9037 20.5852 34.5203 20.4746 34.7631C20.9987 34.7618 22.2255 34.6424 22.6363 34.697C24.679 34.9683 27.0592 34.6321 29.0392 34.8354C29.9676 34.8388 31.7345 34.7127 32.6738 34.5307C35.359 34.0102 35.958 36.0215 35.9933 38.1406C36.0107 39.1868 35.5432 40.0152 35.0767 40.9404C34.2374 42.5296 34.8876 44.6988 35.3559 46.3265C35.9022 48.2248 36.7234 50.0924 37.1955 52.0142C37.3375 52.5921 37.5878 53.9526 36.6501 54C36.2975 53.8571 36.0845 53.4453 35.9513 53.1127C34.8011 50.2409 33.3323 47.3205 33.0771 44.2072C32.9977 43.2389 32.9635 42.0175 33.1987 41.0802C33.7396 38.9249 35.2776 37.5771 33.4262 35.481C32.2129 35.4704 30.788 35.8498 29.5682 36.0863C28.9208 36.4396 27.2382 36.0737 27.2258 36.7903C27.5243 37.0472 28.1081 36.6943 28.4703 36.8074C28.0373 37.1436 21.2658 36.9321 20.497 36.7957C21.1061 36.6102 22.0895 37.0368 22.4361 36.6521C22.4419 36.5426 22.4543 36.4734 22.4339 36.366C21.3097 36.3581 20.2888 36.2189 19.1969 36.1887C18.9149 36.3251 18.6165 36.8996 18.517 37.1657C18.223 37.9518 18.2027 39.4025 18.6144 40.1469C19.0893 41.0055 20.3497 41.9384 21.0272 42.693C21.9331 43.702 23.3834 45.5678 23.8032 46.8094C24.475 48.7958 24.6579 51.8563 24.7656 53.9503C24.291 53.9559 23.9055 53.9658 23.4332 53.9171C22.5497 51.3626 22.7569 49.1075 21.7244 46.5834C20.8791 44.5169 19.9868 44.2177 18.5658 42.7688C16.8976 41.0679 15.9983 39.1336 16.5521 36.7807C16.5683 36.6057 16.5858 36.4307 16.6047 36.256C16.8391 36.0408 16.7252 36.3816 17.1796 36.2088C17.2534 35.893 17.3634 35.5386 17.453 35.2229C17.0545 34.1734 16.1414 33.3783 15.5518 32.3641C14.6953 30.8905 14.9853 28.6864 15.4209 27.131C15.897 25.3687 17.0804 24.0309 18.0557 22.5601C18.9466 21.2166 19.245 20.832 20.5358 19.8063C21.6842 18.8938 22.8025 17.9082 23.9921 17.0221C24.5845 16.5953 25.2418 15.7105 25.8054 15.3086C26.9815 14.4701 28.441 12.6576 29.6483 12.019C30.0662 12.03 30.8325 11.9813 31.0776 12.3473C30.9296 13.0938 28.7908 14.7272 28.1826 15.339C26.8606 16.6689 25.4798 17.9794 24.0501 19.2022C23.2802 19.8607 22.2919 20.3387 21.5744 21.0701C19.2034 23.6515 16.6229 26.6495 16.7262 30.3107C16.7502 31.1597 16.8718 31.6124 17.4928 32.1993C19.1801 32.2809 20.3393 32.0877 21.9398 31.6498C24.3137 31.0003 24.0362 30.8936 25.076 29.126Z" fill="#F7FBFC"/>
<path d="M27.7974 23.5962C30.2107 24.1008 31.6666 23.5685 33.7102 25.3298C36.4819 27.7185 36.6247 31.0407 33.3948 33.118C31.1438 33.3137 29.2528 33.0291 27.4593 31.6465C27.2698 31.5005 26.5047 31.0148 26.4158 30.8558L25.9696 30.6325C25.8387 30.2656 25.777 30.0488 25.6883 29.6729L25.9307 29.5975C26.1868 29.3499 25.9747 28.6554 26.1226 28.0944L26.13 28.0674C26.4809 27.9793 26.5036 27.7265 26.6096 27.4186C26.5759 29.0528 26.3212 28.2045 27.326 29.5903C28.4103 30.8095 29.4766 31.8053 31.225 31.9368C31.8328 31.9825 32.6045 31.9114 33.168 31.692C34.6216 30.1579 34.4711 27.6118 32.9471 26.2331C31.4807 24.9065 29.2549 25.0557 27.7974 23.5962Z" fill="#E7F8FA"/>
<path d="M25.5226 37.995C25.8199 38.3587 24.2964 39.5485 24.7068 40.6092C25.4254 42.4664 27.0418 44.6532 27.5633 46.5853C27.8811 47.7631 29.8917 53.3263 29.3367 53.9106C29.044 53.9708 28.6438 53.8878 28.3376 53.8443C27.8554 53.4435 27.4697 52.0297 27.2986 51.416C26.7645 49.5 26.213 47.6046 25.4662 45.7525C24.6996 43.8511 23.8153 42.0952 23.1584 40.1492C23.7129 38.9176 24.3485 38.6071 25.5226 37.995Z" fill="#F7FBFC"/>
<path d="M42.277 31.7816C43.2318 31.7551 50.4643 31.6351 50.8958 31.9826C51.0966 32.3687 50.9564 32.9499 50.8941 33.3821L49.2165 33.4001C46.4266 33.4567 43.2995 33.4779 40.5124 33.385C40.4494 32.8282 40.4511 32.4247 40.4543 31.8614C41.0069 31.8124 41.7122 31.8039 42.277 31.7816Z" fill="#F7FBFC"/>
<path d="M46.4939 21.6077C46.6136 21.628 47.5108 22.6755 47.7385 22.8894C46.5914 23.6059 45.7678 24.4447 44.7246 25.2603C43.9951 25.8308 43.117 26.3353 42.3601 26.8867C41.9874 27.1582 41.2901 27.8253 40.9322 27.9981L39.8814 28.0961C39.7192 26.5855 39.2877 26.6351 40.9215 25.7157C42.8443 24.6335 44.6245 22.6439 46.4939 21.6077Z" fill="#F7FBFC"/>
<path d="M40.6403 36.9697C40.9036 37.0133 41.7708 37.7781 42.0144 37.9949C43.2279 39.0746 44.5532 39.8178 45.8654 40.7496C46.2971 41.0562 46.9263 41.6407 47.3365 42.0096C47.0164 42.7594 46.9664 43.0639 46.2425 43.4757L46.0572 43.5212C45.646 43.3969 44.1563 41.7789 43.6377 41.3664C42.3875 40.3722 40.6343 39.6559 39.6244 38.4745C39.8597 37.7195 40.0033 37.4632 40.6403 36.9697Z" fill="#F7FBFC"/>
</svg>
