<svg width="65" height="65" viewBox="0 0 65 65" fill="none" xmlns="http://www.w3.org/2000/svg">
<rect width="65" height="65" rx="32.5" fill="#0269BF"/>
<path d="M32.2121 14.1821C32.6678 13.9783 33.4726 13.9024 33.9064 14.1841L34.2053 14.3335C34.1482 14.5828 34.2685 14.8611 34.2499 15.095C34.191 15.8322 33.0935 16.3825 32.5077 16.5388C32.0215 16.8514 31.7833 16.9618 31.2758 17.3375C30.8898 17.7565 30.3677 18.2152 30.0875 18.7151C29.9377 18.9824 29.526 19.6979 29.476 19.9707C29.4117 20.1572 29.3637 20.1835 29.2759 20.3385C29.0517 20.7344 28.9835 20.9256 28.987 21.3758L29.2643 21.8339C29.4607 22.4551 30.0986 23.6676 30.4799 24.1959C30.8202 24.6677 31.5993 25.2963 32.0777 25.6333C32.708 26.0289 33.4032 26.3105 33.9723 26.8082C35.726 28.2973 36.2915 30.501 37.3146 32.4972C37.3603 32.5863 37.4112 33.356 37.4261 33.5193L37.4412 34.0786C37.4196 34.5507 37.5171 35.4121 37.4581 35.7933L37.4237 35.8694C37.3431 36.0486 37.0465 36.2761 36.8773 36.3619C36.2567 36.6768 35.4982 36.241 35.2367 35.6211C35.2118 35.5196 35.2 35.259 35.1469 35.2013C34.9262 34.9617 34.9902 34.8994 35.2069 34.6899C35.2985 34.4632 35.2734 33.8203 35.2269 33.5804C35.1826 33.455 34.8856 32.8855 34.813 32.7468C34.5668 32.2764 34.3866 31.8827 34.1893 31.3888C34.1968 31.2263 34.1961 31.0629 34.1969 30.9002C33.8621 30.9347 33.6687 30.9476 33.3312 30.9431C33.2492 31.0631 33.1974 31.1253 33.1582 31.2661C33.1 31.4768 32.8241 31.8525 32.7007 32.0581C31.8606 33.4581 31.0778 34.4611 31.9406 36.1318C32.7185 37.6378 33.4804 39.1889 34.0929 40.7753C34.2497 41.1814 34.2261 42.4973 34.3842 42.6966C34.5241 42.7371 34.5484 42.7158 34.6158 42.8128C34.6657 43.4165 34.7089 44.1355 34.7803 44.7257C34.7845 44.8747 34.7857 45.0236 34.7837 45.1729C34.7531 45.5729 34.8079 45.9722 34.7989 46.3632C34.9655 46.3556 35.1536 46.3345 35.3116 46.3807C35.3322 46.573 35.3504 46.7596 35.383 46.9505C35.3967 47.4561 35.5821 47.9588 35.4362 48.4007C35.3149 48.7353 34.7364 48.9037 34.4224 48.9599C32.6262 49.2812 32.3028 47.6094 32.0477 46.1998C32.0051 46.0392 31.8153 45.6597 31.739 45.4471C31.7013 45.0742 31.5417 44.5768 31.4822 44.2141C31.1898 42.3153 30.6094 40.6524 29.3398 39.2208C28.7019 38.5016 28.7799 38.1301 27.732 38.2052L27.4204 38.4527C27.2622 38.8724 26.8402 40.5753 26.783 41.0323C26.684 41.1968 26.3346 42.1255 26.2977 42.3103C26.1759 43.1183 26.0402 43.5374 25.7453 44.2775C25.581 44.6897 25.5292 45.3338 25.3193 45.7644C25.2294 46.0188 25.2346 46.4141 25.1648 46.6843C24.9309 47.1321 24.8557 47.3785 24.7258 47.8743C24.6489 48.1124 24.5858 48.2296 24.4659 48.4489C24.205 49.2436 22.2172 49.31 22.0052 47.7507C21.972 47.3309 22.1054 46.8266 22.1817 46.4032C22.3578 45.4504 22.5507 44.5011 22.7602 43.5557C22.8822 43.0029 23.0145 42.4895 23.1157 41.9293C23.1887 41.4609 23.3127 40.9233 23.4355 40.4639C23.471 40.3312 23.5589 40.2074 23.6118 40.0299L23.6211 39.9982L23.6229 39.8169C23.7455 38.825 23.8972 38.0951 24.0933 37.1244C24.1236 36.5093 24.3437 35.9178 24.4652 35.3272C24.8535 33.4396 25.5337 31.6386 26.1201 29.8106C26.2558 29.3875 26.6924 28.8123 26.868 28.3816C27.0813 27.8582 27.3568 27.285 27.4031 26.7121C27.4213 25.5393 26.9133 24.4756 26.7636 23.2987C26.7509 23.1942 26.4692 22.5718 26.3949 22.2888C26.2858 21.5935 26.2598 21.1037 26.417 20.423C26.5153 19.9395 26.9166 19.2541 27.1385 18.7846C27.6157 17.7748 29.1295 16.3159 30.0131 15.6456C30.3844 15.364 30.7969 15.1392 31.1764 14.8697C31.5258 14.6217 31.8027 14.3275 32.2121 14.1821Z" fill="#FAFBFB"/>
<path d="M24.0933 37.1244C24.1214 37.9804 24.1981 38.6463 24.0993 39.5085C23.8346 39.7486 23.7833 39.5894 23.6229 39.8169C23.7455 38.825 23.8972 38.0951 24.0933 37.1244Z" fill="#D8E4F0"/>
<path d="M22.0052 47.7507L22.019 47.7719C22.2063 48.0609 22.3263 48.6299 22.7226 48.6474C23.2578 48.6709 24.0032 48.7544 24.4659 48.4489C24.205 49.2436 22.2172 49.31 22.0052 47.7507Z" fill="#D8E4F0"/>
<path d="M23.6211 39.9982C23.6229 40.3135 23.6461 41.0417 23.6083 41.313C23.5323 41.3681 23.3643 41.3164 23.3204 41.3527C23.2428 41.417 23.2594 41.7991 23.1267 41.9188C23.1229 41.9222 23.1194 41.9258 23.1157 41.9293C23.1887 41.4609 23.3127 40.9233 23.4355 40.4639C23.471 40.3312 23.5589 40.2074 23.6118 40.0299L23.6211 39.9982Z" fill="#D8E4F0"/>
<path d="M32.2121 14.1821C32.6678 13.9783 33.4726 13.9024 33.9064 14.1841C33.3176 14.1366 32.8037 14.1688 32.2121 14.1821Z" fill="#D8E4F0"/>
<path d="M31.9641 16.5995C32.1741 16.5632 32.2938 16.5409 32.5077 16.5388C32.0215 16.8514 31.7833 16.9618 31.2758 17.3375C31.3524 17.1504 31.7985 16.7432 31.9641 16.5995Z" fill="#CDE4F3"/>
<path d="M32.06 20.7247C32.7316 19.5787 34.0523 19.0407 35.2896 19.409C36.5269 19.7773 37.3775 20.9616 37.3696 22.3051C37.3617 23.6486 36.4974 24.822 35.2558 25.1745C34.0143 25.527 32.7 24.9721 32.0419 23.8176C31.4977 22.8631 31.5047 21.6723 32.06 20.7247Z" fill="#FAFBFB"/>
<path d="M32.0419 23.8176C31.4977 22.8631 31.5047 21.6723 32.06 20.7247C32.1529 21.5397 32.0407 22.9697 32.0419 23.8176Z" fill="#D8E4F0"/>
<path d="M37.4412 34.0786C37.4486 34.1686 37.4444 34.2143 37.5036 34.2825L37.497 34.3289C37.565 34.1482 37.6114 34.024 37.8292 34.0673C38.0097 34.2665 37.8722 34.5823 37.9745 34.9635L37.9818 35.1369C37.9003 35.3609 37.8871 35.3151 37.7127 35.4851C37.6209 35.5746 37.5419 35.696 37.4581 35.7933C37.5171 35.4121 37.4196 34.5507 37.4412 34.0786Z" fill="#D8E4F0" fill-opacity="0.756863"/>
<path d="M28.987 21.3758C28.9835 20.9256 29.0517 20.7344 29.2759 20.3385C29.3637 20.1835 29.4117 20.1572 29.476 19.9707C29.3907 20.4084 29.5767 20.8496 29.4787 21.311C29.3875 21.7407 29.171 21.438 29.2643 21.8339L28.987 21.3758ZM29.418 21.3006C29.4454 21.1662 29.4992 20.9846 29.4602 20.8603C29.3851 20.7787 29.4147 20.8023 29.2905 20.7847C29.24 21.034 29.1829 21.1677 29.418 21.3006Z" fill="#D8E4F0" fill-opacity="0.196078"/>
<path d="M29.2905 20.7847C29.4147 20.8023 29.3851 20.7787 29.4602 20.8603C29.4992 20.9846 29.4454 21.1662 29.418 21.3006C29.1829 21.1677 29.24 21.034 29.2905 20.7847Z" fill="#D8E4F0" fill-opacity="0.372549"/>
<path d="M35.2269 33.5804C35.2734 33.8203 35.2985 34.4632 35.2069 34.6899C34.9902 34.8994 34.9262 34.9617 35.1469 35.2013C35.2 35.259 35.2118 35.5196 35.2367 35.6211C35.1753 35.562 35.1118 35.488 35.0298 35.5016C35.0141 35.7315 35.0328 35.7135 34.8531 35.8186L34.8151 35.785C34.7261 35.4718 34.794 34.2916 35.0996 34.1125L35.2091 34.1764C35.2084 33.9776 35.2143 33.7788 35.2269 33.5804Z" fill="#CDE4F3" fill-opacity="0.160784"/>
<path d="M34.7837 45.1729C34.8038 45.2922 34.7859 45.3242 34.8587 45.3777C35.071 45.3691 35.0854 45.4134 35.2417 45.5488C35.245 45.6594 35.2522 46.1274 35.2778 46.2074L35.3116 46.3807C35.1536 46.3345 34.9655 46.3556 34.7989 46.3632C34.8079 45.9722 34.7531 45.5729 34.7837 45.1729Z" fill="#CDE4F3" fill-opacity="0.984314"/>
<path d="M34.7803 44.7257L34.8403 44.737L34.8629 44.7148C35.4877 44.1134 35.3014 45.9629 35.2778 46.2074C35.2522 46.1274 35.245 45.6594 35.2417 45.5488C35.0854 45.4134 35.071 45.3691 34.8587 45.3777C34.7859 45.3242 34.8038 45.2922 34.7837 45.1729C34.7857 45.0236 34.7845 44.8747 34.7803 44.7257Z" fill="#D8E4F0" fill-opacity="0.403922"/>
<path d="M37.4261 33.5193L37.495 33.6757L37.5274 33.6652L37.5401 33.6341C37.5726 33.555 37.5868 33.5013 37.6602 33.459C38.1128 33.4964 37.9873 34.6219 37.9745 34.9635C37.8722 34.5823 38.0097 34.2665 37.8292 34.0673C37.6114 34.024 37.565 34.1482 37.497 34.3289L37.5036 34.2825C37.4444 34.2143 37.4486 34.1686 37.4412 34.0786L37.4261 33.5193Z" fill="#D8E4F0" fill-opacity="0.317647"/>
<path d="M35.383 46.9505C35.4048 47.0337 35.4545 47.2566 35.4959 47.3158C35.5657 47.2104 35.5549 47.1926 35.6512 47.1433C35.8441 47.2636 35.8533 47.6464 35.7923 47.8468L35.7492 47.8683L35.6574 47.8283C35.503 47.9879 35.6172 48.1936 35.4362 48.4007C35.5821 47.9588 35.3967 47.4561 35.383 46.9505Z" fill="#D8E4F0" fill-opacity="0.333333"/>
<path d="M26.2977 42.3103C26.3346 42.1255 26.684 41.1968 26.783 41.0323L26.796 41.0899C26.7793 41.2213 26.7628 41.3519 26.765 41.4847C26.7697 41.7663 26.8609 41.9539 26.6202 42.147C26.6112 42.1542 26.6021 42.1613 26.593 42.1684C26.4266 42.3412 26.4924 42.1483 26.2977 42.3103Z" fill="#D8E4F0" fill-opacity="0.160784"/>
<path d="M24.7258 47.8743C24.8557 47.3785 24.9309 47.1321 25.1648 46.6843C25.1471 46.8913 25.1719 46.9941 25.2077 47.1959L25.1254 47.1767C25.0525 47.2523 25.0492 47.3521 25.0289 47.4631L25.1265 47.5149L25.1795 47.4799C25.1987 47.3739 25.2019 47.3029 25.2077 47.1959C25.2258 47.3428 25.266 47.5463 25.1953 47.6711C25.0144 47.8277 24.9049 47.6348 24.7258 47.8743Z" fill="#CDE4F3" fill-opacity="0.243137"/>
<path d="M26.3949 22.2888C26.4692 22.5718 26.7509 23.1942 26.7636 23.2987L26.6656 23.1798C26.5797 23.1603 26.6143 23.1591 26.5193 23.2187C26.4341 23.3466 26.3889 23.6052 26.3512 23.7655C26.3107 23.4094 26.2884 23.0669 26.3767 22.7143C26.4143 22.5644 26.4076 22.4412 26.3949 22.2888Z" fill="#D8E4F0" fill-opacity="0.145098"/>
<path d="M33.3312 30.9431C33.6687 30.9476 33.8621 30.9347 34.1969 30.9002C34.1961 31.0629 34.1968 31.2263 34.1893 31.3888C34.1656 31.2938 34.1613 31.2372 34.0854 31.177C33.7158 31.0511 33.5065 31.1132 33.1582 31.2661C33.1974 31.1253 33.2492 31.0631 33.3312 30.9431Z" fill="#CDE4F3" fill-opacity="0.988235"/>
<path d="M31.739 45.4471C31.8153 45.6597 32.0051 46.0392 32.0477 46.1998L31.9523 46.1634C31.8847 46.2767 31.7817 46.3936 31.6672 46.4564L31.6147 46.4148C31.5793 46.0528 31.7494 45.7991 31.739 45.4471Z" fill="#D8E4F0" fill-opacity="0.129412"/>
<path d="M37.9818 35.1369C37.9804 35.2918 38.0017 35.6324 37.9269 35.7423C37.7572 35.8837 37.5772 35.8079 37.4237 35.8694L37.4581 35.7933C37.5419 35.696 37.6209 35.5746 37.7127 35.4851C37.8871 35.3151 37.9003 35.3609 37.9818 35.1369Z" fill="#CDE4F3" fill-opacity="0.262745"/>
<path d="M25.0289 47.4631C25.0492 47.3521 25.0525 47.2523 25.1254 47.1767L25.2077 47.1959C25.2019 47.3029 25.1987 47.3739 25.1795 47.4799L25.1265 47.5149L25.0289 47.4631Z" fill="#CDE4F3" fill-opacity="0.411765"/>
<path d="M34.8435 33.5155C34.928 33.6041 34.9244 33.7663 34.9167 33.8828C34.8303 33.8507 34.8606 33.875 34.8076 33.7789C34.7977 33.6511 34.7998 33.6353 34.8435 33.5155Z" fill="#CDE4F3" fill-opacity="0.0784314"/>
</svg>
