<svg width="65" height="65" viewBox="0 0 65 65" fill="none" xmlns="http://www.w3.org/2000/svg">
<rect width="65" height="65" rx="32.5" fill="#4B9F24"/>
<path d="M49.3828 49.875C49.3401 49.875 49.2973 49.8705 49.2546 49.8604C47.0541 49.3496 45.6996 47.7926 44.5048 46.419C43.4923 45.2557 42.6182 44.25 41.5078 44.25C41.1973 44.25 40.9453 43.998 40.9453 43.6875C40.9453 43.377 41.1973 43.125 41.5078 43.125C43.1312 43.125 44.2112 44.367 45.3542 45.681C46.4893 46.986 47.6638 48.336 49.5099 48.7646C49.8126 48.8344 50.0004 49.137 49.9307 49.4396C49.8699 49.6995 49.6382 49.875 49.3828 49.875Z" fill="white"/>
<path d="M34.6139 43.6865C32.6238 43.6865 30.7799 43.1071 28.8382 41.9169C28.5738 41.7549 28.4894 41.4084 28.6526 41.1429C28.8157 40.8785 29.1611 40.7941 29.4266 40.9573C32.2008 42.6571 34.7557 42.9744 37.9732 42.0226C38.2702 41.9326 38.5841 42.1048 38.6729 42.4018C38.7607 42.6999 38.5908 43.0126 38.2938 43.1015C36.9843 43.4896 35.7738 43.6865 34.6139 43.6865Z" fill="white"/>
<path d="M38.1726 35.0904C41.353 32.4073 46.2535 31.2801 49.5733 32.4703C49.8658 32.5749 50.0177 32.8967 49.9131 33.1903C49.8073 33.4828 49.4867 33.6324 49.1931 33.5301C46.2726 32.4816 41.749 33.5458 38.8982 35.9511C38.7913 36.0399 37.9341 35.2907 38.1726 35.0904Z" fill="white"/>
<path d="M25.1952 39.1875C25.0175 39.1875 24.842 39.1031 24.7328 38.9456C24.5551 38.6902 24.6181 38.3403 24.8735 38.1626L25.2087 37.9297C30.1126 34.5198 34.3493 31.5768 41.2692 36.4773C41.5223 36.6573 41.5831 37.0083 41.4031 37.2615C41.2231 37.5146 40.8721 37.5753 40.619 37.3953C34.3426 32.9482 30.7808 35.4243 25.8511 38.8522L25.5158 39.0862C25.418 39.1548 25.3055 39.1875 25.1952 39.1875Z" fill="white"/>
<path d="M26.9921 37.9431C26.9324 37.9431 26.8706 37.9341 26.8109 37.9127C26.5162 37.8126 26.3598 37.4931 26.4599 37.1995C27.3172 34.684 27.6716 31.8467 27.9832 29.3436C28.3207 26.6436 28.6121 24.3115 29.4367 22.8344C29.5874 22.5621 29.9294 22.4654 30.2017 22.6172C30.4728 22.768 30.5707 23.1111 30.4188 23.3822C29.7011 24.6681 29.4221 26.899 29.1003 29.482C28.7808 32.0391 28.4197 34.9371 27.5253 37.5617C27.4443 37.7957 27.2261 37.9431 26.9921 37.9431Z" fill="white"/>
<path d="M33.0704 49.3125C26.3328 49.3125 19.8415 45.2017 17.3969 43.6537C16.3507 42.9911 15.9524 41.6929 16.3327 40.1809C16.3912 39.948 16.4238 39.4676 16.462 38.913C16.5723 37.3054 16.7579 34.6144 17.9392 32.1911C19.1789 29.6486 21.3817 26.556 23.5113 23.5657C24.9682 21.5205 26.344 19.5889 27.244 18.0555C27.9438 16.8641 29.2387 16.125 30.6247 16.125H36.7953C37.4264 16.125 37.999 16.4737 38.2904 17.034L39.9667 20.2537C40.2873 20.868 40.2029 21.6049 39.7518 22.1314L38.7055 23.3509C37.4253 24.8449 35.209 25.1588 33.5519 24.0799C32.6755 23.5106 30.7597 22.0785 30.0014 21.3934C29.7708 21.1853 29.7528 20.8298 29.9609 20.5991C30.169 20.3674 30.5245 20.3505 30.7552 20.5586C31.4662 21.1999 33.3382 22.5994 34.165 23.1371C35.3508 23.9111 36.9359 23.6872 37.8505 22.6196L38.8968 21.4001C39.0464 21.2246 39.0745 20.9783 38.9677 20.7746L37.2903 17.5538C37.1947 17.3659 37.0045 17.25 36.7953 17.25H30.6247C29.6369 17.25 28.7133 17.7765 28.2149 18.6236C27.289 20.1997 25.8997 22.1516 24.4282 24.2171C22.3244 27.1702 20.1498 30.2246 18.9505 32.6839C17.866 34.9091 17.6973 37.365 17.5848 38.9884C17.5398 39.6476 17.5072 40.1235 17.4239 40.4543C17.3283 40.8356 17.0864 42.1249 17.9988 42.7031C20.3669 44.2027 26.659 48.1875 33.0693 48.1875C39.1544 48.1875 44.5859 45.6427 44.641 45.6169C44.9223 45.4841 45.2564 45.6034 45.3903 45.8835C45.5242 46.1636 45.4038 46.5 45.1237 46.6327C44.893 46.7419 39.4053 49.3125 33.0704 49.3125Z" fill="white"/>
</svg>
