<svg width="97" height="97" viewBox="0 0 97 97" fill="none" xmlns="http://www.w3.org/2000/svg">
<mask id="mask0_595_4838" style="mask-type:luminance" maskUnits="userSpaceOnUse" x="3" y="3" width="91" height="91">
<path d="M48.4995 3.23779C73.505 3.23779 93.7618 23.5112 93.7618 48.5C93.7618 73.5055 73.4884 93.7623 48.4995 93.7623C23.4941 93.7623 3.2373 73.4889 3.2373 48.5C3.2373 23.4946 23.4941 3.23779 48.4995 3.23779Z" fill="white"/>
</mask>
<g mask="url(#mask0_595_4838)">
<path d="M48.5 93.7622C23.5111 93.7622 3.23776 73.4889 3.23776 48.5C3.23776 23.5111 23.5111 3.23776 48.5 3.23776C73.4889 3.23776 93.7622 23.5111 93.7622 48.5C93.7456 73.4723 73.4723 93.7456 48.5 93.7622ZM48.5 0C21.7179 0 0 21.7179 0 48.5C0 75.2821 21.7179 97 48.5 97C75.2821 97 97 75.2821 97 48.5C96.9668 21.7345 75.2655 0.0166039 48.5 0Z" fill="white"/>
</g>
<mask id="mask1_595_4838" style="mask-type:luminance" maskUnits="userSpaceOnUse" x="3" y="3" width="91" height="91">
<path d="M48.4995 3.23779C73.505 3.23779 93.7618 23.5112 93.7618 48.5C93.7618 73.5055 73.4884 93.7623 48.4995 93.7623C23.4941 93.7623 3.2373 73.4889 3.2373 48.5C3.2373 23.4946 23.4941 3.23779 48.4995 3.23779Z" fill="white"/>
</mask>
<g mask="url(#mask1_595_4838)">
<path d="M17.9479 72.3765C12.6015 65.5689 9.69577 57.1341 9.69577 48.4835C9.69577 47.4042 9.74558 46.325 9.8286 45.2623C10.4263 38.0396 13.083 31.149 17.4498 25.3708C17.4332 25.7361 17.4332 26.118 17.4332 26.4833C17.4332 34.1709 20.4551 41.543 25.8514 47.0057L34.5518 55.7062L17.9479 72.3765ZM45.2447 9.82958C46.324 9.74656 47.3866 9.69675 48.4493 9.69675C48.4659 9.69675 48.4825 9.69675 48.4991 9.69675C57.1165 9.69675 65.4849 12.5692 72.2925 17.8327L50.2757 39.9159L26.7978 16.4213C32.2605 12.6688 38.6364 10.3941 45.2447 9.82958ZM26.3329 30.2358L43.1692 47.0721L36.8598 53.4148L28.1593 44.7144C23.3774 39.8992 20.7042 33.3905 20.7042 26.5995C20.7042 24.6901 20.92 22.764 21.3351 20.9044C22.2483 20.0078 23.1947 19.1776 24.1744 18.3806L48.001 42.2238L45.444 44.7808L28.6242 27.961C28.3253 27.6788 27.9269 27.5127 27.4952 27.5127C26.5985 27.5127 25.8846 28.2433 25.8846 29.1233C25.8846 29.5384 26.0506 29.9369 26.3329 30.2358ZM74.6336 20.0908C75.2314 19.493 75.5635 18.6961 75.5635 17.8659C75.5635 17.7995 75.5635 17.733 75.5635 17.6666C75.5136 16.7866 75.0819 15.9564 74.3846 15.4085C66.9958 9.61372 57.8637 6.45898 48.4659 6.45898C25.2702 6.45898 6.45801 25.2712 6.45801 48.4669C6.45801 57.8647 9.61275 66.9968 15.4075 74.3856C15.9554 75.0829 16.769 75.5146 17.6656 75.5644H17.8483C18.6785 75.5644 19.4921 75.2324 20.0732 74.6346L74.6336 20.0908Z" fill="white"/>
</g>
<mask id="mask2_595_4838" style="mask-type:luminance" maskUnits="userSpaceOnUse" x="3" y="3" width="91" height="91">
<path d="M48.4995 3.23779C73.505 3.23779 93.7618 23.5112 93.7618 48.5C93.7618 73.5055 73.4884 93.7623 48.4995 93.7623C23.4941 93.7623 3.2373 73.4889 3.2373 48.5C3.2373 23.4946 23.4941 3.23779 48.4995 3.23779Z" fill="white"/>
</mask>
<g mask="url(#mask2_595_4838)">
<path d="M87.1538 51.7545C86.5893 58.4293 84.2813 64.8716 80.4458 70.3841C80.1968 69.9524 79.8813 69.5539 79.5326 69.2052L63.1944 52.867L57.0343 46.6903L79.0345 24.6237C84.3809 31.4313 87.2866 39.8661 87.2866 48.5334C87.3032 49.596 87.2534 50.6753 87.1538 51.7545ZM71.4299 79.6989C71.0148 79.6823 70.6329 79.5162 70.3506 79.2174C70.0684 78.8853 69.9023 78.4702 69.8857 78.0385C69.8857 77.6898 69.9854 77.3411 70.1846 77.0589C70.3506 76.7932 70.4503 76.4777 70.4503 76.1789C70.4503 75.7472 70.2842 75.3321 69.9854 75.0332L60.6706 65.7018C59.5747 64.6225 58.1468 63.9086 56.6192 63.6927L54.9256 63.4437L62.0819 56.304L77.2911 71.5132C77.7394 71.9615 77.9884 72.5758 77.9884 73.2068C77.9884 73.3728 77.9718 73.5222 77.9386 73.6883C75.996 75.9132 73.8043 77.9389 71.4299 79.6989ZM51.7377 87.1706C50.6584 87.2537 49.5792 87.3035 48.4999 87.3035C39.8659 87.3035 31.4809 84.4476 24.6401 79.2008L41.3104 62.464L44.5482 65.7184C45.6108 66.7811 47.0554 67.3788 48.5497 67.3788C49.7618 67.3788 50.9407 66.9969 51.9203 66.2829L56.1211 66.8807C56.9679 66.9969 57.7483 67.3954 58.3626 67.9931L66.8804 76.5275C66.7144 77.0257 66.6314 77.5404 66.6314 78.0551C66.6314 79.2838 67.0797 80.4627 67.8933 81.3759C68.0261 81.5253 68.1755 81.6581 68.3416 81.7744C63.3106 84.8129 57.6155 86.6725 51.7377 87.1706ZM50.3429 63.3939L50.3263 63.4105C49.8614 63.8754 49.2305 64.1244 48.5829 64.1244C47.9354 64.1244 47.3044 63.8754 46.8395 63.4105L43.6018 60.1561L49.9278 53.8134L50.592 54.4776C50.8909 54.7764 51.2894 54.9259 51.7211 54.9259C52.6177 54.9259 53.3316 54.1953 53.3316 53.3153C53.3316 52.9002 53.1656 52.5017 52.8833 52.1862L52.2192 51.5221L54.7762 48.9485L59.774 53.9794L50.3429 63.3939ZM76.9092 22.3656L22.3654 76.9094C21.7676 77.5072 21.4355 78.3042 21.4355 79.1344C21.4355 79.2008 21.4355 79.2672 21.4355 79.3336C21.4854 80.2136 21.9171 81.0438 22.6144 81.5917C29.9866 87.3699 39.1021 90.5246 48.4667 90.5246C48.4833 90.5246 48.4999 90.5246 48.5331 90.5246C49.6788 90.5246 50.8411 90.4748 52.0033 90.3752C73.771 88.5654 90.541 70.3675 90.541 48.5168C90.541 39.1189 87.3863 30.0034 81.5915 22.6147C81.0436 21.9173 80.23 21.4856 79.3334 21.4358C79.2669 21.4358 79.2005 21.4358 79.1341 21.4358C78.3039 21.4358 77.4903 21.7679 76.9092 22.3656Z" fill="white"/>
</g>
</svg>
