<svg width="82" height="82" viewBox="0 0 82 82" fill="none" xmlns="http://www.w3.org/2000/svg">
<g clip-path="url(#clip0_595_4882)">
<mask id="mask0_595_4882" style="mask-type:luminance" maskUnits="userSpaceOnUse" x="0" y="0" width="82" height="82">
<path d="M41 0C63.6508 0 82 18.3643 82 41C82 63.6508 63.6357 82 41 82C18.3643 82 0 63.6508 0 41C0 18.3643 18.3643 0 41 0Z" fill="white"/>
</mask>
<g mask="url(#mask0_595_4882)">
<path d="M62.8382 66.674C60.8228 66.674 59.1984 65.0496 59.1984 63.0342C59.1984 61.0188 60.8228 59.3944 62.8382 59.3944C64.8536 59.3944 66.4779 61.0188 66.4779 63.0342C66.4779 65.0496 64.8536 66.674 62.8382 66.674ZM62.8382 57.5745H59.0781L54.6412 23.839V13.8823H52.8213V23.8992L57.2432 57.5745H53.7237V59.3944H57.3635V63.0342C57.3635 66.0573 59.8151 68.4938 62.8231 68.4938C65.8462 68.4938 68.2828 66.0423 68.2828 63.0342C68.2978 60.0111 65.8613 57.5745 62.8382 57.5745Z" fill="white"/>
</g>
<mask id="mask1_595_4882" style="mask-type:luminance" maskUnits="userSpaceOnUse" x="0" y="0" width="82" height="82">
<path d="M41 0C63.6508 0 82 18.3643 82 41C82 63.6508 63.6357 82 41 82C18.3643 82 0 63.6508 0 41C0 18.3643 18.3643 0 41 0Z" fill="white"/>
</mask>
<g mask="url(#mask1_595_4882)">
<path d="M42.8196 66.674C40.8042 66.674 39.1798 65.0496 39.1798 63.0342C39.1798 61.0188 40.8042 59.3944 42.8196 59.3944C44.835 59.3944 46.4594 61.0188 46.4594 63.0342C46.4594 65.0496 44.835 66.674 42.8196 66.674ZM52.8365 13.8823H51.0166V23.839L46.5797 57.5745H42.8346C39.8115 57.5745 37.375 60.0261 37.375 63.0342C37.375 66.0573 39.8266 68.4938 42.8346 68.4938C45.8578 68.4938 48.2943 66.0423 48.2943 63.0342V59.3944H51.9341V57.5745H48.4146L52.8365 24.0195V13.8823Z" fill="white"/>
</g>
<mask id="mask2_595_4882" style="mask-type:luminance" maskUnits="userSpaceOnUse" x="0" y="0" width="82" height="82">
<path d="M41 0C63.6508 0 82 18.3643 82 41C82 63.6508 63.6357 82 41 82C18.3643 82 0 63.6508 0 41C0 18.3643 18.3643 0 41 0Z" fill="white"/>
</mask>
<g mask="url(#mask2_595_4882)">
<path d="M33.7204 66.674H31.9005V35.736H33.7204V66.674ZM30.0806 28.4414V24.4858C30.0806 22.2749 30.7123 20.1241 31.9005 18.2591V28.4414H30.0806ZM33.7204 33.9011V13.5063L32.1712 15.0555C29.6595 17.5522 28.2607 20.9513 28.2607 24.4858V30.2613H31.9005V33.9011H30.0806V68.4788H35.5403V33.9011H33.7204Z" fill="white"/>
</g>
<mask id="mask3_595_4882" style="mask-type:luminance" maskUnits="userSpaceOnUse" x="0" y="0" width="82" height="82">
<path d="M41 0C63.6508 0 82 18.3643 82 41C82 63.6508 63.6357 82 41 82C18.3643 82 0 63.6508 0 41C0 18.3643 18.3643 0 41 0Z" fill="white"/>
</mask>
<g mask="url(#mask3_595_4882)">
<path d="M43.467 32.7428C43.0459 34.0212 42.8203 35.3598 42.8203 36.6984V53.9196H41.0004V36.6984C41.0004 35.3448 40.7898 34.0212 40.3537 32.7428C39.6317 30.5469 39.6317 28.1705 40.3537 25.9746C40.7748 24.6962 41.0004 23.3576 41.0004 22.019V18.8906L42.8203 17.5219V22.004C42.8203 23.3576 43.0308 24.6812 43.467 25.9596C44.189 28.1705 44.189 30.5469 43.467 32.7428ZM45.1816 25.4031C44.8207 24.3051 44.6402 23.1621 44.6402 22.019V13.8972L39.1805 17.9882V22.019C39.1805 23.1621 39 24.3051 38.6391 25.4031C37.7818 27.975 37.7818 30.7575 38.6391 33.3143C39 34.4123 39.1805 35.5553 39.1805 36.6984V55.7395H44.6402V36.6984C44.6402 35.5403 44.8207 34.3972 45.1816 33.3143C46.0389 30.7424 46.0389 27.975 45.1816 25.4031Z" fill="white"/>
</g>
<mask id="mask4_595_4882" style="mask-type:luminance" maskUnits="userSpaceOnUse" x="0" y="0" width="82" height="82">
<path d="M41 0C63.6508 0 82 18.3643 82 41C82 63.6508 63.6357 82 41 82C18.3643 82 0 63.6508 0 41C0 18.3643 18.3643 0 41 0Z" fill="white"/>
</mask>
<g mask="url(#mask4_595_4882)">
<path d="M64.6585 39.3755H62.8386V25.5234L59.4244 17.8528L60.6276 17.0557L64.6585 25.9144V39.3755ZM64.6585 43.0153H62.8386V41.1954H64.6585V43.0153ZM64.6585 46.6551H62.8386V44.8352H64.6585V46.6551ZM64.6585 53.9346H62.8386V48.4749H64.6585V53.9346ZM61.4097 14.3484L57.1533 17.191L61.0337 25.8994V55.7394H66.4934V25.5083L61.4097 14.3484Z" fill="white"/>
</g>
<mask id="mask5_595_4882" style="mask-type:luminance" maskUnits="userSpaceOnUse" x="0" y="0" width="82" height="82">
<path d="M41 0C63.6508 0 82 18.3643 82 41C82 63.6508 63.6357 82 41 82C18.3643 82 0 63.6508 0 41C0 18.3643 18.3643 0 41 0Z" fill="white"/>
</mask>
<g mask="url(#mask5_595_4882)">
<path d="M42.8199 26.6213H41V28.4412H42.8199V26.6213Z" fill="white"/>
</g>
<mask id="mask6_595_4882" style="mask-type:luminance" maskUnits="userSpaceOnUse" x="0" y="0" width="82" height="82">
<path d="M41 0C63.6508 0 82 18.3643 82 41C82 63.6508 63.6357 82 41 82C18.3643 82 0 63.6508 0 41C0 18.3643 18.3643 0 41 0Z" fill="white"/>
</mask>
<g mask="url(#mask6_595_4882)">
<path d="M42.8199 30.2612H41V32.0811H42.8199V30.2612Z" fill="white"/>
</g>
<mask id="mask7_595_4882" style="mask-type:luminance" maskUnits="userSpaceOnUse" x="0" y="0" width="82" height="82">
<path d="M41 0C63.6508 0 82 18.3643 82 41C82 63.6508 63.6357 82 41 82C18.3643 82 0 63.6508 0 41C0 18.3643 18.3643 0 41 0Z" fill="white"/>
</mask>
<g mask="url(#mask7_595_4882)">
<path d="M21.8834 13.8823H20.0635V30.2613H21.8834V13.8823Z" fill="white"/>
</g>
<mask id="mask8_595_4882" style="mask-type:luminance" maskUnits="userSpaceOnUse" x="0" y="0" width="82" height="82">
<path d="M41 0C63.6508 0 82 18.3643 82 41C82 63.6508 63.6357 82 41 82C18.3643 82 0 63.6508 0 41C0 18.3643 18.3643 0 41 0Z" fill="white"/>
</mask>
<g mask="url(#mask8_595_4882)">
<path d="M16.4239 48.475H25.5233C27.0273 48.475 28.2606 47.2567 28.2606 45.7377C28.2606 44.2336 27.0424 43.0003 25.5233 43.0003H16.4239C15.9275 43.0003 15.5214 42.5942 15.5214 42.0828C15.5214 41.5715 15.9275 41.1654 16.4239 41.1654H25.5233C27.0273 41.1654 28.2606 39.9471 28.2606 38.428C28.2606 36.924 27.0424 35.6907 25.5233 35.6907H22.7859C22.2896 35.6907 21.8685 35.2846 21.8685 34.7732V32.0359H20.0486V34.7732C20.0486 36.2773 21.2669 37.5106 22.7859 37.5106H25.5233C26.0196 37.5106 26.4407 37.9167 26.4407 38.428C26.4407 38.9394 26.0347 39.3455 25.5233 39.3455H16.4239C14.9198 39.3455 13.6865 40.5638 13.6865 42.0828C13.6865 43.5869 14.9048 44.8202 16.4239 44.8202H25.5233C26.0196 44.8202 26.4407 45.2263 26.4407 45.7377C26.4407 46.234 26.0347 46.6551 25.5233 46.6551H16.4239C14.9198 46.6551 13.6865 47.8734 13.6865 49.3925C13.6865 50.8965 14.9048 52.1298 16.4239 52.1298H25.5233C26.0196 52.1298 26.4407 52.5359 26.4407 53.0473C26.4407 53.5586 26.0347 53.9647 25.5233 53.9647H16.4239C14.9198 53.9647 13.6865 55.183 13.6865 56.7021C13.6865 58.2061 14.9048 59.4394 16.4239 59.4394H25.5233C26.0196 59.4394 26.4407 59.8455 26.4407 60.3569C26.4407 60.8682 26.0347 61.2743 25.5233 61.2743H16.4239C14.9198 61.2743 13.6865 62.4926 13.6865 64.0117C13.6865 65.5308 14.9048 66.749 16.4239 66.749H25.5233C26.0196 66.749 26.4407 67.1551 26.4407 67.6665V68.5839H28.2606V67.6665C28.2606 66.1625 27.0424 64.9291 25.5233 64.9291H16.4239C15.9275 64.9291 15.5214 64.5231 15.5214 64.0117C15.5214 63.5003 15.9275 63.0942 16.4239 63.0942H25.5233C27.0273 63.0942 28.2606 61.8759 28.2606 60.3569C28.2606 58.8528 27.0424 57.6195 25.5233 57.6195H16.4239C15.9275 57.6195 15.5214 57.2134 15.5214 56.7021C15.5214 56.1907 15.9275 55.7846 16.4239 55.7846H25.5233C27.0273 55.7846 28.2606 54.5663 28.2606 53.0473C28.2606 51.5432 27.0424 50.3099 25.5233 50.3099H16.4239C15.9275 50.3099 15.5214 49.9038 15.5214 49.3925C15.5214 48.8811 15.9275 48.475 16.4239 48.475Z" fill="white"/>
</g>
</g>
<defs>
<clipPath id="clip0_595_4882">
<rect width="82" height="82" fill="white"/>
</clipPath>
</defs>
</svg>
