<svg width="184" height="184" viewBox="0 0 184 184" fill="none" xmlns="http://www.w3.org/2000/svg">
<g clip-path="url(#clip0_446_10745)">
<path d="M96.5885 89C96.3227 88.9483 96.0492 88.9494 95.7838 89.0034C95.5183 89.0574 95.2661 89.1631 95.0416 89.3146C94.817 89.466 94.6245 89.6602 94.475 89.886C94.3254 90.1119 94.2219 90.365 94.1702 90.6309C94.1185 90.8967 94.1196 91.1702 94.1736 91.4356C94.2276 91.7011 94.3333 91.9532 94.4848 92.1778C94.6362 92.4024 94.8304 92.5949 95.0562 92.7444C95.2821 92.894 95.5352 92.9975 95.8011 93.0492L98.6642 93.606C99.2012 93.7105 99.7576 93.5973 100.211 93.2915C100.665 92.9856 100.978 92.5121 101.083 91.9752C101.187 91.4382 101.074 90.8817 100.768 90.4282C100.462 89.9747 99.9887 89.6612 99.4517 89.5568L96.5885 89Z" fill="white" fill-opacity="0.5"/>
<path d="M87.3299 95.2443L86.7731 98.1075C86.7214 98.3733 86.7225 98.6468 86.7765 98.9122C86.8305 99.1776 86.9362 99.4298 87.0876 99.6544C87.2391 99.879 87.4333 100.072 87.6591 100.221C87.885 100.371 88.1381 100.474 88.4039 100.526C88.6698 100.578 88.9433 100.576 89.2087 100.522C89.4741 100.468 89.7263 100.363 89.9509 100.211C90.1755 100.06 90.368 99.8656 90.5175 99.6398C90.667 99.4139 90.7706 99.1608 90.8223 98.8949L91.3791 96.0318C91.4835 95.4948 91.3704 94.9383 91.0645 94.4848C90.7587 94.0313 90.2852 93.7178 89.7482 93.6134C89.2113 93.509 88.6548 93.6221 88.2013 93.928C87.7478 94.2338 87.4343 94.7073 87.3299 95.2443Z" fill="white" fill-opacity="0.5"/>
<path d="M170.455 100.713L145.117 110.44L141.984 110.457C141.618 107.82 140.653 105.301 139.162 103.095C137.178 100.146 136.445 96.5307 137.123 93.0417C137.802 89.5527 139.837 86.4754 142.781 84.4848L153.896 76.9891C154.35 76.6833 154.663 76.2098 154.768 75.6728C154.872 75.1359 154.759 74.5794 154.453 74.1259C154.147 73.6724 153.674 73.359 153.137 73.2545C152.6 73.1501 152.043 73.2633 151.59 73.5691L140.475 81.0648C136.624 83.6679 133.963 87.6921 133.076 92.2546C132.189 96.8171 133.148 101.545 135.742 105.402C136.776 106.932 137.48 108.661 137.81 110.479L131.543 110.512L125.187 103.485C125.151 101.913 124.968 100.347 124.64 98.8086C125.755 89.7988 123.709 80.6814 118.852 73.0117C120.519 71.3145 121.55 69.0935 121.769 66.7241C121.989 64.3548 121.383 61.9824 120.055 60.0078L117.749 56.5878C116.418 54.6194 114.449 53.1702 112.174 52.4843C109.899 51.7985 107.457 51.9179 105.259 52.8226L102.837 49.2306C97.957 41.9945 90.6474 37.3411 82.2554 36.1277C74.1242 34.9479 65.575 37.044 58.1792 42.0315C50.7835 47.019 45.6383 54.1582 43.6823 62.1399C41.6637 70.3777 43.2386 78.8984 48.117 86.1323L50.5394 89.7244C48.8772 91.4225 47.8512 93.6417 47.6344 96.0081C47.4176 98.3744 48.0233 100.743 49.3493 102.715L51.6557 106.135C52.9887 108.106 54.9613 109.556 57.2401 110.241C59.5189 110.926 61.9642 110.803 64.1628 109.893C69.453 117.27 77.1392 122.584 85.91 124.927C87.2135 125.808 88.5966 126.564 90.041 127.187L94.1737 135.713L89.0194 148.271L70.5059 168.117C70.1879 168.458 69.9948 168.897 69.9582 169.362C69.9215 169.826 70.0436 170.29 70.3043 170.677L73.7639 175.807C74.0697 176.26 74.5432 176.574 75.0801 176.678C75.6171 176.782 76.1735 176.669 76.627 176.363L175.807 109.479C176.26 109.173 176.574 108.7 176.678 108.163C176.783 107.626 176.669 107.069 176.364 106.616L172.904 101.486C172.643 101.099 172.259 100.812 171.814 100.672C171.37 100.532 170.891 100.546 170.455 100.713ZM107.647 56.3636C108.886 56.0443 110.193 56.1161 111.389 56.5692C112.586 57.0223 113.613 57.8344 114.329 58.8942L116.635 62.3142C117.349 63.3756 117.718 64.632 117.689 65.9109C117.661 67.1898 117.238 68.4286 116.477 69.4575L107.647 56.3636ZM61.7576 106.359C60.5188 106.679 59.2116 106.607 58.0153 106.154C56.819 105.701 55.7921 104.888 55.0757 103.829L52.7693 100.409C52.0553 99.3472 51.6872 98.0909 51.7155 96.812C51.7438 95.533 52.1671 94.2942 52.9274 93.2654L61.7576 106.359ZM137.914 114.603C137.614 116.963 136.689 119.201 135.237 121.087C133.784 122.972 131.855 124.436 129.649 125.328C127.443 126.221 125.039 126.509 122.684 126.164C120.329 125.819 118.109 124.853 116.251 123.366C120.605 119.704 123.582 114.669 124.694 109.09L129.102 113.964C129.297 114.179 129.535 114.35 129.8 114.467C130.066 114.584 130.353 114.644 130.643 114.642L137.914 114.603ZM114.408 73.7669L114.81 74.3632C117.785 78.772 119.719 83.799 120.466 89.0646C117.117 83.6925 112.572 79.1661 107.187 75.838C109.053 74.0842 110.565 71.9889 111.642 69.6654L114.408 73.7669ZM51.537 83.826C47.3171 77.5685 45.9506 70.2154 47.6887 63.1216C49.4003 56.1378 53.9449 49.8624 60.4856 45.4515C67.0263 41.0406 74.549 39.1782 81.664 40.2101C88.8908 41.255 95.1958 45.2777 99.4169 51.5369L108.814 65.471L108.602 66.1316C107.648 69.0981 105.84 71.7174 103.405 73.6618L103.293 73.5988C99.7216 71.5828 95.6588 70.6012 91.5605 70.7641C87.4622 70.9271 83.4902 72.2281 80.0896 74.5213C76.689 76.8146 73.9942 80.0095 72.3072 83.7481C70.6202 87.4867 70.0076 91.6211 70.5381 95.6883L70.5546 95.8155C67.8392 97.3445 64.7333 98.0388 61.6254 97.8118L60.9338 97.7601L51.537 83.826ZM78.442 117.405C73.8397 114.739 69.9034 111.062 66.9305 106.652L63.7625 101.954C66.3202 101.827 68.8297 101.21 71.1551 100.137C72.2227 106.377 74.7164 112.287 78.442 117.405ZM74.9872 97.8983L74.6294 95.1544C74.1981 91.8469 74.6964 88.4846 76.0683 85.4443C77.4403 82.404 79.6318 79.8058 82.3972 77.9409C85.1627 76.076 88.3928 75.0179 91.7257 74.8854C95.0585 74.7528 98.3625 75.551 101.267 77.1904L103.677 78.5505C110.412 82.3365 115.796 88.1302 119.08 95.1233C121.075 99.3506 121.606 104.122 120.589 108.684C119.571 113.246 117.064 117.34 113.463 120.32L112.936 119.538C113.317 119.281 113.601 118.904 113.744 118.466C113.886 118.029 113.878 117.556 113.721 117.124L111.237 110.284C111.652 109.609 111.864 108.83 111.848 108.038C111.832 107.246 111.588 106.476 111.146 105.819L105.381 97.2686C105.075 96.8151 104.601 96.5017 104.064 96.3972C103.527 96.2928 102.971 96.406 102.517 96.7118L92.2574 103.631C91.8039 103.937 91.4904 104.41 91.386 104.947C91.2816 105.484 91.3947 106.041 91.7006 106.494L97.4665 115.044C97.9102 115.7 98.5332 116.214 99.2612 116.526C99.9892 116.837 100.791 116.933 101.572 116.801L106.983 121.668C107.325 121.975 107.76 122.16 108.219 122.192C108.678 122.224 109.134 122.102 109.516 121.844L110.043 122.626C105.931 124.848 101.196 125.638 96.5855 124.871C91.975 124.104 87.751 121.824 84.5797 118.391C79.3264 112.726 75.9726 105.562 74.9862 97.899L74.9872 97.8983ZM100.886 112.738L96.2737 105.898L103.114 101.285L107.728 108.124L100.886 112.738ZM107.843 113.022L109.294 117.018L108.544 117.524L105.383 114.681L107.843 113.022ZM171.79 107.212L76.0307 171.79L74.6417 169.731L92.2938 150.81C92.4637 150.628 92.5992 150.416 92.6937 150.186L98.3409 136.427C98.4511 136.159 98.5034 135.87 98.4944 135.58C98.4855 135.29 98.4155 135.005 98.2889 134.744L95.4223 128.831C101.383 129.963 107.552 128.893 112.782 125.818C115.183 128.022 118.151 129.512 121.353 130.122C124.554 130.731 127.862 130.435 130.905 129.268C133.948 128.101 136.605 126.108 138.577 123.514C140.55 120.919 141.759 117.826 142.07 114.582L145.516 114.564C145.765 114.562 146.012 114.516 146.244 114.427L170.401 105.153L171.79 107.212Z" fill="white" fill-opacity="0.5"/>
<path d="M90.0301 115.084C90.4837 114.778 90.7971 114.305 90.9015 113.768C91.006 113.231 90.8928 112.674 90.587 112.221L86.2803 105.835C84.7443 103.551 83.7581 100.943 83.399 98.2144L83.3261 97.6578C82.7254 92.9952 83.9942 88.2844 86.8552 84.5541C91.3859 83.2995 96.229 83.8889 100.327 86.1934L100.815 86.4691C103.21 87.8247 105.259 89.7165 106.8 91.9964L111.107 98.3826C111.413 98.8361 111.886 99.1496 112.423 99.254C112.96 99.3584 113.517 99.2453 113.97 98.9394C114.424 98.6336 114.737 98.1601 114.841 97.6231C114.946 97.0862 114.833 96.5298 114.527 96.0762L110.22 89.69C108.32 86.8797 105.795 84.5476 102.843 82.8766L102.354 82.601C99.7421 81.1319 96.8569 80.2137 93.8765 79.9031C90.896 79.5925 87.8835 79.8962 85.025 80.7953C84.6459 80.9151 84.3095 81.142 84.0563 81.4486C82.1514 83.7618 80.7409 86.4409 79.9118 89.3204C79.0828 92.2 78.8527 95.219 79.2359 98.1909L79.3085 98.7477C79.7512 102.111 80.9669 105.326 82.8603 108.141L87.167 114.527C87.4728 114.981 87.9463 115.294 88.4832 115.399C89.0202 115.503 89.5766 115.39 90.0301 115.084Z" fill="white" fill-opacity="0.5"/>
</g>
<defs>
<clipPath id="clip0_446_10745">
<rect width="132" height="132" fill="white" transform="translate(0 73.8037) rotate(-33.9948)"/>
</clipPath>
</defs>
</svg>
