<svg width="187" height="187" viewBox="0 0 187 187" fill="none" xmlns="http://www.w3.org/2000/svg">
<g opacity="0.5" clip-path="url(#clip0_446_10787)">
<path d="M71.8784 121.073C89.224 135.843 115.258 133.754 130.028 116.409C144.797 99.0631 142.709 73.0287 125.364 58.2592C108.018 43.4897 81.9835 45.578 67.214 62.9236C52.4445 80.2692 54.5328 106.304 71.8784 121.073Z" stroke="white" stroke-width="4" stroke-linecap="round" stroke-linejoin="round"/>
<path d="M79.971 30.4435C84.741 34.5051 91.9005 33.9308 95.9621 29.1608C100.024 24.3907 99.4494 17.2312 94.6794 13.1696C89.9094 9.10802 82.7499 9.68231 78.6883 14.4523C74.6267 19.2224 75.201 26.3819 79.971 30.4435Z" stroke="white" stroke-width="4" stroke-linecap="round" stroke-linejoin="round"/>
<path d="M154.739 75.2595C152.481 73.7059 149.871 72.7387 147.145 72.445" stroke="white" stroke-width="4" stroke-linecap="round" stroke-linejoin="round"/>
<path d="M141.881 113.35C145.388 113.846 148.961 113.583 152.358 112.579C155.755 111.576 158.897 109.855 161.572 107.533C164.247 105.21 166.392 102.341 167.863 99.1183C169.333 95.8958 170.095 92.3951 170.096 88.8529C170.097 85.3107 169.338 81.8095 167.87 78.5858C166.402 75.3622 164.259 72.4912 161.586 70.1669C158.913 67.8426 155.773 66.1191 152.376 65.113C148.98 64.1068 145.407 63.8414 141.9 64.3347" stroke="white" stroke-width="4" stroke-linecap="round" stroke-linejoin="round"/>
<path d="M39.7304 77.2701C34.5756 79.088 30.3447 82.8636 27.9542 87.779" stroke="white" stroke-width="4" stroke-linecap="round" stroke-linejoin="round"/>
<path d="M52.2494 68.4663C47.7562 67.5578 43.1112 67.7322 38.6988 68.975C34.2863 70.2178 30.2332 72.4934 26.8746 75.6133C23.5161 78.7333 20.9486 82.6081 19.3846 86.9172C17.8206 91.2263 17.3051 95.8458 17.8806 100.394C18.4561 104.941 20.1061 109.287 22.6941 113.071C25.2822 116.854 28.734 119.967 32.7638 122.152C36.7937 124.337 41.2859 125.532 45.8688 125.636C50.4518 125.741 54.9937 124.752 59.119 122.753" stroke="white" stroke-width="4" stroke-linecap="round" stroke-linejoin="round"/>
<path d="M88.2583 170.236C94.7629 175.775 104.526 174.991 110.064 168.487C115.603 161.982 114.82 152.219 108.315 146.681C101.811 141.142 92.0477 141.925 86.5091 148.43C80.9706 154.935 81.7537 164.697 88.2583 170.236Z" stroke="white" stroke-width="4" stroke-linecap="round" stroke-linejoin="round"/>
<path d="M92.7903 153.778C93.7117 152.699 94.9303 151.914 96.2944 151.522C97.6584 151.13 99.1076 151.148 100.462 151.574" stroke="white" stroke-width="4" stroke-linecap="round" stroke-linejoin="round"/>
<path d="M100.658 96.8175C98.5298 99.3164 95.4965 100.868 92.225 101.13C88.9534 101.393 85.7116 100.345 83.2127 98.2169C80.7139 96.0891 79.1626 93.0558 78.9001 89.7842C78.6377 86.5127 79.6857 83.2709 81.8134 80.772L92.5104 68.2092C94.6382 65.7103 97.6715 64.159 100.943 63.8966C104.215 63.6342 107.456 64.6821 109.955 66.8099C112.454 68.9376 114.005 71.971 114.268 75.2425C114.53 78.514 113.482 81.7558 111.355 84.2547L100.658 96.8175Z" stroke="white" stroke-width="4" stroke-linecap="round" stroke-linejoin="round"/>
<path d="M104.29 105.277C104.999 104.444 106.01 103.927 107.101 103.84C108.191 103.752 109.272 104.102 110.105 104.811C110.938 105.52 111.455 106.531 111.543 107.622C111.63 108.712 111.281 109.793 110.572 110.626C110.238 111.025 109.827 111.353 109.364 111.591C108.901 111.829 108.395 111.971 107.876 112.01L107.877 112.035L106.02 112.22L106.133 114.082L106.109 114.086C106.153 114.604 106.093 115.126 105.933 115.621C105.772 116.116 105.513 116.574 105.172 116.967C104.463 117.8 103.452 118.317 102.361 118.405C101.271 118.492 100.19 118.143 99.3572 117.433C98.5243 116.724 98.0072 115.713 97.9197 114.623C97.8322 113.532 98.1815 112.451 98.8908 111.618" stroke="white" stroke-width="4" stroke-linecap="round" stroke-linejoin="round"/>
<path d="M106.021 112.22L104.731 111.122" stroke="white" stroke-width="4" stroke-linecap="round" stroke-linejoin="round"/>
</g>
<defs>
<clipPath id="clip0_446_10787">
<rect width="132" height="132" fill="white" transform="translate(85.5762) rotate(40.4139)"/>
</clipPath>
</defs>
</svg>
