<svg width="133" height="133" viewBox="0 0 133 133" fill="none" xmlns="http://www.w3.org/2000/svg">
<g opacity="0.5">
<path d="M127.544 21.3677L111.574 5.30575C109.444 3.07888 105.273 2.79688 102.852 5.28057C100.278 7.37638 99.8156 11.8382 102.432 14.3955L105.599 17.5804L96.388 26.7384L88.7011 19.0074C87.0573 17.3548 84.3752 17.3466 82.7218 18.9904L76.9373 24.7419C75.4688 26.1804 75.1419 29.1437 77.0916 30.8935L18.0182 89.6298C15.9561 91.6802 15.7742 94.9174 17.4788 97.1769L17.6838 104.405C17.7443 106.535 18.4381 108.508 19.5813 110.147L3.88245 125.756C3.16125 126.474 3.15792 127.64 3.875 128.361C4.23342 128.721 4.70431 128.902 5.17547 128.904C5.64663 128.905 6.11855 128.727 6.47902 128.368L22.1781 112.759C23.81 113.911 25.7798 114.616 27.9088 114.689L35.1349 114.935C36.1285 115.696 37.3371 116.11 38.6101 116.114C40.148 116.118 41.5956 115.523 42.6862 114.439L89.1804 68.2101C89.9016 67.4928 89.9049 66.327 89.1878 65.6058C88.4707 64.8849 87.3047 64.8816 86.5838 65.5984L78.3082 73.8268L58.8341 54.2409L63.7519 49.351L69.5745 55.2073C69.933 55.5677 70.4038 55.7488 70.875 55.7502C71.3462 55.7515 71.8181 55.5731 72.1786 55.2147C72.8997 54.4974 72.9031 53.3316 72.186 52.6104L66.3634 46.7545L71.1032 42.0417L76.9261 47.8979C77.2845 48.2584 77.7554 48.4394 78.2265 48.4408C78.6977 48.4421 79.1696 48.2637 79.5301 47.9053C80.2513 47.188 80.2546 46.0222 79.5375 45.3011L73.7149 39.4451L79.6881 33.506L99.1624 53.0919L92.6916 59.5258C91.9704 60.2432 91.9671 61.4089 92.6842 62.1301C93.4013 62.8511 94.5673 62.8544 95.2882 62.1376L101.759 55.7034C103.187 57.2563 105.986 57.7526 107.91 55.8929L113.694 50.1413C115.1 48.7598 115.493 45.9499 113.711 44.1618L106.025 36.4311L110.423 32.0576C111.144 31.3403 111.148 30.1745 110.431 29.4533C109.714 28.7324 108.548 28.729 107.827 29.4459L103.428 33.8196L98.9845 29.3506L108.195 20.1926L118.402 30.4582C119.601 31.6637 121.179 32.2695 122.758 32.274C124.337 32.2786 125.918 31.682 127.124 30.4831C129.747 28.2925 130.111 23.9047 127.544 21.3677ZM40.0893 111.827C39.6964 112.218 39.1748 112.433 38.6206 112.431C38.0665 112.429 37.5461 112.212 37.1554 111.819C36.8248 111.487 36.3805 111.293 35.9121 111.277L28.0344 111.009C24.3981 110.885 21.4685 107.938 21.3653 104.301L21.1418 96.4219C21.1284 95.9536 20.9372 95.5079 20.6069 95.176C19.8002 94.3647 19.804 93.0482 20.6153 92.2418L24.35 88.5283L43.8243 108.114L40.0893 111.827ZM75.6965 76.4234L46.4358 105.517L26.9615 85.9313L49.2449 63.7749L55.0677 69.6312C55.4261 69.9916 55.897 70.1727 56.3682 70.174C56.8393 70.1754 57.3112 69.997 57.6717 69.6386C58.3929 68.9213 58.3962 67.7555 57.6792 67.0343L51.8566 61.1784L56.2221 56.8377L75.6965 76.4234ZM111.258 47.1443C111.258 47.2474 111.23 47.3976 111.097 47.5291L105.313 53.2807C105.1 53.4924 104.754 53.4919 104.542 53.2784L79.5314 28.1246C79.5134 27.9703 79.2032 28.025 79.5336 27.3539L85.3179 21.6023C85.4654 21.6359 85.2917 21.2587 86.0891 21.6045L111.1 46.7586C111.231 46.8908 111.258 47.0414 111.258 47.1443ZM124.922 27.4782L124.528 27.8709C123.556 28.8373 121.98 28.8325 121.014 27.8609L105.043 11.7986C104.177 10.9179 103.968 9.07197 105.448 7.89227C106.19 7.19097 107.686 6.7668 108.962 7.90257L124.933 23.9646C125.898 24.9359 125.894 26.5122 124.922 27.4782Z" fill="white"/>
<path d="M40.0498 38.3836C40.4082 38.744 40.8791 38.9251 41.3502 38.9265C41.8214 38.9278 42.2933 38.7494 42.6538 38.391C43.375 37.6737 43.3783 36.5079 42.6612 35.7868L38.4084 31.5096C37.6914 30.7886 36.5254 30.7853 35.8044 31.5021C35.0832 32.2195 35.0799 33.3852 35.797 34.1064L40.0498 38.3836Z" fill="white"/>
<path d="M50.5604 34.4883C51.5773 34.4912 52.4042 33.6693 52.4071 32.6521L52.4266 25.8212C52.4295 24.804 51.6074 23.9774 50.5904 23.9745C49.5735 23.9716 48.7467 24.7935 48.7438 25.8107L48.7242 32.6414C48.7213 33.6586 49.5434 34.4854 50.5604 34.4883Z" fill="white"/>
<path d="M30.0951 48.026L36.926 48.0455C37.943 48.0484 38.7698 47.2266 38.7727 46.2094C38.7756 45.1922 37.9535 44.3656 36.9365 44.3627L30.1056 44.3432C29.0886 44.3402 28.2618 45.1621 28.2589 46.1793C28.256 47.1965 29.0781 48.0231 30.0951 48.026Z" fill="white"/>
<path d="M48.3536 94.951C49.3962 94.954 50.2438 94.1112 50.2468 93.0685C50.2498 92.0259 49.407 91.1783 48.3644 91.1753C47.3218 91.1723 46.4741 92.0151 46.4712 93.0577C46.4682 94.1004 47.311 94.948 48.3536 94.951Z" fill="white"/>
<path d="M54.6314 88.906C55.674 88.909 56.5217 88.0662 56.5247 87.0236C56.5276 85.981 55.6848 85.1334 54.6422 85.1304C53.5996 85.1274 52.752 85.9702 52.749 87.0128C52.746 88.0554 53.5888 88.9031 54.6314 88.906Z" fill="white"/>
</g>
</svg>
