<svg width="165" height="165" viewBox="0 0 165 165" fill="none" xmlns="http://www.w3.org/2000/svg">
<g opacity="0.5" clip-path="url(#clip0_446_10761)">
<path d="M140.696 88.9941C139.783 88.3565 138.597 88.5138 137.948 89.4231C137.788 89.5735 137.75 89.7883 137.684 89.91C137.515 90.3683 133.721 101.897 135.901 109.066C137.317 113.721 142.214 116.301 146.92 114.87C151.626 113.439 154.258 108.57 152.842 103.914C150.436 96.0004 141.092 89.2807 140.696 88.9941ZM145.759 111.052C143.218 111.825 140.524 110.407 139.666 107.921C138.42 103.825 139.696 97.5374 140.549 93.9211C143.31 96.2349 147.69 100.497 149.078 105.059C149.748 107.602 148.3 110.28 145.759 111.052Z" fill="white"/>
<path d="M132.034 48.716L129.273 49.5557L121.995 25.6238C118.916 15.4987 108.481 9.62187 98.7238 12.589C88.6547 15.8522 83.138 26.4795 86.097 36.5405L89.456 47.5861L85.7742 48.7057C84.7617 49.0136 84.1852 50.094 84.4931 51.1065L93.4504 80.5612C93.7584 81.5737 94.8387 82.1502 95.8512 81.8423L99.533 80.7226L108.49 110.177C112.185 122.327 105.544 135.207 93.6696 138.818C81.7036 142.457 68.9797 135.668 65.3407 123.702L65.2288 123.333L69.8311 121.934C70.8436 121.626 71.4201 120.546 71.1122 119.533L69.6566 114.747C82.0591 109.567 88.8925 98.64 87.269 93.3013L70.5299 38.2578C68.7584 32.7631 62.8765 29.6244 57.3258 31.2119L52.7235 32.6114C48.9496 33.7591 45.5923 32.97 42.5672 32.281C39.9942 31.7562 37.6053 31.1755 35.3962 31.8473C33.1871 32.5191 31.5259 34.3315 29.6807 36.1999C27.5513 38.4564 25.2017 40.981 21.4279 42.1286L16.8256 43.5282C11.3308 45.2997 8.19213 51.1816 9.77958 56.7323L26.5746 111.96C28.1981 117.299 40.1502 122.211 53.0883 119.785L54.5439 124.572C54.8518 125.584 55.9321 126.161 56.9446 125.853L61.5469 124.453L61.6589 124.821C65.9136 138.812 80.7983 146.755 94.7893 142.5C108.688 138.273 116.483 123.233 112.172 109.058L103.215 79.6029L106.897 78.4833C107.909 78.1754 108.486 77.095 108.178 76.0825L99.2205 46.6278C98.9126 45.6153 97.8322 45.0388 96.8197 45.3467L93.1379 46.4664L89.7789 35.4209C87.4356 27.3849 91.7994 18.9182 99.8435 16.2708C107.575 13.9195 115.85 18.6434 118.313 26.7434L125.591 50.6754L122.83 51.5151C121.817 51.8231 121.241 52.9034 121.548 53.9159L125.467 66.8023C125.775 67.8148 126.856 68.3913 127.868 68.0834L130.629 67.2437L134.828 81.0506C135.136 82.0631 136.216 82.6396 137.229 82.3316C138.241 82.0237 138.818 80.9434 138.51 79.9309L134.311 66.124L137.073 65.2842C138.085 64.9763 138.662 63.896 138.354 62.8835L134.435 49.9971C134.127 48.9846 133.047 48.4081 132.034 48.716ZM36.5158 35.5291C37.7124 35.1652 39.5291 35.5178 41.5859 35.9984L32.6575 38.7136C34.0064 37.1973 35.3192 35.893 36.5158 35.5291ZM30.2564 110.84L13.4614 55.6127C12.4898 52.0869 14.4755 48.3658 17.9452 47.21L58.4454 34.8937C61.9712 33.9221 65.6924 35.9077 66.8481 39.3775L83.5871 94.421C84.5668 97.6426 78.1657 108.338 64.9111 112.369L55.7065 115.168C42.2678 119.255 31.1242 113.694 30.2564 110.84ZM57.6659 121.611L56.8261 118.85L66.0307 116.05L66.8705 118.812L57.6659 121.611ZM103.936 75.3613L96.5725 77.6006L88.7348 51.8277L96.0985 49.5884L103.936 75.3613ZM134.112 62.1622L128.589 63.8417L125.79 54.6371L131.313 52.9576L134.112 62.1622Z" fill="white"/>
<path d="M70.9611 79.3554L63.1234 53.5825C62.8155 52.57 61.7352 51.9935 60.7227 52.3014L25.7452 62.9383C24.7327 63.2462 24.1562 64.3265 24.4641 65.339L32.3018 91.1119C32.6097 92.1244 33.6901 92.7009 34.7026 92.393L69.68 81.7561C70.6925 81.4482 71.269 80.3679 70.9611 79.3554ZM66.7194 78.6341L35.4238 88.1513L28.7058 66.0603L60.0014 56.5431L66.7194 78.6341Z" fill="white"/>
<path d="M37.0275 73.5859L57.2776 67.4278C58.2901 67.1198 58.8666 66.0395 58.5587 65.027C58.2508 64.0145 57.1704 63.438 56.1579 63.7459L35.9078 69.9041C34.8953 70.212 34.3188 71.2923 34.6267 72.3048C34.9346 73.3173 36.015 73.8938 37.0275 73.5859Z" fill="white"/>
<path d="M39.2667 80.9492L50.3123 77.5902C51.3248 77.2823 51.9012 76.202 51.5933 75.1894C51.2854 74.1769 50.2051 73.6005 49.1926 73.9084L38.1471 77.2674C37.1346 77.5753 36.5581 78.6556 36.866 79.6681C37.1739 80.6806 38.2542 81.2571 39.2667 80.9492Z" fill="white"/>
</g>
<defs>
<clipPath id="clip0_446_10761">
<rect width="132" height="132" fill="white" transform="translate(0 38.4053) rotate(-16.9148)"/>
</clipPath>
</defs>
</svg>
