<svg width="171" height="171" viewBox="0 0 171 171" fill="none" xmlns="http://www.w3.org/2000/svg">
<g opacity="0.5" clip-path="url(#clip0_446_10754)">
<path d="M122.877 32.2269L93.4703 20.9356C89.4104 19.3767 84.8547 21.4045 83.2958 25.4645C82.0677 28.6629 83.0677 32.173 85.5342 34.2776L52.4406 120.466C48.8031 129.939 53.5356 140.571 63.0087 144.208C72.4818 147.846 83.1134 143.113 86.7509 133.64L119.845 47.4517C123.086 47.5387 126.178 45.5998 127.406 42.4014C128.965 38.3414 126.937 33.7858 122.877 32.2269ZM81.8473 131.757C79.2532 138.513 71.6472 141.899 64.8914 139.305C58.1357 136.711 54.7501 129.105 57.3441 122.349L65.8126 100.294L73.1643 103.117C74.5177 103.636 76.0341 102.958 76.5537 101.605C77.0734 100.252 76.3989 98.7363 75.0457 98.2167L67.694 95.3939L71.4581 85.5907L78.8098 88.4135C80.1632 88.9331 81.6797 88.2551 82.1994 86.9015C82.719 85.5483 82.0445 84.0329 80.6913 83.5133L73.3396 80.6905L77.1038 70.8871L101.607 80.2955L81.8473 131.757ZM103.488 75.3956L78.9852 65.9872L90.2765 36.5804L114.78 45.9888L103.488 75.3956ZM119.114 42.0267L89.7075 30.7354C88.3578 30.2172 87.6775 28.6956 88.1957 27.3459C88.7154 25.9925 90.2392 25.3173 91.5889 25.8355L120.996 37.1268C122.345 37.645 123.026 39.1666 122.506 40.52C121.988 41.8697 120.464 42.5449 119.114 42.0267Z" fill="white"/>
</g>
<defs>
<clipPath id="clip0_446_10754">
<rect width="132" height="132" fill="white" transform="translate(47.3159) rotate(21.0052)"/>
</clipPath>
</defs>
</svg>
