<svg width="54" height="54" viewBox="0 0 54 54" fill="none" xmlns="http://www.w3.org/2000/svg">
<mask id="mask0_589_4686" style="mask-type:luminance" maskUnits="userSpaceOnUse" x="0" y="0" width="54" height="54">
<path d="M0 3.8147e-06H54V54H0V3.8147e-06Z" fill="white"/>
</mask>
<g mask="url(#mask0_589_4686)">
<path d="M38.2392 11.1207C39.4054 15.9944 40.0634 20.9733 40.203 25.9812C40.244 27.4537 39.0495 28.6644 37.5765 28.6508C36.1771 28.6378 35.0391 27.5204 35.0001 26.1214C34.9613 24.7357 34.8798 23.3523 34.7559 21.9732" stroke="#13958F" stroke-width="2" stroke-miterlimit="10" stroke-linecap="round" stroke-linejoin="round"/>
<path d="M25.3292 34.9495L25.9414 37.3683C26.2849 38.7258 25.9667 40.1657 25.0832 41.2521L15.5736 52.9453L11.4375 49.4031L20.023 38.4974L16.7329 28.6508" stroke="#13958F" stroke-width="2" stroke-miterlimit="10" stroke-linecap="round" stroke-linejoin="round"/>
<path d="M44.668 4.86555C44.0758 2.23516 41.4635 0.582784 38.8331 1.17499L37.9671 1.36979C35.3367 1.9621 33.6843 4.57435 34.2765 7.20485C34.8686 9.83524 37.4811 11.4876 40.1115 10.8955L40.9775 10.7005C43.6079 10.1084 45.2602 7.49594 44.668 4.86555Z" stroke="#13958F" stroke-width="2" stroke-miterlimit="10" stroke-linecap="round" stroke-linejoin="round"/>
<path d="M33.5366 6.40158C33.95 6.79878 34.2356 7.33445 34.3141 7.94733C35.0607 13.7848 35.0944 19.6835 34.4165 25.52C34.2466 26.9832 32.8912 28.0105 31.4354 27.7864C30.0521 27.5735 29.0857 26.3048 29.2471 24.9146C29.6433 21.4995 29.7773 18.0616 29.6485 14.6293" stroke="#13958F" stroke-width="2" stroke-miterlimit="10" stroke-linecap="round" stroke-linejoin="round"/>
<path d="M29.5088 18.2781C27.8971 19.5107 26.5195 21.0364 25.4521 22.7844" stroke="#13958F" stroke-width="2" stroke-miterlimit="10" stroke-linecap="round" stroke-linejoin="round"/>
<path d="M28.9453 4.4784C30.6546 4.4823 32.3197 5.16278 33.5433 6.39392" stroke="#13958F" stroke-width="2" stroke-miterlimit="10" stroke-linecap="round" stroke-linejoin="round"/>
<path d="M14.3643 16.0137C16.0411 13.2674 18.1473 10.8274 20.5901 8.7801" stroke="#13958F" stroke-width="2" stroke-miterlimit="10" stroke-linecap="round" stroke-linejoin="round"/>
<path d="M14.364 16.0136C11.9461 19.9735 12.0015 25.1552 15.9852 28.0803L27.4946 36.3577L24.581 52.9453H30.8868L34.0923 36.5458C34.3846 35.0504 34.0053 33.5023 33.055 32.3113L25.4526 22.7844" stroke="#13958F" stroke-width="2" stroke-miterlimit="10" stroke-linecap="round" stroke-linejoin="round"/>
<path d="M25.4528 22.7844L14.3643 16.0136" stroke="#13958F" stroke-width="2" stroke-miterlimit="10" stroke-linecap="round" stroke-linejoin="round"/>
<path d="M11.7412 10.0061C12.0068 9.2096 12.6318 8.58449 13.4283 8.31903C14.2249 8.05346 14.8499 7.42855 15.1155 6.63195C15.3809 5.83534 16.0061 5.21023 16.8025 4.94487" stroke="#13958F" stroke-width="2" stroke-miterlimit="10" stroke-linecap="round" stroke-linejoin="round"/>
<path d="M9.21094 43.3309C9.47651 42.5343 10.1015 41.9093 10.898 41.6439C11.6945 41.3783 12.3196 40.7533 12.5852 39.9567C12.8507 39.1602 13.4758 38.5351 14.2723 38.2696" stroke="#13958F" stroke-width="2" stroke-miterlimit="10" stroke-linecap="round" stroke-linejoin="round"/>
</g>
</svg>
