<svg width="66" height="66" viewBox="0 0 66 66" fill="none" xmlns="http://www.w3.org/2000/svg">
<path d="M47.9771 36.4269C48.2309 36.8077 48.6117 37.0616 49.1194 37.0616C49.754 37.0616 50.2617 36.6808 50.3886 36.0462C51.404 30.2077 49.8809 23.4808 45.8194 19.0385C45.4386 18.6577 44.9309 18.5308 44.4232 18.6577C43.9155 18.7846 43.6617 19.2923 43.5348 19.8C43.154 24.1154 40.2348 27.6692 36.554 29.0654C35.9194 29.3192 35.6656 29.9539 35.7925 30.5885C35.9194 31.2231 36.554 31.6039 37.1886 31.4769C38.5848 31.2231 39.9809 31.35 41.504 31.7308C44.1694 32.2385 46.454 34.0154 47.9771 36.4269ZM41.3771 28.9385C43.2809 27.2885 44.6771 25.2577 45.5656 22.8462C47.2156 25.6385 48.104 29.1923 48.104 32.4923C46.3271 30.7154 44.0425 29.4462 41.3771 28.9385Z" fill="#13958F"/>
<path d="M38.3308 56.3538V62.1923C38.3308 62.9538 38.8385 63.4615 39.6 63.4615C40.3615 63.4615 40.8692 62.9538 40.8692 62.1923V56.3538C40.8692 52.5461 42.0116 49.1192 44.0423 46.5808C45.4385 44.8038 45.9462 42.5192 45.4385 40.2346C44.8039 37.8231 42.9 35.9192 40.4885 35.2846C38.8385 34.9038 37.1885 35.0308 35.6654 35.6654C34.1423 36.4269 32.3654 36.4269 30.7154 35.6654C29.1923 34.9038 27.5423 34.7769 25.8923 35.2846C23.4808 35.9192 21.5769 37.8231 20.9423 40.2346C20.4346 42.2654 20.8154 44.4231 21.9577 46.0731C24.2423 49.3731 25.5115 52.8 25.5115 56.2269V62.1923C25.5115 62.9538 26.0192 63.4615 26.7808 63.4615C27.5423 63.4615 28.05 62.9538 28.05 62.1923V56.2269C28.05 52.2923 26.6539 48.4846 24.1154 44.6769C23.3539 43.5346 23.1 42.2654 23.4808 40.8692C23.8615 39.3461 25.1308 38.2038 26.5269 37.8231C27.6692 37.5692 28.6846 37.5692 29.7 38.0769C29.8269 38.0769 29.9539 38.2038 30.0808 38.2038C31.6039 38.8384 32.6192 39.7269 33.2539 40.8692C33.5077 41.5038 34.2692 41.7577 34.9039 41.5038C35.5385 41.25 35.7923 40.4884 35.5385 39.8538C35.2846 39.4731 35.1577 39.0923 34.7769 38.7115C35.4115 38.5846 36.0462 38.3308 36.6808 38.0769C37.6962 37.5692 38.7115 37.5692 39.8539 37.8231C41.3769 38.2038 42.5192 39.4731 42.9 40.8692C43.2808 42.2654 43.0269 43.7884 42.0115 44.9308C39.7269 47.85 38.3308 51.9115 38.3308 56.3538Z" fill="#13958F"/>
<path d="M26.5271 41.3769C25.8925 41.7577 25.7655 42.5192 26.2732 43.1538C28.5578 46.4538 30.0809 50.0077 30.4617 53.4346C30.5886 54.0692 31.0963 54.5769 31.7309 54.5769C32.4925 54.5769 33.1271 53.9423 33.0002 53.1808C32.4925 49.2461 30.8425 45.4384 28.304 41.7577C27.9232 41.1231 27.1617 40.9961 26.5271 41.3769Z" fill="#13958F"/>
<path d="M13.454 17.8961C16.1194 20.5615 17.7694 23.8615 18.1502 27.0346C18.404 29.3192 19.6732 31.2231 21.704 32.4923C23.8617 33.7615 26.5271 33.7615 28.6848 32.4923C30.2078 31.6038 31.2232 30.3346 31.8578 28.8115C32.4925 27.1615 33.6348 25.8923 35.2848 25.3846C36.8078 24.8769 38.204 23.7346 39.0925 22.2115C40.3617 20.0538 40.3617 17.3885 39.0925 15.2308C37.9502 13.4538 36.3002 12.1846 34.2694 11.8038C30.2078 11.0423 27.0348 9.51922 24.6232 7.10768L20.4348 2.91922C19.9271 2.41153 19.1655 2.41153 18.6578 2.91922C18.1502 3.42691 18.1502 4.18845 18.6578 4.69614L22.8463 8.88461C25.6386 11.6769 29.3194 13.4538 33.7617 14.2154C35.0309 14.4692 36.1732 15.2308 36.8078 16.3731C37.5694 17.6423 37.5694 19.4192 36.8078 20.6884C36.3002 21.7038 35.4117 22.3385 34.3963 22.7192C34.2694 22.7192 34.1425 22.8461 34.0155 22.8461C33.0002 23.2269 31.3502 23.6077 29.8271 23.1C29.1925 22.8461 28.4309 23.2269 28.1771 23.8615C27.9232 24.4961 28.304 25.2577 28.9386 25.5115C29.3194 25.6385 29.8271 25.7654 30.3348 25.8923C29.8271 26.6538 29.4463 27.2885 29.1925 27.9231C28.8117 28.9385 28.1771 29.7 27.1617 30.3346C25.8925 31.0961 24.1155 31.0961 22.8463 30.3346C21.5771 29.5731 20.6886 28.3038 20.5617 26.9077C20.1809 23.1 18.2771 19.2923 15.104 16.1192L11.0425 11.9308C10.5348 11.4231 9.77323 11.4231 9.26553 11.9308C8.75784 12.4385 8.75784 13.2 9.26553 13.7077L13.454 17.8961Z" fill="#13958F"/>
<path d="M43.1536 12.1845C43.7883 12.1845 44.296 11.8038 44.4229 11.1691L45.4383 6.85375C45.5652 6.21913 45.1844 5.4576 44.5498 5.33067C43.7883 5.07683 43.1537 5.58452 43.0267 6.21913L41.8844 10.5345C41.7575 11.423 42.3921 12.1845 43.1536 12.1845Z" fill="#13958F"/>
<path d="M50.8967 9.64615L48.2314 12.3115C47.7237 12.8192 47.7237 13.5808 48.2314 14.0885C48.739 14.5962 49.5006 14.5962 50.0083 14.0885L52.8006 11.4231C53.3083 10.9154 53.3083 10.1538 52.8006 9.64615C52.2929 9.13846 51.4044 9.13846 50.8967 9.64615Z" fill="#13958F"/>
<path d="M50.2616 19.5461C50.3885 20.1808 51.1501 20.6884 51.7847 20.4346L56.1001 19.4192C56.7347 19.2923 57.2424 18.5308 56.9886 17.8961C56.7347 17.2615 56.1001 16.7538 55.4655 17.0077L51.1501 18.0231C50.5155 18.15 50.1347 18.7846 50.2616 19.5461Z" fill="#13958F"/>
</svg>
