<svg width="55" height="55" viewBox="0 0 55 55" fill="none" xmlns="http://www.w3.org/2000/svg">
<path d="M26.0699 47.85C22.7699 47.85 20.1299 45.21 20.1299 41.91C20.1299 38.61 22.7699 35.97 26.0699 35.97C29.3699 35.97 32.0099 38.61 32.0099 41.91C32.1199 45.21 29.3699 47.85 26.0699 47.85Z" stroke="#13958F" stroke-width="2" stroke-miterlimit="10" stroke-linecap="round" stroke-linejoin="round"/>
<path d="M37.1797 41.91C37.1797 47.96 32.2297 52.8 26.1797 52.8C20.1297 52.8 15.1797 47.96 15.1797 41.91C15.1797 37.73 17.5997 33.99 21.1197 32.23V7.14995C21.0097 4.39995 23.3197 2.19995 26.0697 2.19995C27.4997 2.19995 28.8197 2.74995 29.6997 3.62995C30.5797 4.50995 31.1297 5.71995 31.1297 7.14995V32.23C34.7597 33.99 37.1797 37.73 37.1797 41.91Z" stroke="#13958F" stroke-width="2" stroke-miterlimit="10" stroke-linecap="round" stroke-linejoin="round"/>
<path d="M26.0693 35.97V20.24" stroke="#13958F" stroke-width="2" stroke-miterlimit="10" stroke-linecap="round" stroke-linejoin="round"/>
<path d="M35.8594 26.4H39.9294" stroke="#13958F" stroke-width="2" stroke-miterlimit="10" stroke-linecap="round" stroke-linejoin="round"/>
<path d="M35.8594 22.11H38.2794" stroke="#13958F" stroke-width="2" stroke-miterlimit="10" stroke-linecap="round" stroke-linejoin="round"/>
<path d="M35.8594 17.8199H39.9294" stroke="#13958F" stroke-width="2" stroke-miterlimit="10" stroke-linecap="round" stroke-linejoin="round"/>
<path d="M35.8594 13.53H38.2794" stroke="#13958F" stroke-width="2" stroke-miterlimit="10" stroke-linecap="round" stroke-linejoin="round"/>
<path d="M35.8594 9.23999H39.9294" stroke="#13958F" stroke-width="2" stroke-miterlimit="10" stroke-linecap="round" stroke-linejoin="round"/>
</svg>
