<svg width="63" height="63" viewBox="0 0 63 63" fill="none" xmlns="http://www.w3.org/2000/svg">
<path d="M32.8722 31.0334C32.1425 31.0334 31.4248 30.85 30.7789 30.4871C29.6305 29.8452 28.849 28.7327 28.6337 27.4368C28.3665 25.8339 27.4534 24.4304 26.1256 23.593L10.3358 13.6167C9.88917 13.3336 9.7536 12.7435 10.0367 12.2969C10.3198 11.8503 10.9099 11.7147 11.3565 11.9978L27.1464 21.9742C28.9327 23.1026 30.1648 24.9806 30.5197 27.1218C30.6393 27.8435 31.0739 28.4616 31.7159 28.8204C32.7925 29.4225 34.1721 29.0956 34.8619 28.0708C35.0254 27.8316 35.141 27.5684 35.2048 27.2933C35.4759 26.1649 36.098 25.184 36.9991 24.4543C37.2184 24.2749 37.4058 24.0595 37.5533 23.8083C38.1794 22.7477 37.8843 21.3561 36.8795 20.6424C36.1857 20.1519 35.3045 20.0602 34.527 20.4031C32.944 21.1009 31.1457 20.9773 29.7142 20.0722L12.9475 9.47783C12.5009 9.19473 12.3653 8.6046 12.6484 8.15802C12.9315 7.71144 13.5216 7.57587 13.9682 7.85897L30.735 18.4533C31.6282 19.0155 32.7526 19.0913 33.7534 18.6487C35.153 18.0307 36.7359 18.1902 37.984 19.0754C38.8652 19.6974 39.4752 20.6264 39.7025 21.6871C39.9298 22.7477 39.7504 23.8442 39.2041 24.7733C38.9409 25.2199 38.606 25.6106 38.2073 25.9336C37.6331 26.3961 37.2423 27.0221 37.0669 27.7399C36.9473 28.2383 36.7399 28.7088 36.4489 29.1394C35.8468 30.0326 34.9337 30.6626 33.877 30.9138C33.5461 30.9935 33.2071 31.0334 32.8722 31.0334Z" fill="#13958F"/>
<path d="M34.2595 58.4423C34.2076 58.4423 34.1518 58.4383 34.1 58.4303C33.5776 58.3426 33.2267 57.8482 33.3184 57.3258L35.2643 45.8583C35.7029 43.2107 37.0426 40.8302 39.0283 39.1555L39.0403 39.1436C39.2636 38.9522 39.3912 38.681 39.3952 38.386C39.3991 38.0829 39.2755 37.8038 39.0522 37.6045L36.9748 35.7384C36.7715 35.5589 36.5243 35.4553 36.2731 35.4553C35.5553 35.4513 34.8496 35.2519 34.2355 34.8771C33.9724 34.7176 33.6773 34.6139 33.3623 34.5781C32.2459 34.4425 31.1932 35.2001 30.9659 36.3046C30.8303 36.9665 31.0058 37.6403 31.4404 38.1547C32.7124 39.65 33.2547 41.6476 32.9237 43.6373L30.6788 56.8992C30.5911 57.4215 30.0967 57.7724 29.5743 57.6847C29.052 57.597 28.7011 57.1026 28.7888 56.5802L31.0297 43.3223C31.269 41.8948 30.8822 40.4634 29.9771 39.3948C29.1557 38.4298 28.8327 37.1658 29.0839 35.9218C29.5066 33.8444 31.4843 32.4209 33.5856 32.6801C34.1717 32.7519 34.722 32.9433 35.2204 33.2463C35.5394 33.4417 35.9022 33.5453 36.2731 33.5453C36.9908 33.5493 37.6926 33.8245 38.2428 34.3189L40.3162 36.185C40.9462 36.7512 41.3051 37.5646 41.2931 38.4139C41.2812 39.2592 40.9103 40.0567 40.2684 40.6029L40.2485 40.6189C38.6057 42.0025 37.5012 43.9722 37.1343 46.1772L35.1885 57.6488C35.1207 58.1114 34.718 58.4423 34.2595 58.4423Z" fill="#13958F"/>
<path d="M43.6457 33.5414C43.5939 33.5414 43.5381 33.5414 43.4862 33.5374L39.8418 33.2982C39.0005 33.2423 38.2748 32.7599 37.896 32.0102C37.5172 31.2566 37.561 30.3874 38.0196 29.6777L39.5986 27.2214C40.0132 26.5795 40.715 26.1768 41.4806 26.1449C42.2462 26.113 42.9798 26.4559 43.4424 27.062C44.0644 27.8754 44.826 28.8642 45.5118 29.7534C46.082 30.4951 46.1617 31.468 45.7191 32.2933C45.2965 33.0749 44.5149 33.5414 43.6457 33.5414ZM41.5723 28.0588C41.5643 28.0588 41.5603 28.0588 41.5524 28.0588C41.4686 28.0628 41.3091 28.0947 41.2015 28.2582L39.6225 30.7144C39.5029 30.8978 39.5587 31.0652 39.5986 31.149C39.6424 31.2327 39.7421 31.3763 39.9614 31.3882L43.6058 31.6275C43.861 31.6434 43.9806 31.472 44.0205 31.3962C44.0604 31.3204 44.1362 31.1251 43.9806 30.9217C43.2948 30.0285 42.5372 29.0397 41.9152 28.2302C41.8075 28.0827 41.66 28.0588 41.5723 28.0588Z" fill="#13958F"/>
<path d="M42.8406 62.1228C42.7768 62.1228 42.717 62.1148 42.6532 62.1028C42.1348 61.9991 41.7999 61.4967 41.9035 60.9784L47.4619 33.2345C48.6182 27.4528 46.0185 21.4997 40.9904 18.4175L15.2282 2.64756C14.7777 2.37243 14.6341 1.78231 14.9132 1.33174C15.1883 0.881167 15.7785 0.737623 16.229 1.01674L41.9833 16.7867C44.7983 18.5092 46.9834 21.0172 48.3032 24.0436C49.623 27.07 49.9819 30.3755 49.332 33.6133L43.7776 61.3532C43.6859 61.8078 43.2871 62.1228 42.8406 62.1228Z" fill="#13958F"/>
<path d="M21.6597 59.2598C21.56 59.2598 21.4564 59.2438 21.3527 59.208C20.8503 59.0405 20.5831 58.4942 20.7506 57.9958C20.7825 57.9001 24.0242 48.183 23.0433 43.1509C22.5728 40.7545 22.9357 37.9833 24.1199 34.9091C24.5824 33.7049 25.0848 32.6961 25.4557 32.0103C22.186 30.6187 19.0958 29.0836 16.2529 27.4328C13.7408 25.9774 11.4162 24.4304 9.34281 22.8354C5.78211 20.1041 4.19515 18.1782 4.13136 18.0985C3.79642 17.6878 3.86022 17.0857 4.26693 16.7507C4.67762 16.4158 5.27971 16.4796 5.61465 16.8863C5.65053 16.9302 7.19363 18.7803 10.5829 21.3761C13.7329 23.7924 19.1756 27.365 27.1941 30.6666C27.4573 30.7742 27.6567 30.9935 27.7444 31.2647C27.8281 31.5358 27.7922 31.8309 27.6367 32.0701C27.6008 32.1259 23.9644 37.8916 24.9253 42.7881C26.0019 48.3145 22.7084 58.1912 22.5648 58.6099C22.4333 59.0086 22.0584 59.2598 21.6597 59.2598Z" fill="#13958F"/>
<path d="M52.7057 25.5549C52.307 25.5549 51.9321 25.2997 51.7966 24.9009C51.6291 24.3985 51.9002 23.8563 52.4027 23.6888L57.331 22.05C57.8334 21.8825 58.3757 22.1537 58.5432 22.6561C58.7106 23.1585 58.4395 23.7008 57.9371 23.8682L53.0087 25.507C52.909 25.5389 52.8054 25.5549 52.7057 25.5549Z" fill="#13958F"/>
<path d="M51.0785 21.9622C50.7994 21.9622 50.5242 21.8426 50.3329 21.6073C50.0019 21.1966 50.0657 20.5946 50.4764 20.2596L54.5156 16.994C54.9263 16.663 55.5284 16.7268 55.8633 17.1375C56.1942 17.5482 56.1305 18.1503 55.7198 18.4853L51.6806 21.7509C51.5011 21.8944 51.2898 21.9622 51.0785 21.9622Z" fill="#13958F"/>
<path d="M58.1278 30.1402C58.0959 30.1402 58.06 30.1402 58.0241 30.1363L52.8645 29.586C52.3382 29.5302 51.9594 29.0597 52.0152 28.5333C52.071 28.007 52.5416 27.6282 53.0679 27.684L58.2275 28.2303C58.7538 28.2861 59.1326 28.7566 59.0768 29.283C59.029 29.7734 58.6143 30.1402 58.1278 30.1402Z" fill="#13958F"/>
</svg>
