<svg width="54" height="54" viewBox="0 0 54 54" fill="none" xmlns="http://www.w3.org/2000/svg">
<path d="M45 49.5V42.75C45 36.387 45 33.2055 43.0223 31.2277C41.0468 29.25 37.863 29.25 31.5 29.25L27 33.75L22.5 29.25C16.137 29.25 12.9533 29.25 10.9778 31.2277C9.00225 33.2055 9 36.387 9 42.75V49.5M36 36V42.75M39.375 39.375H32.625M34.875 14.625V12.375C34.875 10.2864 34.0453 8.28338 32.5685 6.80653C31.0916 5.32969 29.0886 4.5 27 4.5C24.9114 4.5 22.9084 5.32969 21.4315 6.80653C19.9547 8.28338 19.125 10.2864 19.125 12.375V14.625C19.125 15.6592 19.3287 16.6832 19.7244 17.6386C20.1202 18.5941 20.7003 19.4622 21.4315 20.1935C22.1628 20.9247 23.0309 21.5048 23.9864 21.9006C24.9418 22.2963 25.9658 22.5 27 22.5C28.0342 22.5 29.0582 22.2963 30.0136 21.9006C30.9691 21.5048 31.8372 20.9247 32.5685 20.1935C33.2997 19.4622 33.8798 18.5941 34.2756 17.6386C34.6713 16.6832 34.875 15.6592 34.875 14.625Z" stroke="white" stroke-width="2" stroke-linecap="round" stroke-linejoin="round"/>
</svg>
