<svg width="54" height="54" viewBox="0 0 54 54" fill="none" xmlns="http://www.w3.org/2000/svg">
<path d="M30.2936 47.25C26.8526 47.25 23.9216 46.0485 21.5006 43.6455C19.0796 41.2425 17.8691 38.319 17.8691 34.875V33.7118C15.0191 33.4462 12.6191 32.2463 10.6691 30.1118C8.71914 27.9803 7.74414 25.443 7.74414 22.5V10.125H14.4941V7.875H16.7441V14.625H14.4941V12.375H9.99414V22.5C9.99414 24.975 10.8754 27.0938 12.6379 28.8562C14.4004 30.6187 16.5191 31.5 18.9941 31.5C21.4691 31.5 23.5879 30.6187 25.3504 28.8562C27.1129 27.0938 27.9941 24.975 27.9941 22.5V12.375H23.4941V14.625H21.2441V7.875H23.4941V10.125H30.2441V22.5C30.2441 25.443 29.2691 27.981 27.3191 30.114C25.3691 32.247 22.9691 33.4462 20.1191 33.7118V34.875C20.1191 37.6875 21.1076 40.0785 23.0846 42.048C25.0646 44.016 27.4669 45 30.2914 45C33.1039 45 35.4941 44.016 37.4621 42.048C39.4301 40.08 40.4149 37.689 40.4164 34.875V31.365C39.3634 31.1175 38.4941 30.564 37.8086 29.7045C37.1231 28.845 36.7804 27.8565 36.7804 26.739C36.7804 25.419 37.2439 24.2955 38.1709 23.3685C39.0979 22.443 40.2229 21.9803 41.5459 21.9803C42.8689 21.9803 43.9924 22.443 44.9164 23.3685C45.8404 24.294 46.3016 25.4183 46.3001 26.7413C46.3001 27.8573 45.9574 28.845 45.2719 29.7045C44.5879 30.564 43.7194 31.1182 42.6664 31.3673V34.875C42.6664 38.319 41.4649 41.2425 39.0619 43.6455C36.6589 46.0485 33.7361 47.25 30.2936 47.25ZM43.3144 28.5165C43.8034 28.0275 44.0479 27.435 44.0479 26.739C44.0479 26.0445 43.8034 25.4528 43.3144 24.9638C42.8254 24.4748 42.2329 24.2302 41.5369 24.2302C40.8409 24.2302 40.2491 24.4748 39.7616 24.9638C39.2741 25.4528 39.0296 26.0452 39.0281 26.7413C39.0266 27.4373 39.2711 28.029 39.7616 28.5165C40.2521 29.004 40.8446 29.2485 41.5391 29.25C42.2336 29.2515 42.8254 29.007 43.3144 28.5165Z" fill="white"/>
</svg>
