<svg width="54" height="54" viewBox="0 0 54 54" fill="none" xmlns="http://www.w3.org/2000/svg">
<path d="M50 21.0001C48.1058 21.0001 46.3736 21.1234 44.7531 21.3461C44.3073 17.9995 43.1989 14.6919 41.3809 11.504C41.1445 11.0889 40.6406 10.8975 40.1953 11.0518C37.4777 11.9574 34.9838 13.2332 32.7379 14.8117C31.3433 12.804 29.6592 10.9139 27.6406 9.23147C27.2695 8.92284 26.7305 8.92284 26.3593 9.23147C24.3406 10.914 22.6566 12.804 21.262 14.8117C19.0162 13.233 16.5223 11.9574 13.8046 11.0518C13.3553 10.8985 12.8554 11.0899 12.619 11.504C10.8009 14.6926 9.69253 17.9997 9.24675 21.346C7.62619 21.1233 5.89406 21.0001 4.00003 21.0001C3.44728 21.0001 3 21.4474 3 22.0001C3 29.0099 5.08594 34.5031 9.37697 38.794C13.4961 42.9122 19.4258 45.0001 27 45.0001C34.5742 45.0001 40.5039 42.9122 44.623 38.794C48.9141 34.503 51 29.0099 51 22.0001C51 21.4474 50.5527 21.0001 50 21.0001ZM40.0449 13.2228C41.5158 15.981 42.4166 18.8212 42.7881 21.6853C40.4856 22.1689 38.4466 22.9096 36.6288 23.9437C36.1561 21.3647 35.2022 18.855 33.8196 16.4893C35.7058 15.1537 37.7861 14.0485 40.0449 13.2228ZM13.9551 13.2228C16.2139 14.0486 18.2942 15.1538 20.1804 16.4892C18.7979 18.8549 17.844 21.3647 17.3713 23.9437C15.5532 22.9096 13.5145 22.1686 11.2118 21.6851C11.5831 18.8217 12.484 15.9814 13.9551 13.2228ZM10.791 37.38C7.04681 33.6349 5.19722 29.0499 5.01562 23.0119C10.0875 23.126 13.9465 24.1272 17.0666 26.1039C16.9952 27.0124 16.9805 27.9252 17.0293 28.839C17.3215 34.2998 19.7544 39.1688 23.9155 42.8541C18.3677 42.3673 13.9538 40.542 10.791 37.38ZM27 42.7862C22.1524 39.338 19.3282 34.3712 19.0253 28.7315C18.6894 22.4141 21.5859 16.1105 27 11.3184C32.4141 16.1105 35.3106 22.4141 34.9747 28.7316C34.6718 34.3712 31.8476 39.338 27 42.7862ZM43.209 37.38C40.0462 40.542 35.6323 42.3673 30.0845 42.854C34.2456 39.1688 36.6785 34.2998 36.9707 28.8389C37.0195 27.9251 37.0047 27.0123 36.9334 26.1038C40.0535 24.1271 43.9125 23.126 48.9844 23.0118C48.8028 29.0499 46.9531 33.6349 43.209 37.38Z" fill="white"/>
</svg>
