<svg width="54" height="54" viewBox="0 0 54 54" fill="none" xmlns="http://www.w3.org/2000/svg">
<path d="M32.4229 30.7415C30.9341 32.4386 29.1212 33.8272 27.0808 34.8339V40.6196C27.0808 41.1311 26.8776 41.6216 26.5159 41.9833C26.1543 42.345 25.6637 42.5482 25.1522 42.5482H13.5808C13.0693 42.5482 12.5788 42.345 12.2171 41.9833C11.8554 41.6216 11.6522 41.1311 11.6522 40.6196V34.8339C7.58814 32.8053 4.48119 29.2644 2.99813 24.9711C1.51507 20.6778 1.77407 15.9742 3.71957 11.8697C5.66506 7.76515 9.14201 4.58681 13.4043 3.01671C17.6665 1.44662 22.3744 1.60988 26.5177 3.47147M11.6522 52.0715H27.0808" stroke="white" stroke-width="2" stroke-linecap="round" stroke-linejoin="round"/>
<path d="M28.5232 12.7595C27.1693 12.9948 27.1693 14.9388 28.5232 15.1741C30.9209 15.5918 33.1402 16.7096 34.8986 18.3924C36.6569 20.0753 37.8749 22.2431 38.3975 24.6202L38.4746 24.9944C38.7678 26.3328 40.6732 26.3405 40.9779 25.0059L41.0782 24.5701C41.6167 22.2038 42.8429 20.0495 44.6026 18.3783C46.3624 16.7072 48.577 15.5937 50.9679 15.1779C52.3295 14.9388 52.3295 12.9871 50.9679 12.7479C48.5763 12.3329 46.3608 11.2197 44.6004 9.54849C42.8399 7.87726 41.6131 5.72265 41.0743 3.3558L40.9741 2.91994C40.6693 1.58537 38.7639 1.59308 38.4708 2.93151L38.3898 3.30951C37.8677 5.68555 36.6509 7.85268 34.894 9.53539C33.1371 11.2181 30.9195 12.3404 28.5232 12.7595Z" stroke="white" stroke-width="2" stroke-linecap="round" stroke-linejoin="round"/>
</svg>
